<!-- Generator: Adobe Illustrator 18.1.1, SVG Export Plug-In  -->
<svg version="1.1"
	 xmlns="http://www.w3.org/2000/svg" xmlns:xlink="http://www.w3.org/1999/xlink" xmlns:a="http://ns.adobe.com/AdobeSVGViewerExtensions/3.0/"
	 x="0px" y="0px" width="79.1px" height="79.1px" viewBox="0 0 79.1 79.1" enable-background="new 0 0 79.1 79.1"
	 xml:space="preserve">
<defs>
</defs>
<path fill="#B4CD46" d="M15.4,70.9C32.8,84.2,57.6,81,70.9,63.7S81,21.5,63.7,8.2C46.4-5.1,21.5-1.9,8.2,15.4S-1.9,57.6,15.4,70.9z
	 M16.4,50.7c0.6,1.2,0.4,2.6-0.4,3.6c-0.3,0.4-0.7,0.8-1.3,1c-1.7,0.8-3.8,0.1-4.7-1.6C9.2,52,9.9,49.9,11.7,49
	C13.4,48.2,15.5,48.9,16.4,50.7z M59.6,23.4c-1.2-1.5-1-3.7,0.5-4.9c1.5-1.2,3.7-1,4.9,0.5c1,1.3,1,3.1,0.1,4.3
	c-0.2,0.2-0.4,0.4-0.6,0.6C63,25.1,60.8,24.9,59.6,23.4z M45.1,10.7c0.6-1.8,2.6-2.9,4.4-2.3c1.8,0.6,2.9,2.6,2.3,4.4
	c-0.1,0.4-0.3,0.8-0.6,1.1c-0.9,1.1-2.4,1.7-3.8,1.2C45.5,14.5,44.5,12.5,45.1,10.7z M65.2,37c-0.2-1.9,1.2-3.6,3.1-3.8
	c1.9-0.2,3.6,1.2,3.8,3.1c0.1,0.9-0.2,1.8-0.7,2.5c-0.6,0.7-1.4,1.2-2.4,1.3C67.1,40.3,65.4,38.9,65.2,37z M28.3,12.4
	c-0.5-1.9,0.6-3.8,2.4-4.3c1.9-0.5,3.8,0.6,4.3,2.4c0.3,1.1,0.1,2.2-0.6,3.1c-0.4,0.6-1.1,1-1.8,1.2C30.8,15.3,28.8,14.2,28.3,12.4z
	 M62.4,51.5c0.9-1.7,3-2.4,4.7-1.5c1.7,0.9,2.4,3,1.5,4.7c-0.1,0.2-0.2,0.4-0.3,0.5c-1,1.3-2.9,1.8-4.4,1
	C62.1,55.3,61.5,53.2,62.4,51.5z M15.2,23c-1.5-1.3-1.6-3.5-0.4-4.9c1.3-1.5,3.5-1.6,4.9-0.4c1.4,1.2,1.6,3.3,0.5,4.8
	c0,0.1-0.1,0.1-0.1,0.2l0,0C18.9,24.1,16.7,24.3,15.2,23z M50.7,66.8c-0.9-1.7-0.3-3.8,1.4-4.8c1.7-0.9,3.8-0.3,4.8,1.4
	c0.7,1.3,0.5,2.8-0.3,3.8c-0.3,0.4-0.6,0.7-1.1,0.9C53.8,69.1,51.6,68.5,50.7,66.8z M7.1,35.2c0.3-1.9,2-3.3,3.9-3
	c1.9,0.2,3.3,2,3,3.9c-0.1,0.6-0.3,1.2-0.7,1.7c-0.7,1-2,1.5-3.2,1.3C8.2,38.8,6.9,37.1,7.1,35.2z M37.1,72.2
	c-1.9-0.1-3.4-1.8-3.2-3.7c0.1-1.9,1.8-3.4,3.7-3.2c1.9,0.1,3.4,1.8,3.2,3.8c-0.1,0.7-0.3,1.4-0.7,1.9
	C39.5,71.8,38.4,72.3,37.1,72.2C37.1,72.2,37.1,72.2,37.1,72.2z M19.6,65.5c-1.5-1.2-1.8-3.4-0.6-4.9c1.2-1.5,3.4-1.8,4.9-0.6
	c1.5,1.2,1.8,3.4,0.6,4.9C23.3,66.4,21.1,66.7,19.6,65.5z"/>
</svg>
