<!-- Generator: Adobe Illustrator 18.1.1, SVG Export Plug-In  -->
<svg version="1.1"
	 xmlns="http://www.w3.org/2000/svg" xmlns:xlink="http://www.w3.org/1999/xlink" xmlns:a="http://ns.adobe.com/AdobeSVGViewerExtensions/3.0/"
	 x="0px" y="0px" width="134.3px" height="74.3px" viewBox="0 0 134.3 74.3" enable-background="new 0 0 134.3 74.3"
	 xml:space="preserve">
<defs>
</defs>
<path fill="#86C638" d="M129.3,63.2c4.7-2,6.5-7.7,3.8-12.1c-8.1-13.2-27-38.8-55.4-47.6C49.3-5.4,19.2,4.9,5,11.1
	c-4.7,2-6.5,7.7-3.8,12.1c8.1,13.2,27,38.8,55.4,47.6C85,79.7,115.1,69.4,129.3,63.2z M41,19.5l-0.3-0.6c-0.7-1.2-0.3-2.7,0.9-3.3
	l14.1-8.1c1.2-0.7,2.7-0.3,3.3,0.9L59.2,9c0.7,1.2,0.3,2.7-0.9,3.3l-14.1,8.1C43.1,21.1,41.6,20.7,41,19.5z M64.3,26.8L64,26.2
	c-0.7-1.2-0.3-2.7,0.9-3.3l16.9-9.7c1.2-0.7,2.7-0.3,3.3,0.9l0.3,0.6c0.7,1.2,0.3,2.7-0.9,3.3l-16.9,9.7C66.5,28.4,65,28,64.3,26.8z
	 M88,34.2l-0.3-0.6c-0.7-1.2-0.3-2.7,0.9-3.3l11.2-6.4c1.2-0.7,2.7-0.3,3.3,0.9l0.3,0.6c0.7,1.2,0.3,2.7-0.9,3.3l-11.2,6.4
	C90.1,35.8,88.7,35.4,88,34.2z M124,54.7l-0.2,0.6c-0.4,1.3-1.8,2-3,1.6L25.2,27.2c-1.3-0.4-2-1.8-1.6-3l0.2-0.6
	c0.4-1.3,1.8-2,3-1.6l95.6,29.7C123.7,52.1,124.4,53.4,124,54.7z M8.8,18.9c0.6-1.8,2.5-2.8,4.3-2.3c1.8,0.6,2.8,2.5,2.3,4.3
	s-2.5,2.8-4.3,2.3C9.2,22.7,8.2,20.7,8.8,18.9z M85.8,52.7l5.5,11.6c0.6,1.2,0.1,2.7-1.2,3.2l-0.6,0.3c-1.2,0.6-2.7,0.1-3.2-1.2
	l-5.5-11.6c-0.6-1.2-0.1-2.7,1.2-3.2l0.6-0.3C83.8,51,85.2,51.5,85.8,52.7z M40.8,55l-7-14.6c-0.6-1.2-0.1-2.7,1.2-3.2l0.6-0.3
	c1.2-0.6,2.7-0.1,3.2,1.2l7,14.6c0.6,1.2,0.1,2.7-1.2,3.2L44,56.1C42.8,56.7,41.4,56.2,40.8,55z M57.2,47.7
	c-0.6-1.2-0.1-2.7,1.2-3.2l0.6-0.3c1.2-0.6,2.7-0.1,3.2,1.2l8.4,17.6c0.6,1.2,0.1,2.7-1.2,3.2l-0.6,0.3c-1.2,0.6-2.7,0.1-3.2-1.2
	L57.2,47.7z"/>
</svg>
