<!-- Generator: Adobe Illustrator 18.1.1, SVG Export Plug-In  -->
<svg version="1.1"
	 xmlns="http://www.w3.org/2000/svg" xmlns:xlink="http://www.w3.org/1999/xlink" xmlns:a="http://ns.adobe.com/AdobeSVGViewerExtensions/3.0/"
	 x="0px" y="0px" width="135.3px" height="73.6px" viewBox="0 0 135.3 73.6" enable-background="new 0 0 135.3 73.6"
	 xml:space="preserve">
<defs>
</defs>
<path fill="#39B54A" d="M4.8,12.5c-4.6,2.2-6.2,7.9-3.4,12.2c8.5,12.9,28.1,38,56.7,46.1c28.6,8.1,58.4-3.1,72.4-9.7
	c4.6-2.2,6.2-7.9,3.4-12.2c-8.5-12.9-28.1-38-56.7-46.1C48.6-5.3,18.8,5.9,4.8,12.5z M94.3,53.7l0.3,0.5c0.7,1.1,0.3,2.6-0.8,3.3
	L80,66c-1.1,0.7-2.6,0.3-3.3-0.8l-0.3-0.5c-0.7-1.1-0.3-2.6,0.8-3.3L91,52.9C92.1,52.2,93.6,52.6,94.3,53.7z M70.8,47.1l0.3,0.5
	c0.7,1.1,0.3,2.6-0.8,3.3L53.6,61.1c-1.1,0.7-2.6,0.3-3.3-0.8L50,59.8c-0.7-1.1-0.3-2.6,0.8-3.3l16.7-10.2
	C68.6,45.5,70.1,45.9,70.8,47.1z M46.9,40.3l0.3,0.5c0.7,1.1,0.3,2.6-0.8,3.3l-11,6.7c-1.1,0.7-2.6,0.3-3.3-0.8l-0.3-0.5
	c-0.7-1.1-0.3-2.6,0.8-3.3l11-6.7C44.7,38.8,46.2,39.2,46.9,40.3z M10.3,20.8l0.2-0.6c0.4-1.3,1.7-2.1,3-1.7l96.4,27
	c1.3,0.4,2.1,1.7,1.7,3l-0.2,0.6c-0.4,1.3-1.7,2.1-3,1.7L12,23.8C10.7,23.5,9.9,22.1,10.3,20.8z M126.5,53.4
	c-0.5,1.8-2.4,2.9-4.3,2.4c-1.8-0.5-2.9-2.4-2.4-4.3c0.5-1.8,2.4-2.9,4.3-2.4C126,49.7,127,51.6,126.5,53.4z M48.6,21.8l-5.9-11.5
	c-0.6-1.2-0.1-2.7,1.1-3.3l0.6-0.3c1.2-0.6,2.7-0.1,3.3,1.1l5.9,11.5c0.6,1.2,0.1,2.7-1.1,3.3l-0.6,0.3C50.6,23.4,49.2,23,48.6,21.8
	z M93.5,18.2l7.4,14.4c0.6,1.2,0.1,2.7-1.1,3.3l-0.6,0.3c-1.2,0.6-2.7,0.1-3.3-1.1l-7.4-14.4c-0.6-1.2-0.1-2.7,1.1-3.3l0.6-0.3
	C91.4,16.5,92.9,17,93.5,18.2z M77.3,26c0.6,1.2,0.1,2.7-1.1,3.3l-0.6,0.3c-1.2,0.6-2.7,0.1-3.3-1.1l-8.9-17.4
	c-0.6-1.2-0.1-2.7,1.1-3.3l0.6-0.3c1.2-0.6,2.7-0.1,3.3,1.1L77.3,26z"/>
</svg>
