<!-- Generator: Adobe Illustrator 18.1.1, SVG Export Plug-In  -->
<svg version="1.1"
	 xmlns="http://www.w3.org/2000/svg" xmlns:xlink="http://www.w3.org/1999/xlink" xmlns:a="http://ns.adobe.com/AdobeSVGViewerExtensions/3.0/"
	 x="0px" y="0px" width="81.3px" height="125.6px" viewBox="0 0 81.3 125.6" enable-background="new 0 0 81.3 125.6"
	 xml:space="preserve">
<defs>
</defs>
<path fill="#86C638" d="M14.8,0.6c-4.8-1.8-10,1-11.2,5.9C0.1,21.6-4.5,53,9.5,79.3c13.9,26.3,42.6,40.1,57,45.7
	c4.8,1.8,10-1,11.2-5.9c3.5-15.1,8.1-46.5-5.8-72.8C57.9,20,29.3,6.1,14.8,0.6z M46.8,93.8l-0.2,0.6c-0.3,1.3-1.7,2.1-3,1.7L28,91.9
	c-1.3-0.3-2.1-1.7-1.7-3l0.2-0.6c0.3-1.3,1.7-2.1,3-1.7l15.7,4.2C46.4,91.1,47.2,92.5,46.8,93.8z M35.4,72.2l-0.2,0.6
	c-0.3,1.3-1.7,2.1-3,1.7l-18.9-5c-1.3-0.3-2.1-1.7-1.7-3l0.2-0.6c0.3-1.3,1.7-2.1,3-1.7l18.9,5C35,69.5,35.7,70.9,35.4,72.2z
	 M23.8,50.2l-0.2,0.6c-0.3,1.3-1.7,2.1-3,1.7L8.2,49.3c-1.3-0.3-2.1-1.7-1.7-3l0.2-0.6c0.3-1.3,1.7-2.1,3-1.7L22,47.2
	C23.3,47.6,24.1,48.9,23.8,50.2z M12.6,10.3l0.6-0.3c1.2-0.6,2.7-0.2,3.3,1l47,88.4c0.6,1.2,0.2,2.7-1,3.3l-0.6,0.3
	c-1.2,0.6-2.7,0.2-3.3-1l-47-88.4C11,12.4,11.4,10.9,12.6,10.3z M69.3,116.8c-1.7,0.9-3.8,0.3-4.7-1.4c-0.9-1.7-0.3-3.8,1.4-4.7
	c1.7-0.9,3.8-0.3,4.7,1.4C71.6,113.9,71,116,69.3,116.8z M38.3,38.6l4.2-12.2c0.4-1.3,1.8-1.9,3.1-1.5l0.6,0.2
	c1.3,0.4,1.9,1.8,1.5,3.1l-4.2,12.2c-0.4,1.3-1.8,1.9-3.1,1.5l-0.6-0.2C38.6,41.3,37.9,39.9,38.3,38.6z M71.9,68.7L66.6,84
	c-0.4,1.3-1.8,1.9-3.1,1.5l-0.6-0.2c-1.3-0.4-1.9-1.8-1.5-3.1l5.3-15.3c0.4-1.3,1.8-1.9,3.1-1.5l0.6,0.2
	C71.7,66,72.4,67.4,71.9,68.7z M55.1,62.4c-0.4,1.3-1.8,1.9-3.1,1.5l-0.6-0.2c-1.3-0.4-1.9-1.8-1.5-3.1l6.4-18.4
	c0.4-1.3,1.8-1.9,3.1-1.5l0.6,0.2c1.3,0.4,1.9,1.8,1.5,3.1L55.1,62.4z"/>
</svg>
