<!-- Generator: Adobe Illustrator 18.1.1, SVG Export Plug-In  -->
<svg version="1.1"
	 xmlns="http://www.w3.org/2000/svg" xmlns:xlink="http://www.w3.org/1999/xlink" xmlns:a="http://ns.adobe.com/AdobeSVGViewerExtensions/3.0/"
	 x="0px" y="0px" width="138.6px" height="71.4px" viewBox="0 0 138.6 71.4" enable-background="new 0 0 138.6 71.4"
	 xml:space="preserve">
<defs>
</defs>
<path fill="#2BB673" d="M134.8,51.6c4.3-2.8,5.2-8.7,1.8-12.5C126.5,27.4,103.9,5.1,74.4,0.8C45-3.5,16.9,11.4,3.9,19.7
	c-4.3,2.8-5.2,8.7-1.8,12.5C12.1,44,34.8,66.3,64.2,70.6C93.7,74.9,121.7,60,134.8,51.6z M40.7,22.4l-0.4-0.5
	c-0.8-1-0.7-2.6,0.4-3.4L53.2,8.3c1-0.8,2.6-0.7,3.4,0.4l0.4,0.5c0.8,1,0.7,2.6-0.4,3.4L44.1,22.7C43,23.6,41.5,23.4,40.7,22.4z
	 M64.9,25.9l-0.4-0.5c-0.8-1-0.7-2.6,0.4-3.4L80.1,9.7c1-0.8,2.6-0.7,3.4,0.4l0.4,0.5c0.8,1,0.7,2.6-0.4,3.4L68.3,26.3
	C67.2,27.1,65.7,27,64.9,25.9z M89.4,29.5L89,29c-0.8-1-0.7-2.6,0.4-3.4l10-8.1c1-0.8,2.6-0.7,3.4,0.4l0.4,0.5
	c0.8,1,0.7,2.6-0.4,3.4l-10,8.1C91.8,30.7,90.3,30.5,89.4,29.5z M128.2,44.1l-0.1,0.6c-0.2,1.3-1.4,2.3-2.8,2.1L26.3,32.5
	C25,32.3,24,31,24.2,29.7l0.1-0.6c0.2-1.3,1.4-2.3,2.8-2.1l99.1,14.3C127.5,41.5,128.4,42.8,128.2,44.1z M8.8,26.9
	c0.3-1.9,2-3.2,3.9-2.9c1.9,0.3,3.2,2,2.9,3.9c-0.3,1.9-2,3.2-3.9,2.9S8.5,28.7,8.8,26.9z M90.2,48.1l7.3,10.6
	c0.8,1.1,0.5,2.6-0.6,3.4l-0.5,0.4c-1.1,0.8-2.6,0.5-3.4-0.6l-7.3-10.6c-0.8-1.1-0.5-2.6,0.6-3.4l0.5-0.4
	C87.9,46.7,89.4,47,90.2,48.1z M46.1,57.5l-9.2-13.3c-0.8-1.1-0.5-2.6,0.6-3.4l0.5-0.4c1.1-0.8,2.6-0.5,3.4,0.6l9.2,13.3
	c0.8,1.1,0.5,2.6-0.6,3.4l-0.5,0.4C48.4,58.8,46.8,58.6,46.1,57.5z M61.1,47.6c-0.8-1.1-0.5-2.6,0.6-3.4l0.5-0.4
	c1.1-0.8,2.6-0.5,3.4,0.6l11.1,16.1c0.8,1.1,0.5,2.6-0.6,3.4l-0.5,0.4c-1.1,0.8-2.6,0.5-3.4-0.6L61.1,47.6z"/>
</svg>
