<!-- Generator: Adobe Illustrator 18.1.1, SVG Export Plug-In  -->
<svg version="1.1"
	 xmlns="http://www.w3.org/2000/svg" xmlns:xlink="http://www.w3.org/1999/xlink" xmlns:a="http://ns.adobe.com/AdobeSVGViewerExtensions/3.0/"
	 x="0px" y="0px" width="61.1px" height="75.7px" viewBox="0 0 61.1 75.7" enable-background="new 0 0 61.1 75.7"
	 xml:space="preserve">
<defs>
</defs>
<path fill="#FFDD00" d="M59.1,59L19,4.3C15.5-0.4,9-1.4,4.3,2l0,0C-0.4,5.5-1.4,12,2,16.7l40.1,54.7c3.4,4.7,10,5.7,14.7,2.3l0,0
	C61.5,70.2,62.5,63.6,59.1,59z M7.5,12.3c-1.1-1.6-0.8-3.8,0.8-4.9c1.6-1.1,3.7-0.8,4.9,0.8c1.1,1.6,0.8,3.7-0.7,4.9
	C10.8,14.2,8.6,13.9,7.5,12.3z M17.6,26c-1.1-1.6-0.8-3.8,0.8-4.9c1.6-1.1,3.7-0.8,4.9,0.8c1.1,1.6,0.8,3.7-0.7,4.9
	C20.9,27.9,18.7,27.6,17.6,26z M27.6,39.7c-1.1-1.6-0.8-3.8,0.8-4.9c1.6-1.1,3.7-0.8,4.9,0.8c1.1,1.6,0.8,3.7-0.7,4.9
	C30.9,41.6,28.8,41.3,27.6,39.7z M37.7,53.4c-1.1-1.6-0.8-3.8,0.8-4.9c1.6-1.1,3.7-0.8,4.9,0.8c1.1,1.6,0.8,3.7-0.7,4.9
	C41,55.3,38.8,55,37.7,53.4z M47.7,67.1c-1.1-1.6-0.8-3.8,0.8-4.9c1.6-1.1,3.7-0.8,4.9,0.8c1.1,1.6,0.8,3.7-0.7,4.9
	C51.1,69,48.9,68.7,47.7,67.1z"/>
</svg>
