<!-- Generator: Adobe Illustrator 18.1.1, SVG Export Plug-In  -->
<svg version="1.1"
	 xmlns="http://www.w3.org/2000/svg" xmlns:xlink="http://www.w3.org/1999/xlink" xmlns:a="http://ns.adobe.com/AdobeSVGViewerExtensions/3.0/"
	 x="0px" y="0px" width="37.9px" height="68.8px" viewBox="0 0 37.9 68.8" enable-background="new 0 0 37.9 68.8"
	 xml:space="preserve">
<defs>
</defs>
<path fill="#FFDD00" d="M37.3,54.8L20.4,7C18.5,1.5,12.5-1.3,7,0.6l0,0C1.5,2.5-1.3,8.5,0.6,14l16.9,47.8c1.9,5.5,7.9,8.3,13.4,6.4
	l0,0C36.4,66.2,39.2,60.2,37.3,54.8z M7,11.2C6.4,9.4,7.4,7.4,9.2,6.8C11,6.1,13,7.1,13.6,8.9c0.6,1.8-0.3,3.8-2.1,4.5
	C9.7,14,7.7,13,7,11.2z M12.7,27.3c-0.6-1.8,0.3-3.8,2.1-4.5c1.8-0.6,3.8,0.3,4.5,2.1c0.6,1.8-0.3,3.8-2.1,4.5
	C15.4,30,13.4,29.1,12.7,27.3z M18.4,43.3c-0.6-1.8,0.3-3.8,2.1-4.5c1.8-0.6,3.8,0.3,4.5,2.1c0.6,1.8-0.3,3.8-2.1,4.5
	C21,46.1,19,45.1,18.4,43.3z M24.1,59.3c-0.6-1.8,0.3-3.8,2.1-4.5c1.8-0.6,3.8,0.3,4.5,2.1c0.6,1.8-0.3,3.8-2.1,4.5
	C26.7,62.1,24.7,61.1,24.1,59.3z"/>
</svg>
