<!-- Generator: Adobe Illustrator 18.1.1, SVG Export Plug-In  -->
<svg version="1.1"
	 xmlns="http://www.w3.org/2000/svg" xmlns:xlink="http://www.w3.org/1999/xlink" xmlns:a="http://ns.adobe.com/AdobeSVGViewerExtensions/3.0/"
	 x="0px" y="0px" width="29.9px" height="35.1px" viewBox="0 0 29.9 35.1" enable-background="new 0 0 29.9 35.1"
	 xml:space="preserve">
<defs>
</defs>
<path fill="#FFDD00" d="M10.5,4.9L1.6,19C-1.5,23.9,0,30.4,4.9,33.5l0,0c4.9,3.1,11.4,1.6,14.5-3.3l8.9-14.1
	c3.1-4.9,1.6-11.4-3.3-14.5l0,0C20.1-1.5,13.6,0,10.5,4.9z M13.5,26.3c-0.9,2.3-3.8,3-5.7,1.3c-1-0.9-1.4-2.5-0.9-3.8
	c0.9-2.4,3.9-3,5.7-1.3C13.7,23.4,14,25,13.5,26.3z M22.6,11.9c-0.9,2.3-3.8,3-5.7,1.3c-1-0.9-1.4-2.5-0.9-3.8
	c0.9-2.4,3.9-3,5.7-1.3C22.8,9.1,23.1,10.6,22.6,11.9z"/>
</svg>
