<!-- Generator: Adobe Illustrator 18.1.1, SVG Export Plug-In  -->
<svg version="1.1"
	 xmlns="http://www.w3.org/2000/svg" xmlns:xlink="http://www.w3.org/1999/xlink" xmlns:a="http://ns.adobe.com/AdobeSVGViewerExtensions/3.0/"
	 x="0px" y="0px" width="54.7px" height="53.8px" viewBox="0 0 54.7 53.8" enable-background="new 0 0 54.7 53.8"
	 xml:space="preserve">
<defs>
</defs>
<path fill="#9B8579" d="M20.4,3.2L2.9,23.6C1,25.7,0,28.4,0,31.3l0,16.2c0,3.4,2.8,6.2,6.2,6.2h42.2c3.4,0,6.2-2.8,6.2-6.2l0.1-16.2
	c0-2.8-1-5.6-2.9-7.7L34.4,3.2c-1.8-2.1-4.3-3.2-7-3.2C24.7,0,22.1,1.2,20.4,3.2z M47.7,43.3c0,1.9-1.6,3.5-3.5,3.5
	c-1.9,0-3.5-1.6-3.5-3.5c0-1.9,1.6-3.5,3.5-3.5C46.1,39.8,47.7,41.3,47.7,43.3z M27.2,46.8c-0.9,0-1.7-0.4-2.3-0.9
	c-0.6-0.6-0.9-1.5-0.9-2.4c0-1.9,1.6-3.5,3.5-3.5c0.7,0,1.4,0.2,1.9,0.6c0.1,0,0.1,0.1,0.2,0.2c0.1,0.1,0.1,0.1,0.2,0.2
	c0.6,0.6,0.9,1.5,0.9,2.4C30.7,45.2,29.1,46.8,27.2,46.8z M13.7,43.3c0,1.9-1.6,3.5-3.5,3.5c-1.9,0-3.5-1.6-3.5-3.5
	c0-1.9,1.6-3.5,3.5-3.5C12.1,39.8,13.7,41.3,13.7,43.3z M40.3,18.4l7.1,8.2c0.2,0.2,0.3,0.5,0.3,0.7v5.3c0,0.6-0.5,1.2-1.2,1.2H39
	c-0.6,0-1.2-0.5-1.2-1.2V19.3C37.9,18,39.5,17.4,40.3,18.4z M27.3,29.8c-0.9,0-1.8-0.4-2.4-1c-0.6-0.6-1-1.5-1-2.4
	c0-1.9,1.6-3.5,3.5-3.5c0.9,0,1.8,0.4,2.4,1c0.6,0.6,1,1.5,1,2.4C30.8,28.3,29.2,29.8,27.3,29.8z M16.9,19.3v13.3
	c0,0.6-0.5,1.2-1.2,1.2H8.2c-0.6,0-1.2-0.5-1.2-1.2v-5.3c0-0.3,0.1-0.5,0.3-0.7l7.1-8.2C15.2,17.4,16.9,18,16.9,19.3z M30.9,9.5
	c0,1.9-1.6,3.5-3.5,3.5c-1.9,0-3.5-1.6-3.5-3.5c0-1.9,1.6-3.5,3.5-3.5C29.3,6,30.9,7.5,30.9,9.5z"/>
</svg>
