<!-- Generator: Adobe Illustrator 18.1.1, SVG Export Plug-In  -->
<svg version="1.1"
	 xmlns="http://www.w3.org/2000/svg" xmlns:xlink="http://www.w3.org/1999/xlink" xmlns:a="http://ns.adobe.com/AdobeSVGViewerExtensions/3.0/"
	 x="0px" y="0px" width="85.1px" height="147px" viewBox="0 0 85.1 147" enable-background="new 0 0 85.1 147" xml:space="preserve"
	>
<defs>
</defs>
<path fill="#009C91" d="M0,7.6l0.5,132.2c0,4,3.3,7.3,7.3,7.2l70-0.3c4,0,7.3-3.3,7.2-7.3L84.5,7.2c0-4-3.3-7.3-7.3-7.2l-70,0.3
	C3.2,0.3,0,3.6,0,7.6z M6.4,8.6c0-1.9,1.5-3.5,3.4-3.5c1.9,0,3.5,1.5,3.5,3.4c0,1.9-1.5,3.5-3.4,3.5C8,12,6.4,10.5,6.4,8.6z
	 M6.5,30.1c0-1.9,1.5-3.5,3.4-3.5c1.9,0,3.5,1.5,3.5,3.4c0,1.9-1.5,3.5-3.4,3.5C8.1,33.5,6.5,32,6.5,30.1z M6.6,51.6
	c0-1.9,1.5-3.5,3.4-3.5s3.5,1.5,3.5,3.4c0,1.9-1.5,3.5-3.4,3.5C8.2,55,6.6,53.5,6.6,51.6z M6.7,73.1c0-1.9,1.5-3.5,3.4-3.5
	c1.9,0,3.5,1.5,3.5,3.4c0,1.9-1.5,3.5-3.4,3.5C8.3,76.5,6.7,75,6.7,73.1z M6.8,94.6c0-1.9,1.5-3.5,3.4-3.5s3.5,1.5,3.5,3.4
	c0,1.9-1.5,3.5-3.4,3.5C8.4,98.1,6.8,96.5,6.8,94.6z M6.9,116.1c0-1.9,1.5-3.5,3.4-3.5c1.9,0,3.5,1.5,3.5,3.4c0,1.9-1.5,3.5-3.4,3.5
	C8.5,119.6,6.9,118,6.9,116.1z M7,137.6c0-1.9,1.5-3.5,3.4-3.5c1.9,0,3.5,1.5,3.5,3.4c0,1.9-1.5,3.5-3.4,3.5
	C8.5,141.1,7,139.5,7,137.6z M21.1,123.3c0-1.9,0.7-3.7,2.1-5L55.7,86c3.1-3.1,8.5-0.9,8.5,3.5l0.2,46.3c0,0.8-0.6,1.4-1.4,1.4
	l-38.8,0.2c-1.7,0-3.1-1.4-3.1-3.1L21.1,123.3z M78.7,137.3c0,1.9-1.5,3.5-3.4,3.5c-1.9,0-3.5-1.5-3.5-3.4c0-1.9,1.5-3.5,3.4-3.5
	C77.1,133.9,78.7,135.4,78.7,137.3z M78.6,115.8c0,1.9-1.5,3.5-3.4,3.5c-1.9,0-3.5-1.5-3.5-3.4s1.5-3.5,3.4-3.5
	C77,112.4,78.6,113.9,78.6,115.8z M78.5,94.3c0,1.9-1.5,3.5-3.4,3.5c-1.9,0-3.5-1.5-3.5-3.4c0-1.9,1.5-3.5,3.4-3.5
	S78.5,92.4,78.5,94.3z M78.4,72.8c0,1.9-1.5,3.5-3.4,3.5c-1.9,0-3.5-1.5-3.5-3.4c0-1.9,1.5-3.5,3.4-3.5
	C76.8,69.3,78.4,70.9,78.4,72.8z M54.6,77.6l-26.1,25.8c-2.4,2.4-6.4,0.7-6.5-2.7l-0.2-55.1c0-3.3,3.9-4.9,6.3-2.6l26.5,26.3
	C56.9,71.6,56.9,75.3,54.6,77.6z M78.3,51.3c0,1.9-1.5,3.5-3.4,3.5c-1.9,0-3.5-1.5-3.5-3.4c0-1.9,1.5-3.5,3.4-3.5
	S78.3,49.4,78.3,51.3z M78.2,29.8c0,1.9-1.5,3.5-3.4,3.5c-1.9,0-3.5-1.5-3.5-3.4c0-1.9,1.5-3.5,3.4-3.5
	C76.7,26.3,78.2,27.9,78.2,29.8z M78.1,8.3c0,1.9-1.5,3.5-3.4,3.5c-1.9,0-3.5-1.5-3.5-3.4s1.5-3.5,3.4-3.5
	C76.6,4.8,78.1,6.4,78.1,8.3z M55.7,60L22.8,27.9c-1.3-1.3-2.1-3.1-2.1-5l0-10.9c0-1.7,1.4-3.1,3.1-3.1l38.8-0.2
	c0.8,0,1.4,0.6,1.4,1.4l0.2,46.3C64.2,60.8,58.8,63.1,55.7,60z"/>
</svg>
