<!-- Generator: Adobe Illustrator 18.1.1, SVG Export Plug-In  -->
<svg version="1.1"
	 xmlns="http://www.w3.org/2000/svg" xmlns:xlink="http://www.w3.org/1999/xlink" xmlns:a="http://ns.adobe.com/AdobeSVGViewerExtensions/3.0/"
	 x="0px" y="0px" width="21.3px" height="54.7px" viewBox="0 0 21.3 54.7" enable-background="new 0 0 21.3 54.7"
	 xml:space="preserve">
<defs>
</defs>
<path fill="#835327" d="M21.3,44.1L21,10.4C21,4.6,16.2,0,10.4,0C4.6,0,0,4.8,0,10.6l0.3,33.7c0,5.8,4.8,10.5,10.6,10.4
	C16.7,54.6,21.3,49.9,21.3,44.1z M7,10.2c0-1.9,1.5-3.5,3.5-3.5c1.9,0,3.5,1.5,3.5,3.5c0,1.9-1.5,3.5-3.5,3.5
	C8.6,13.7,7,12.2,7,10.2z M7.1,27.2c0-1.9,1.5-3.5,3.5-3.5c1.9,0,3.5,1.5,3.5,3.5c0,1.9-1.5,3.5-3.5,3.5C8.7,30.7,7.2,29.2,7.1,27.2
	z M7.3,44.2c0-1.9,1.5-3.5,3.5-3.5c1.9,0,3.5,1.5,3.5,3.5c0,1.9-1.5,3.5-3.5,3.5C8.9,47.7,7.3,46.2,7.3,44.2z"/>
</svg>
