<!-- Generator: Adobe Illustrator 18.1.1, SVG Export Plug-In  -->
<svg version="1.1"
	 xmlns="http://www.w3.org/2000/svg" xmlns:xlink="http://www.w3.org/1999/xlink" xmlns:a="http://ns.adobe.com/AdobeSVGViewerExtensions/3.0/"
	 x="0px" y="0px" width="89px" height="89px" viewBox="0 0 89 89" enable-background="new 0 0 89 89" xml:space="preserve">
<defs>
</defs>
<path fill="#B3B5B7" d="M0,78.5C0,84.3,4.7,89,10.5,89S21,84.3,21,78.5C21,46.8,46.8,21,78.5,21C84.3,21,89,16.3,89,10.5
	S84.3,0,78.5,0C35.2,0,0,35.2,0,78.5z M14,78.5c0,1.9-1.6,3.5-3.5,3.5C8.6,82,7,80.4,7,78.5c0-1.9,1.6-3.5,3.5-3.5
	C12.4,75,14,76.6,14,78.5z M13.7,57.5c1.6,0.4,2.6,1.8,2.6,3.4c0,0.3,0,0.6-0.1,0.9c-0.5,1.9-2.4,3-4.3,2.5c-1.9-0.5-3-2.4-2.5-4.3
	C9.9,58.1,11.8,57,13.7,57.5z M21.3,41.5c1.1,0.7,1.8,1.8,1.8,3c0,0.6-0.1,1.2-0.5,1.8c-1,1.7-3.1,2.2-4.8,1.3
	c-1.7-1-2.2-3.1-1.3-4.8C17.5,41.1,19.7,40.5,21.3,41.5z M32.9,28c0.7,0.7,1,1.6,1,2.5c0,0.9-0.4,1.8-1,2.5c-1.4,1.4-3.6,1.4-4.9,0
	c-1.4-1.4-1.4-3.6,0-5c0,0,0,0,0,0C29.3,26.6,31.5,26.6,32.9,28z M47.5,17.9c0.3,0.6,0.5,1.2,0.5,1.8c0,1.2-0.6,2.4-1.8,3
	c-1.7,1-3.8,0.4-4.8-1.3c-1-1.7-0.4-3.8,1.3-4.8C44.4,15.6,46.5,16.2,47.5,17.9z M61.7,16.2c-1.9,0.5-3.8-0.6-4.3-2.5
	c-0.5-1.9,0.6-3.8,2.5-4.3c1.9-0.5,3.8,0.6,4.3,2.5c0.1,0.3,0.1,0.6,0.1,0.9C64.3,14.4,63.3,15.8,61.7,16.2z M81.9,10.5
	c0,1.9-1.6,3.5-3.5,3.5c-1.9,0-3.5-1.6-3.5-3.5c0-1.9,1.6-3.5,3.5-3.5C80.4,7,81.9,8.6,81.9,10.5z"/>
</svg>
