<!-- Generator: Adobe Illustrator 18.1.1, SVG Export Plug-In  -->
<svg version="1.1"
	 xmlns="http://www.w3.org/2000/svg" xmlns:xlink="http://www.w3.org/1999/xlink" xmlns:a="http://ns.adobe.com/AdobeSVGViewerExtensions/3.0/"
	 x="0px" y="0px" width="21px" height="54.7px" viewBox="0 0 21 54.7" enable-background="new 0 0 21 54.7" xml:space="preserve">
<defs>
</defs>
<path fill="#835427" d="M21,44.2l0-33.7C21,4.7,16.3,0,10.5,0C4.7,0,0,4.7,0,10.5l0,33.7C0,50,4.7,54.7,10.5,54.7
	C16.3,54.7,21,50,21,44.2z M7,10.2c0-1.9,1.6-3.5,3.5-3.5c1.9,0,3.5,1.6,3.5,3.5c0,1.9-1.6,3.5-3.5,3.5C8.6,13.7,7,12.1,7,10.2z
	 M7,27.2c0-1.9,1.6-3.5,3.5-3.5c1.9,0,3.5,1.6,3.5,3.5c0,1.9-1.6,3.5-3.5,3.5C8.6,30.7,7,29.1,7,27.2z M7,44.2
	c0-1.9,1.6-3.5,3.5-3.5c1.9,0,3.5,1.6,3.5,3.5c0,1.9-1.6,3.5-3.5,3.5C8.6,47.7,7,46.1,7,44.2z"/>
</svg>
