<!-- Generator: Adobe Illustrator 18.1.1, SVG Export Plug-In  -->
<svg version="1.1"
	 xmlns="http://www.w3.org/2000/svg" xmlns:xlink="http://www.w3.org/1999/xlink" xmlns:a="http://ns.adobe.com/AdobeSVGViewerExtensions/3.0/"
	 x="0px" y="0px" width="68.7px" height="66.7px" viewBox="0 0 68.7 66.7" enable-background="new 0 0 68.7 66.7"
	 xml:space="preserve">
<defs>
</defs>
<path fill="#538542" d="M35.4,3.5L2.3,42.7c-5,5.9-1.6,15,6,16.2l48.9,7.7c7.3,1.2,13.3-5.9,10.9-12.9L52.3,6.7
	C49.9-0.6,40.4-2.4,35.4,3.5z M12.8,46.9c1.5,1.2,1.6,3.4,0.4,4.9c-1.2,1.5-3.4,1.6-4.9,0.4s-1.6-3.4-0.4-4.9
	C9.2,45.8,11.3,45.6,12.8,46.9z M36.7,50.1c1.5,1.2,1.6,3.4,0.4,4.9c-1.2,1.5-3.4,1.6-4.9,0.4c-1.5-1.2-1.6-3.4-0.4-4.9
	C33.1,49,35.3,48.9,36.7,50.1z M29.3,27.3c1.5,1.2,1.6,3.4,0.4,4.9c-1.2,1.5-3.4,1.6-4.9,0.4c-1.5-1.2-1.6-3.4-0.4-4.9
	C25.7,26.2,27.9,26,29.3,27.3z M60.2,53.3c1.5,1.2,1.6,3.4,0.4,4.9c-1.2,1.5-3.4,1.6-4.9,0.4s-1.6-3.4-0.4-4.9
	C56.6,52.3,58.8,52.1,60.2,53.3z M53.1,30.7c1.5,1.2,1.6,3.4,0.4,4.9c-1.2,1.5-3.4,1.6-4.9,0.4c-1.5-1.2-1.6-3.4-0.4-4.9
	C49.5,29.7,51.6,29.5,53.1,30.7z M45.3,8.3c1.5,1.2,1.6,3.4,0.4,4.9c-1.2,1.5-3.4,1.6-4.9,0.4s-1.6-3.4-0.4-4.9
	C41.7,7.3,43.8,7.1,45.3,8.3z"/>
</svg>
