<!-- Generator: Adobe Illustrator 18.1.1, SVG Export Plug-In  -->
<svg version="1.1"
	 xmlns="http://www.w3.org/2000/svg" xmlns:xlink="http://www.w3.org/1999/xlink" xmlns:a="http://ns.adobe.com/AdobeSVGViewerExtensions/3.0/"
	 x="0px" y="0px" width="107.4px" height="85.6px" viewBox="0 0 107.4 85.6" enable-background="new 0 0 107.4 85.6"
	 xml:space="preserve">
<defs>
</defs>
<path fill="#C24F5F" d="M7.9,85.6h91.6c4.4,0,7.9-3.5,7.9-7.9V7.9c0-4.4-3.5-7.9-7.9-7.9L7.9,0C3.5,0,0,3.5,0,7.9l0,69.8
	C0,82,3.5,85.6,7.9,85.6z M25.4,64.5H14.2c-2.1,0-3.9-1.7-3.9-3.9V49.4c0-0.7,0.8-1,1.3-0.5l14.3,14.3
	C26.4,63.7,26.1,64.5,25.4,64.5z M17.4,42.3l14.7-14.7c0.3-0.3,0.8-0.3,1.1,0l14.4,14.7c0.3,0.3,0.3,0.7,0,1L33.2,58.1
	c-0.3,0.3-0.8,0.3-1.1,0L17.4,43.3C17.1,43,17.1,42.6,17.4,42.3z M32.2,77.9c-1.9,0-3.4-1.5-3.4-3.5c0-1.9,1.5-3.4,3.5-3.4
	c1.9,0,3.4,1.5,3.4,3.5C35.6,76.3,34.1,77.9,32.2,77.9z M53.7,77.9c-1.9,0-3.4-1.5-3.4-3.5s1.5-3.4,3.5-3.4c1.9,0,3.4,1.5,3.4,3.5
	C57.1,76.3,55.6,77.9,53.7,77.9z M67.5,64.5H39.9c-0.7,0-1-0.8-0.5-1.3l13.8-13.8c0.3-0.3,0.8-0.3,1.1,0L68,63.2
	C68.5,63.7,68.1,64.5,67.5,64.5z M59.7,42.3l14.5-14.7c0.3-0.3,0.8-0.3,1.1,0L90,42.3c0.3,0.3,0.3,0.8,0,1.1L75.3,58.1
	c-0.3,0.3-0.8,0.3-1.1,0L59.7,43.3C59.4,43,59.4,42.6,59.7,42.3z M75.2,77.9c-1.9,0-3.4-1.5-3.4-3.5s1.5-3.4,3.5-3.4
	c1.9,0,3.4,1.5,3.4,3.5C78.6,76.3,77.1,77.9,75.2,77.9z M82,64.5c-0.7,0-1-0.8-0.5-1.3l14.3-14.3c0.5-0.5,1.3-0.1,1.3,0.5v11.2
	c0,2.1-1.7,3.9-3.9,3.9H82z M96.7,77.9c-1.9,0-3.4-1.5-3.4-3.5c0-1.9,1.5-3.4,3.5-3.4c1.9,0,3.4,1.5,3.4,3.5
	C100.2,76.3,98.6,77.9,96.7,77.9z M96.7,6.3c1.9,0,3.4,1.5,3.4,3.5c0,1.9-1.5,3.4-3.5,3.4c-1.9,0-3.4-1.5-3.4-3.5
	C93.3,7.8,94.8,6.3,96.7,6.3z M82,21.1h11.2c2.1,0,3.9,1.7,3.9,3.9v11.2c0,0.7-0.8,1-1.3,0.5L81.4,22.4C81,21.9,81.3,21.1,82,21.1z
	 M75.2,6.3c1.9,0,3.4,1.5,3.4,3.5c0,1.9-1.5,3.4-3.5,3.4c-1.9,0-3.4-1.5-3.4-3.5S73.3,6.3,75.2,6.3z M53.7,6.3
	c1.9,0,3.4,1.5,3.4,3.5c0,1.9-1.5,3.4-3.5,3.4c-1.9,0-3.4-1.5-3.4-3.5S51.8,6.3,53.7,6.3z M39.9,21.1h27.6c0.7,0,1,0.8,0.5,1.3
	L54.2,36.2c-0.3,0.3-0.8,0.3-1.1,0L39.4,22.4C38.9,21.9,39.2,21.1,39.9,21.1z M32.2,6.3c1.9,0,3.4,1.5,3.4,3.5
	c0,1.9-1.5,3.4-3.5,3.4s-3.4-1.5-3.4-3.5C28.7,7.8,30.3,6.3,32.2,6.3z M25.4,21.1c0.7,0,1,0.8,0.5,1.3L11.6,36.7
	c-0.5,0.5-1.3,0.1-1.3-0.5V25c0-2.1,1.7-3.9,3.9-3.9H25.4z M10.7,6.3c1.9,0,3.4,1.5,3.4,3.5c0,1.9-1.5,3.4-3.5,3.4
	c-1.9,0-3.4-1.5-3.4-3.5S8.8,6.3,10.7,6.3z M10.7,71c1.9,0,3.4,1.5,3.4,3.5c0,1.9-1.5,3.4-3.5,3.4c-1.9,0-3.4-1.5-3.4-3.5
	S8.8,71,10.7,71z"/>
</svg>
