<!-- Generator: Adobe Illustrator 18.1.1, SVG Export Plug-In  -->
<svg version="1.1"
	 xmlns="http://www.w3.org/2000/svg" xmlns:xlink="http://www.w3.org/1999/xlink" xmlns:a="http://ns.adobe.com/AdobeSVGViewerExtensions/3.0/"
	 x="0px" y="0px" width="84.5px" height="275px" viewBox="0 0 84.5 275" enable-background="new 0 0 84.5 275" xml:space="preserve"
	>
<defs>
</defs>
<path fill="#009D92" d="M0,7.3l0,260.5c0,4,3.3,7.3,7.3,7.3h70c4,0,7.3-3.3,7.3-7.3V7.3c0-4-3.3-7.3-7.3-7.3l-70,0
	C3.3,0,0,3.3,0,7.3z M6.4,29.6c0-1.9,1.5-3.4,3.5-3.4c1.9,0,3.4,1.5,3.4,3.5c0,1.9-1.5,3.4-3.5,3.4C8,33,6.4,31.5,6.4,29.6z
	 M6.4,51.1c0-1.9,1.5-3.4,3.5-3.4s3.4,1.5,3.4,3.5c0,1.9-1.5,3.4-3.5,3.4C8,54.6,6.4,53,6.4,51.1z M6.4,72.6c0-1.9,1.5-3.4,3.5-3.4
	s3.4,1.5,3.4,3.5c0,1.9-1.5,3.4-3.5,3.4C8,76.1,6.4,74.5,6.4,72.6z M6.4,94.1c0-1.9,1.5-3.4,3.5-3.4c1.9,0,3.4,1.5,3.4,3.5
	c0,1.9-1.5,3.4-3.5,3.4C8,97.6,6.4,96,6.4,94.1z M6.4,115.6c0-1.9,1.5-3.4,3.5-3.4c1.9,0,3.4,1.5,3.4,3.5c0,1.9-1.5,3.4-3.5,3.4
	C8,119.1,6.4,117.5,6.4,115.6z M6.4,137.2c0-1.9,1.5-3.4,3.5-3.4s3.4,1.5,3.4,3.5c0,1.9-1.5,3.4-3.5,3.4
	C8,140.6,6.4,139.1,6.4,137.2z M6.4,158.7c0-1.9,1.5-3.4,3.5-3.4c1.9,0,3.4,1.5,3.4,3.5c0,1.9-1.5,3.4-3.5,3.4
	C8,162.1,6.4,160.6,6.4,158.7z M6.4,180.2c0-1.9,1.5-3.4,3.5-3.4s3.4,1.5,3.4,3.5c0,1.9-1.5,3.4-3.5,3.4
	C8,183.6,6.4,182.1,6.4,180.2z M6.4,201.7c0-1.9,1.5-3.4,3.5-3.4c1.9,0,3.4,1.5,3.4,3.5c0,1.9-1.5,3.4-3.5,3.4
	C8,205.1,6.4,203.6,6.4,201.7z M6.4,223.2c0-1.9,1.5-3.4,3.5-3.4c1.9,0,3.4,1.5,3.4,3.5c0,1.9-1.5,3.4-3.5,3.4
	C8,226.7,6.4,225.1,6.4,223.2z M6.4,244.7c0-1.9,1.5-3.4,3.5-3.4s3.4,1.5,3.4,3.5c0,1.9-1.5,3.4-3.5,3.4
	C8,248.2,6.4,246.6,6.4,244.7z M6.4,266.2c0-1.9,1.5-3.4,3.5-3.4c1.9,0,3.4,1.5,3.4,3.5c0,1.9-1.5,3.4-3.5,3.4
	C8,269.7,6.4,268.1,6.4,266.2z M78.1,266.2c0,1.9-1.5,3.4-3.5,3.4c-1.9,0-3.4-1.5-3.4-3.5c0-1.9,1.5-3.4,3.5-3.4
	C76.6,262.8,78.1,264.3,78.1,266.2z M63.9,262.8c0,1.7-1.4,3.1-3.1,3.1H22c-0.8,0-1.4-0.6-1.4-1.4v-46.3c0-4.4,5.3-6.7,8.5-3.6
	l32.7,32.2c1.3,1.3,2.1,3.1,2.1,5V262.8z M78.1,244.7c0,1.9-1.5,3.4-3.5,3.4c-1.9,0-3.4-1.5-3.4-3.5c0-1.9,1.5-3.4,3.5-3.4
	S78.1,242.8,78.1,244.7z M78.1,223.2c0,1.9-1.5,3.4-3.5,3.4c-1.9,0-3.4-1.5-3.4-3.5s1.5-3.4,3.5-3.4
	C76.6,219.8,78.1,221.3,78.1,223.2z M78.1,201.7c0,1.9-1.5,3.4-3.5,3.4c-1.9,0-3.4-1.5-3.4-3.5s1.5-3.4,3.5-3.4
	C76.6,198.2,78.1,199.8,78.1,201.7z M78.1,180.2c0,1.9-1.5,3.4-3.5,3.4c-1.9,0-3.4-1.5-3.4-3.5c0-1.9,1.5-3.4,3.5-3.4
	S78.1,178.3,78.1,180.2z M63.9,174.2v55.1c0,3.3-4,4.9-6.3,2.6l-26.4-26.4c-2.3-2.3-2.3-6,0-8.3l26.2-25.7
	C59.9,169.2,63.9,170.9,63.9,174.2z M78.1,158.7c0,1.9-1.5,3.4-3.5,3.4c-1.9,0-3.4-1.5-3.4-3.5c0-1.9,1.5-3.4,3.5-3.4
	C76.6,155.2,78.1,156.8,78.1,158.7z M54.3,163.4L28,189.1c-2.4,2.4-6.4,0.7-6.4-2.7v-55.1c0-3.3,4-4.9,6.3-2.6l26.4,26.4
	C56.6,157.4,56.6,161.1,54.3,163.4z M78.1,137.2c0,1.9-1.5,3.4-3.5,3.4c-1.9,0-3.4-1.5-3.4-3.5c0-1.9,1.5-3.4,3.5-3.4
	S78.1,135.3,78.1,137.2z M78.1,115.6c0,1.9-1.5,3.4-3.5,3.4c-1.9,0-3.4-1.5-3.4-3.5s1.5-3.4,3.5-3.4
	C76.6,112.2,78.1,113.7,78.1,115.6z M78.1,94.1c0,1.9-1.5,3.4-3.5,3.4c-1.9,0-3.4-1.5-3.4-3.5s1.5-3.4,3.5-3.4
	C76.6,90.7,78.1,92.2,78.1,94.1z M63.9,88.1v55.1c0,3.3-4,4.9-6.3,2.6l-26.4-26.4c-2.3-2.3-2.3-6,0-8.3l26.2-25.7
	C59.9,83.1,63.9,84.8,63.9,88.1z M28,104.5c-2.4,2.4-6.4,0.7-6.4-2.7V46.7c0-3.3,4-4.9,6.3-2.6l26.4,26.4c2.3,2.3,2.3,6,0,8.3
	L28,104.5z M78.1,72.6c0,1.9-1.5,3.4-3.5,3.4c-1.9,0-3.4-1.5-3.4-3.5c0-1.9,1.5-3.4,3.5-3.4S78.1,70.7,78.1,72.6z M55.4,60.6
	L22.7,28.4c-1.3-1.3-2.1-3.1-2.1-5V12.5c0-1.7,1.4-3.1,3.1-3.1h38.8c0.8,0,1.4,0.6,1.4,1.4V57C63.9,61.5,58.6,63.7,55.4,60.6z
	 M78.1,51.1c0,1.9-1.5,3.4-3.5,3.4c-1.9,0-3.4-1.5-3.4-3.5c0-1.9,1.5-3.4,3.5-3.4S78.1,49.2,78.1,51.1z M78.1,29.6
	c0,1.9-1.5,3.4-3.5,3.4c-1.9,0-3.4-1.5-3.4-3.5s1.5-3.4,3.5-3.4C76.6,26.1,78.1,27.7,78.1,29.6z M78.1,8.1c0,1.9-1.5,3.4-3.5,3.4
	c-1.9,0-3.4-1.5-3.4-3.5c0-1.9,1.5-3.4,3.5-3.4S78.1,6.2,78.1,8.1z M13.3,8.1c0,1.9-1.5,3.4-3.5,3.4C8,11.5,6.4,10,6.4,8.1
	c0-1.9,1.5-3.4,3.5-3.4S13.3,6.2,13.3,8.1z"/>
</svg>
