<!-- Generator: Adobe Illustrator 18.1.1, SVG Export Plug-In  -->
<svg version="1.1"
	 xmlns="http://www.w3.org/2000/svg" xmlns:xlink="http://www.w3.org/1999/xlink" xmlns:a="http://ns.adobe.com/AdobeSVGViewerExtensions/3.0/"
	 x="0px" y="0px" width="107.4px" height="85.6px" viewBox="0 0 107.4 85.6" enable-background="new 0 0 107.4 85.6"
	 xml:space="preserve">
<defs>
</defs>
<path fill="#C24F60" d="M0,8l0.1,69.8c0,4.4,3.5,7.9,7.9,7.9l91.6-0.1c4.4,0,7.9-3.5,7.9-7.9l-0.1-69.8c0-4.4-3.5-7.9-7.9-7.9
	L7.9,0.1C3.5,0.1,0,3.6,0,8z M25.9,22.4L11.6,36.8c-0.5,0.5-1.3,0.1-1.3-0.5l0-11.2c0-2.1,1.7-3.9,3.9-3.9l11.2,0
	C26.1,21.2,26.4,22,25.9,22.4z M17.4,42.3l14.7-14.8c0.3-0.3,0.8-0.3,1.1,0l14.4,14.7c0.3,0.3,0.3,0.7,0,1L33.2,58.1
	c-0.3,0.3-0.8,0.3-1.1,0L17.4,43.4C17.1,43.1,17.1,42.6,17.4,42.3z M35.6,11.2c0,1.9-1.5,3.5-3.4,3.5c-1.9,0-3.5-1.5-3.5-3.4
	c0-1.9,1.5-3.5,3.4-3.5C34.1,7.8,35.6,9.3,35.6,11.2z M57.1,11.2c0,1.9-1.5,3.5-3.4,3.5c-1.9,0-3.5-1.5-3.5-3.4
	c0-1.9,1.5-3.5,3.4-3.5C55.6,7.7,57.1,9.3,57.1,11.2z M68,22.4L54.2,36.2c-0.3,0.3-0.8,0.3-1.1,0L39.4,22.4
	c-0.5-0.5-0.1-1.3,0.5-1.3l27.6,0C68.1,21.1,68.5,21.9,68,22.4z M59.7,42.3l14.5-14.8c0.3-0.3,0.8-0.3,1.1,0L90,42.3
	c0.3,0.3,0.3,0.8,0,1.1L75.3,58.1c-0.3,0.3-0.8,0.3-1.1,0L59.7,43.3C59.4,43.1,59.4,42.6,59.7,42.3z M78.7,11.2
	c0,1.9-1.5,3.5-3.4,3.5c-1.9,0-3.5-1.5-3.5-3.4c0-1.9,1.5-3.5,3.4-3.5C77.1,7.7,78.6,9.3,78.7,11.2z M93.2,21.1
	c2.1,0,3.9,1.7,3.9,3.9l0,11.2c0,0.7-0.8,1-1.3,0.5L81.5,22.4c-0.5-0.5-0.1-1.3,0.5-1.3L93.2,21.1z M100.2,11.1
	c0,1.9-1.5,3.5-3.4,3.5c-1.9,0-3.5-1.5-3.5-3.4c0-1.9,1.5-3.5,3.4-3.5C98.6,7.7,100.2,9.2,100.2,11.1z M93.3,75.9
	c0-1.9,1.5-3.5,3.4-3.5c1.9,0,3.5,1.5,3.5,3.4c0,1.9-1.5,3.5-3.4,3.5C94.9,79.3,93.3,77.8,93.3,75.9z M81.5,63.2l14.3-14.3
	c0.5-0.5,1.3-0.1,1.3,0.5l0,11.2c0,2.1-1.7,3.9-3.9,3.9l-11.2,0C81.4,64.5,81,63.7,81.5,63.2z M71.8,75.9c0-1.9,1.5-3.5,3.4-3.5
	c1.9,0,3.5,1.5,3.5,3.4c0,1.9-1.5,3.5-3.4,3.5C73.4,79.3,71.8,77.8,71.8,75.9z M50.3,75.9c0-1.9,1.5-3.5,3.4-3.5
	c1.9,0,3.5,1.5,3.5,3.4c0,1.9-1.5,3.5-3.4,3.5C51.8,79.3,50.3,77.8,50.3,75.9z M39.4,63.2l13.8-13.8c0.3-0.3,0.8-0.3,1.1,0L68,63.2
	c0.5,0.5,0.1,1.3-0.5,1.3l-27.6,0C39.3,64.5,38.9,63.7,39.4,63.2z M28.8,75.9c0-1.9,1.5-3.5,3.4-3.5c1.9,0,3.5,1.5,3.5,3.4
	c0,1.9-1.5,3.5-3.4,3.5C30.3,79.3,28.8,77.8,28.8,75.9z M14.2,64.5c-2.1,0-3.9-1.7-3.9-3.9l0-11.2c0-0.7,0.8-1,1.3-0.5L26,63.2
	c0.5,0.5,0.1,1.3-0.5,1.3L14.2,64.5z M7.3,75.9c0-1.9,1.5-3.5,3.4-3.5c1.9,0,3.5,1.5,3.5,3.4c0,1.9-1.5,3.5-3.4,3.5
	C8.8,79.4,7.3,77.8,7.3,75.9z M7.2,11.2c0-1.9,1.5-3.5,3.4-3.5c1.9,0,3.5,1.5,3.5,3.4c0,1.9-1.5,3.5-3.4,3.5
	C8.8,14.7,7.2,13.1,7.2,11.2z"/>
</svg>
