<!-- Generator: Adobe Illustrator 18.1.1, SVG Export Plug-In  -->
<svg version="1.1"
	 xmlns="http://www.w3.org/2000/svg" xmlns:xlink="http://www.w3.org/1999/xlink" xmlns:a="http://ns.adobe.com/AdobeSVGViewerExtensions/3.0/"
	 x="0px" y="0px" width="84.5px" height="280.7px" viewBox="0 0 84.5 280.7" enable-background="new 0 0 84.5 280.7"
	 xml:space="preserve">
<defs>
</defs>
<path fill="#00AEEF" d="M77.3,0h-70C3.3,0,0,3.3,0,7.3v266.2c0,4,3.3,7.3,7.3,7.3h70c4,0,7.3-3.3,7.3-7.3V7.3
	C84.5,3.3,81.3,0,77.3,0z M62.3,50.4H47.4c-0.9,0-1.6-0.7-1.6-1.6V13.2c0-0.9,0.7-1.6,1.6-1.6h14.9c0.9,0,1.6,0.7,1.6,1.6v35.6
	C63.9,49.7,63.2,50.4,62.3,50.4z M38.8,102.2v33.1c0,0.9-0.7,1.6-1.6,1.6H22.2c-0.9,0-1.6-0.7-1.6-1.6v-33.1c0-0.9,0.7-1.6,1.6-1.6
	h14.9C38.1,100.6,38.8,101.4,38.8,102.2z M20.6,92.1V59c0-0.9,0.7-1.6,1.6-1.6h14.9c0.9,0,1.6,0.7,1.6,1.6v33.1
	c0,0.9-0.7,1.6-1.6,1.6H22.2C21.3,93.7,20.6,93,20.6,92.1z M38.8,145.5v33.1c0,0.9-0.7,1.6-1.6,1.6H22.2c-0.9,0-1.6-0.7-1.6-1.6
	v-33.1c0-0.9,0.7-1.6,1.6-1.6h14.9C38.1,143.9,38.8,144.6,38.8,145.5z M38.8,188.8v33.1c0,0.9-0.7,1.6-1.6,1.6H22.2
	c-0.9,0-1.6-0.7-1.6-1.6v-33.1c0-0.9,0.7-1.6,1.6-1.6h14.9C38.1,187.1,38.8,187.9,38.8,188.8z M47.4,187.1h14.9
	c0.9,0,1.6,0.7,1.6,1.6v33.1c0,0.9-0.7,1.6-1.6,1.6H47.4c-0.9,0-1.6-0.7-1.6-1.6v-33.1C45.7,187.9,46.5,187.1,47.4,187.1z
	 M45.7,178.6v-33.1c0-0.9,0.7-1.6,1.6-1.6h14.9c0.9,0,1.6,0.7,1.6,1.6v33.1c0,0.9-0.7,1.6-1.6,1.6H47.4
	C46.5,180.2,45.7,179.5,45.7,178.6z M45.7,135.3v-33.1c0-0.9,0.7-1.6,1.6-1.6h14.9c0.9,0,1.6,0.7,1.6,1.6v33.1
	c0,0.9-0.7,1.6-1.6,1.6H47.4C46.5,136.9,45.7,136.2,45.7,135.3z M45.7,92.1V59c0-0.9,0.7-1.6,1.6-1.6h14.9c0.9,0,1.6,0.7,1.6,1.6
	v33.1c0,0.9-0.7,1.6-1.6,1.6H47.4C46.5,93.7,45.7,93,45.7,92.1z M38.8,13.2v35.6c0,0.9-0.7,1.6-1.6,1.6H22.2c-0.9,0-1.6-0.7-1.6-1.6
	V13.2c0-0.9,0.7-1.6,1.6-1.6h14.9C38.1,11.6,38.8,12.3,38.8,13.2z M9.9,272.6c-1.9,0-3.4-1.5-3.4-3.5s1.5-3.4,3.5-3.4
	s3.4,1.5,3.4,3.5C13.3,271,11.8,272.6,9.9,272.6z M9.9,251.1c-1.9,0-3.4-1.5-3.4-3.5c0-1.9,1.5-3.4,3.5-3.4c1.9,0,3.4,1.5,3.4,3.5
	C13.3,249.5,11.8,251.1,9.9,251.1z M9.9,229.5c-1.9,0-3.4-1.5-3.4-3.5c0-1.9,1.5-3.4,3.5-3.4c1.9,0,3.4,1.5,3.4,3.5
	C13.3,228,11.8,229.5,9.9,229.5z M9.9,208c-1.9,0-3.4-1.5-3.4-3.5c0-1.9,1.5-3.4,3.5-3.4c1.9,0,3.4,1.5,3.4,3.5
	C13.3,206.5,11.8,208,9.9,208z M9.9,186.5c-1.9,0-3.4-1.5-3.4-3.5c0-1.9,1.5-3.4,3.5-3.4s3.4,1.5,3.4,3.5
	C13.3,185,11.8,186.5,9.9,186.5z M9.9,165c-1.9,0-3.4-1.5-3.4-3.5s1.5-3.4,3.5-3.4s3.4,1.5,3.4,3.5C13.3,163.5,11.8,165,9.9,165z
	 M9.9,143.5c-1.9,0-3.4-1.5-3.4-3.5c0-1.9,1.5-3.4,3.5-3.4c1.9,0,3.4,1.5,3.4,3.5C13.3,142,11.8,143.5,9.9,143.5z M9.9,122
	c-1.9,0-3.4-1.5-3.4-3.5c0-1.9,1.5-3.4,3.5-3.4c1.9,0,3.4,1.5,3.4,3.5C13.3,120.4,11.8,122,9.9,122z M9.9,100.5
	c-1.9,0-3.4-1.5-3.4-3.5c0-1.9,1.5-3.4,3.5-3.4s3.4,1.5,3.4,3.5C13.3,98.9,11.8,100.5,9.9,100.5z M9.9,79c-1.9,0-3.4-1.5-3.4-3.5
	s1.5-3.4,3.5-3.4s3.4,1.5,3.4,3.5C13.3,77.4,11.8,79,9.9,79z M9.9,57.4c-1.9,0-3.4-1.5-3.4-3.5c0-1.9,1.5-3.4,3.5-3.4
	c1.9,0,3.4,1.5,3.4,3.5C13.3,55.9,11.8,57.5,9.9,57.4z M9.9,35.9c-1.9,0-3.4-1.5-3.4-3.5C6.4,30.6,8,29,9.9,29
	c1.9,0,3.4,1.5,3.4,3.5C13.3,34.4,11.8,35.9,9.9,35.9z M9.9,14.4c-1.9,0-3.4-1.5-3.4-3.5c0-1.9,1.5-3.4,3.5-3.4s3.4,1.5,3.4,3.5
	C13.3,12.9,11.8,14.4,9.9,14.4z M22.2,230.4h14.9c0.9,0,1.6,0.7,1.6,1.6v36.2c0,0.9-0.7,1.6-1.6,1.6l-14.9,0.1
	c-0.9,0-1.6-0.7-1.6-1.6V232C20.6,231.1,21.3,230.4,22.2,230.4z M45.7,268.1V232c0-0.9,0.7-1.6,1.6-1.6h14.9c0.9,0,1.6,0.7,1.6,1.6
	v36c0,0.9-0.7,1.6-1.6,1.6l-14.9,0.1C46.5,269.8,45.7,269,45.7,268.1z M74.7,272.6c-1.9,0-3.4-1.5-3.4-3.5s1.5-3.4,3.5-3.4
	s3.4,1.5,3.4,3.5C78.1,271,76.6,272.6,74.7,272.6z M74.7,251.1c-1.9,0-3.4-1.5-3.4-3.5c0-1.9,1.5-3.4,3.5-3.4c1.9,0,3.4,1.5,3.4,3.5
	C78.1,249.5,76.6,251.1,74.7,251.1z M74.7,229.5c-1.9,0-3.4-1.5-3.4-3.5c0-1.9,1.5-3.4,3.5-3.4c1.9,0,3.4,1.5,3.4,3.5
	C78.1,228,76.6,229.5,74.7,229.5z M74.7,208c-1.9,0-3.4-1.5-3.4-3.5c0-1.9,1.5-3.4,3.5-3.4c1.9,0,3.4,1.5,3.4,3.5
	C78.1,206.5,76.6,208,74.7,208z M74.7,186.5c-1.9,0-3.4-1.5-3.4-3.5c0-1.9,1.5-3.4,3.5-3.4s3.4,1.5,3.4,3.5
	C78.1,185,76.6,186.5,74.7,186.5z M74.7,165c-1.9,0-3.4-1.5-3.4-3.5s1.5-3.4,3.5-3.4s3.4,1.5,3.4,3.5C78.1,163.5,76.6,165,74.7,165z
	 M74.7,143.5c-1.9,0-3.4-1.5-3.4-3.5c0-1.9,1.5-3.4,3.5-3.4c1.9,0,3.4,1.5,3.4,3.5C78.1,142,76.6,143.5,74.7,143.5z M74.7,122
	c-1.9,0-3.4-1.5-3.4-3.5c0-1.9,1.5-3.4,3.5-3.4c1.9,0,3.4,1.5,3.4,3.5C78.1,120.4,76.6,122,74.7,122z M74.7,100.5
	c-1.9,0-3.4-1.5-3.4-3.5c0-1.9,1.5-3.4,3.5-3.4s3.4,1.5,3.4,3.5C78.1,98.9,76.6,100.5,74.7,100.5z M74.7,79c-1.9,0-3.4-1.5-3.4-3.5
	s1.5-3.4,3.5-3.4s3.4,1.5,3.4,3.5C78.1,77.4,76.6,79,74.7,79z M74.7,57.4c-1.9,0-3.4-1.5-3.4-3.5c0-1.9,1.5-3.4,3.5-3.4
	c1.9,0,3.4,1.5,3.4,3.5C78.1,55.9,76.6,57.5,74.7,57.4z M74.7,35.9c-1.9,0-3.4-1.5-3.4-3.5c0-1.9,1.5-3.4,3.5-3.4
	c1.9,0,3.4,1.5,3.4,3.5C78.1,34.4,76.6,35.9,74.7,35.9z M74.7,14.4c-1.9,0-3.4-1.5-3.4-3.5c0-1.9,1.5-3.4,3.5-3.4s3.4,1.5,3.4,3.5
	C78.1,12.9,76.6,14.4,74.7,14.4z"/>
</svg>
