<!-- Generator: Adobe Illustrator 18.1.1, SVG Export Plug-In  -->
<svg version="1.1"
	 xmlns="http://www.w3.org/2000/svg" xmlns:xlink="http://www.w3.org/1999/xlink" xmlns:a="http://ns.adobe.com/AdobeSVGViewerExtensions/3.0/"
	 x="0px" y="0px" width="93px" height="53.5px" viewBox="0 0 93 53.5" enable-background="new 0 0 93 53.5" xml:space="preserve">
<defs>
</defs>
<g>
	<path fill="#1669B2" d="M91.7,24.6L68.6,2.3C67.1,0.8,65.1,0,63,0H3.4C1.5,0,0,1.5,0,3.4v35.3c0,1.9,1.5,3.4,3.4,3.4H6
		c-0.3,3.8,1.5,7.7,5,9.8c1.6,1,3.5,1.5,5.4,1.5c3.6,0,7.1-1.9,8.9-5c1.2-2,1.7-4.2,1.5-6.3h30.6c-0.3,3.8,1.5,7.7,5,9.8
		c1.6,1,3.5,1.5,5.4,1.5c3.6,0,7.1-1.9,8.9-5c1.2-1.9,1.7-4.1,1.5-6.3h10.5c2.4,0,4.4-2,4.4-4.4v-10C93,26.6,92.5,25.5,91.7,24.6z
		 M19.3,44.9c-0.6,1.1-1.8,1.7-3,1.7c-0.6,0-1.2-0.2-1.8-0.5c-1.6-1-2.1-3.1-1.2-4.7c0.6-1.1,1.8-1.7,3-1.7c0.6,0,1.2,0.2,1.8,0.5
		C19.8,41.1,20.3,43.2,19.3,44.9z M70.7,44.9c-0.6,1.1-1.8,1.7-3,1.7c-0.6,0-1.2-0.2-1.8-0.5c-1.6-1-2.1-3.1-1.2-4.7
		c0.6-1.1,1.8-1.7,3-1.7c0.6,0,1.2,0.2,1.8,0.5C71.1,41.1,71.7,43.2,70.7,44.9z"/>
	<g>
		<path fill="#FFFFFF" d="M81.7,25.6c1.3,1.3,0.4,3.5-1.4,3.5H49.8c-1.9,0-2.8-2.2-1.5-3.6L62.5,11c1.3-1.3,3.3-1.3,4.6,0L81.7,25.6
			z"/>
		<path fill="#FFFFFF" d="M13.6,5.7c1,0,2,0.4,2.8,1.2l17.8,18.1c1.7,1.7,0.5,4.7-2,4.7H6.7c-0.4,0-0.8-0.3-0.8-0.8V7.4
			c0-1,0.8-1.7,1.7-1.7H13.6z"/>
		<path fill="#FFFFFF" d="M56.5,5.7c1.9,0,2.8,2.2,1.5,3.6L43.8,23.7c-1.3,1.3-3.3,1.3-4.6,0L24.7,9.1c-1.3-1.3-0.4-3.5,1.4-3.5
			H56.5z"/>
	</g>
</g>
</svg>
