<!-- Generator: Adobe Illustrator 18.1.1, SVG Export Plug-In  -->
<svg version="1.1"
	 xmlns="http://www.w3.org/2000/svg" xmlns:xlink="http://www.w3.org/1999/xlink" xmlns:a="http://ns.adobe.com/AdobeSVGViewerExtensions/3.0/"
	 x="0px" y="0px" width="304px" height="304.2px" viewBox="0 0 304 304.2" enable-background="new 0 0 304 304.2"
	 xml:space="preserve">
<defs>
</defs>
<path fill="#32A4DB" d="M200.6,8c-15.8-5.3-32.1-8-48.6-8c-32,0-62.7,9.9-88.8,28.7c-26.7,19.2-46,45.9-56,77.3
	c-25,78.5,18.2,163.8,96.3,190.2c15.8,5.3,32.1,8,48.6,8c0,0,0,0,0,0c32,0,62.7-9.9,88.8-28.7c26.7-19.2,46-45.9,56-77.3
	C321.9,119.7,278.7,34.4,200.6,8z M294,128.7c0.3,1.9-1,3.7-2.9,4c-0.2,0-0.4,0-0.6,0c-1.7,0-3.2-1.2-3.5-2.9c-0.3-1.9,1-3.7,2.9-4
	C291.9,125.5,293.7,126.8,294,128.7z M290.1,111.7c0.5,1.8-0.5,3.8-2.4,4.3c-0.3,0.1-0.7,0.1-1,0.1c-1.5,0-2.9-1-3.4-2.5
	c-0.5-1.9,0.5-3.8,2.4-4.4C287.6,108.8,289.5,109.8,290.1,111.7z M279.6,93.5c1.8-0.8,3.8,0,4.6,1.8c0.8,1.8-0.1,3.8-1.8,4.6
	c-0.5,0.2-0.9,0.3-1.4,0.3c-1.4,0-2.7-0.8-3.2-2.1C277,96.3,277.8,94.3,279.6,93.5z M271.6,78.5c1.7-1,3.8-0.4,4.8,1.3
	c1,1.7,0.4,3.8-1.3,4.8c-0.5,0.3-1.2,0.5-1.8,0.5c-1.2,0-2.4-0.6-3-1.8C269.3,81.6,269.9,79.5,271.6,78.5z M261.8,64.6
	c1.6-1.2,3.7-0.9,4.9,0.7c1.2,1.5,0.8,3.7-0.7,4.9c-0.6,0.5-1.4,0.7-2.1,0.7c-1.1,0-2.1-0.5-2.8-1.4C260,67.9,260.3,65.7,261.8,64.6
	z M250.5,51.9c1.4-1.3,3.6-1.3,4.9,0.1c1.3,1.4,1.3,3.6-0.1,4.9c-0.7,0.7-1.5,1-2.4,1c-0.9,0-1.8-0.4-2.5-1.1
	C249.1,55.5,249.1,53.3,250.5,51.9z M237.7,40.7c1.2-1.5,3.4-1.7,4.9-0.5h0c1.5,1.2,1.7,3.4,0.5,4.9c-0.7,0.9-1.7,1.3-2.7,1.3
	c-0.8,0-1.6-0.2-2.2-0.8C236.7,44.4,236.5,42.2,237.7,40.7z M223.7,31.2c1-1.6,3.2-2.1,4.8-1.1c1.6,1,2.1,3.2,1.1,4.8
	c-0.7,1-1.8,1.6-3,1.6c-0.6,0-1.3-0.2-1.9-0.5C223.2,35,222.7,32.8,223.7,31.2z M208.6,23.4c0.8-1.8,2.9-2.5,4.6-1.7
	c1.8,0.8,2.5,2.9,1.7,4.7c-0.6,1.3-1.9,2-3.2,2c-0.5,0-1-0.1-1.5-0.3C208.5,27.2,207.8,25.1,208.6,23.4z M193.6,17.8
	c0.6-1.8,2.6-2.8,4.4-2.2c1.8,0.6,2.8,2.6,2.2,4.4c-0.5,1.5-1.9,2.4-3.3,2.4c-0.4,0-0.7-0.1-1.1-0.2C194,21.6,193,19.6,193.6,17.8z
	 M177.1,13.7c0.4-1.9,2.2-3.1,4.1-2.7c1.9,0.4,3.1,2.2,2.7,4.1c-0.3,1.6-1.8,2.8-3.4,2.8c-0.2,0-0.5,0-0.7-0.1
	C177.9,17.5,176.7,15.6,177.1,13.7z M164,8.5c1.9,0.2,3.4,1.9,3.2,3.8c-0.2,1.8-1.7,3.2-3.5,3.2c-0.1,0-0.2,0-0.3,0
	c-1.9-0.2-3.4-1.9-3.2-3.8C160.4,9.8,162.1,8.3,164,8.5z M146.6,8.1c1.9-0.1,3.6,1.4,3.6,3.4c0.1,1.9-1.4,3.6-3.4,3.6
	c0,0-0.1,0-0.1,0c-1.9,0-3.4-1.5-3.5-3.4C143.2,9.8,144.7,8.2,146.6,8.1z M129.3,9.8c1.9-0.3,3.7,1,4,2.9c0.3,1.9-1,3.7-2.9,4
	c-0.2,0-0.4,0-0.6,0c-1.7,0-3.2-1.2-3.5-2.9C126.1,11.9,127.4,10.1,129.3,9.8z M112.3,13.6c1.9-0.5,3.8,0.5,4.3,2.4
	c0.5,1.9-0.5,3.8-2.4,4.3c-0.3,0.1-0.6,0.1-1,0.1c-1.5,0-2.9-1-3.4-2.5C109.3,16.1,110.4,14.1,112.3,13.6z M95.9,19.4
	c1.8-0.8,3.8,0.1,4.6,1.9c0.8,1.8-0.1,3.8-1.9,4.6c-0.4,0.2-0.9,0.3-1.4,0.3c-1.4,0-2.7-0.8-3.2-2.1C93.2,22.2,94.1,20.2,95.9,19.4z
	 M80.3,27.2c1.7-1,3.8-0.4,4.8,1.3s0.4,3.8-1.3,4.8c-0.5,0.3-1.1,0.5-1.7,0.5c-1.2,0-2.4-0.6-3-1.8C78,30.3,78.6,28.1,80.3,27.2z
	 M65.7,36.7c1.5-1.2,3.7-0.8,4.9,0.7c1.2,1.5,0.8,3.7-0.7,4.9c-0.6,0.5-1.4,0.7-2.1,0.7c-1.1,0-2.1-0.5-2.8-1.4
	C63.8,40.1,64.2,37.9,65.7,36.7z M52.4,47.9c1.4-1.3,3.6-1.3,5,0.1c1.3,1.4,1.3,3.6-0.1,5c-0.7,0.6-1.6,1-2.4,1
	c-0.9,0-1.8-0.4-2.5-1.1C51,51.5,51,49.3,52.4,47.9z M40.6,60.7c1.2-1.5,3.4-1.7,4.9-0.5c1.5,1.2,1.7,3.4,0.5,4.9
	c-0.7,0.9-1.7,1.3-2.7,1.3c-0.8,0-1.6-0.3-2.2-0.8C39.6,64.4,39.4,62.2,40.6,60.7z M30.4,74.8c1-1.6,3.2-2.1,4.8-1.1
	c1.6,1,2.1,3.2,1.1,4.8c-0.7,1.1-1.8,1.6-3,1.6c-0.6,0-1.3-0.2-1.9-0.6C29.8,78.6,29.3,76.4,30.4,74.8z M22,90.1
	c0.8-1.8,2.9-2.5,4.7-1.7c1.7,0.8,2.5,2.9,1.7,4.7c-0.6,1.3-1.9,2-3.2,2c-0.5,0-1-0.1-1.5-0.3C21.9,93.9,21.1,91.8,22,90.1L22,90.1z
	 M15.4,106.2c0.6-1.8,2.6-2.8,4.4-2.2c1.8,0.6,2.8,2.6,2.2,4.4c0,0,0,0,0,0c-0.5,1.5-1.9,2.4-3.3,2.4c-0.4,0-0.8-0.1-1.1-0.2
	C15.8,110,14.8,108,15.4,106.2z M10.9,123c0.4-1.9,2.2-3.1,4.1-2.7c1.9,0.4,3.1,2.2,2.7,4.1c-0.3,1.7-1.8,2.8-3.4,2.8
	c-0.2,0-0.5,0-0.7-0.1C11.7,126.7,10.5,124.9,10.9,123z M12.2,137c1.9,0.2,3.4,1.8,3.2,3.8c-0.1,1.8-1.7,3.2-3.5,3.2
	c-0.1,0-0.2,0-0.3,0c-1.9-0.1-3.4-1.8-3.2-3.8C8.6,138.3,10.3,136.9,12.2,137z M8.1,157.7c-0.1-1.9,1.4-3.6,3.3-3.7
	c1.9-0.1,3.6,1.4,3.6,3.4c0.1,1.9-1.4,3.6-3.3,3.6c0,0-0.1,0-0.2,0C9.7,161,8.2,159.6,8.1,157.7z M9.9,175c-0.3-1.9,1-3.7,2.9-4
	c1.9-0.3,3.7,1,4,2.9c0.3,1.9-1,3.7-2.9,4c-0.2,0-0.4,0-0.6,0C11.6,177.9,10.2,176.7,9.9,175z M17.1,194.5c-1.5,0-2.9-1-3.4-2.5
	c-0.5-1.9,0.5-3.8,2.4-4.3s3.8,0.5,4.3,2.4c0.5,1.9-0.5,3.8-2.4,4.3C17.7,194.5,17.4,194.5,17.1,194.5z M24.2,210.2
	c-0.5,0.2-0.9,0.3-1.4,0.3c-1.4,0-2.7-0.8-3.2-2.1c-0.8-1.8,0.1-3.8,1.8-4.6c1.8-0.8,3.8,0.1,4.6,1.9
	C26.8,207.4,26,209.5,24.2,210.2z M32.1,225.2c-0.5,0.3-1.1,0.5-1.7,0.5c-1.2,0-2.4-0.6-3-1.8c-1-1.7-0.4-3.8,1.3-4.8
	c1.7-1,3.8-0.4,4.8,1.3C34.4,222.1,33.8,224.3,32.1,225.2z M41.8,239.2c-0.6,0.5-1.4,0.7-2.1,0.7c-1.1,0-2.1-0.5-2.8-1.4
	c-1.2-1.5-0.8-3.7,0.7-4.9c1.6-1.2,3.7-0.8,4.9,0.7C43.7,235.8,43.4,238,41.8,239.2z M53.1,251.9c-0.7,0.6-1.5,1-2.4,1
	c-0.9,0-1.9-0.4-2.5-1.1h0c-1.3-1.4-1.3-3.6,0.1-4.9c1.4-1.3,3.6-1.3,5,0.1C54.5,248.3,54.5,250.6,53.1,251.9z M65.8,263.1
	c-0.7,0.9-1.7,1.3-2.7,1.3c-0.8,0-1.6-0.3-2.2-0.8c-1.5-1.2-1.7-3.4-0.5-4.9c1.2-1.5,3.4-1.7,4.9-0.5
	C66.8,259.4,67.1,261.6,65.8,263.1z M79.8,272.7c-0.7,1.1-1.8,1.6-3,1.6c-0.6,0-1.3-0.2-1.9-0.6c-1.6-1-2.1-3.2-1.1-4.8
	c1-1.6,3.2-2.1,4.8-1.1C80.4,268.9,80.9,271.1,79.8,272.7z M94.9,280.6c-0.6,1.3-1.9,2-3.2,2c-0.5,0-1-0.1-1.5-0.3
	c-1.7-0.8-2.5-2.9-1.7-4.7c0.8-1.8,2.9-2.5,4.7-1.7c0,0,0,0,0,0C95,276.7,95.7,278.8,94.9,280.6z M110.8,286.5
	c-0.5,1.5-1.8,2.4-3.3,2.4c-0.4,0-0.7-0.1-1.1-0.2c-1.8-0.6-2.8-2.6-2.2-4.4c0.6-1.8,2.6-2.8,4.4-2.2
	C110.5,282.7,111.4,284.7,110.8,286.5z M127.3,290.5c-0.3,1.6-1.8,2.8-3.4,2.8c-0.2,0-0.5,0-0.7-0.1c-1.9-0.4-3.1-2.2-2.7-4.1
	c0.4-1.9,2.2-3.1,4.1-2.7C126.5,286.8,127.7,288.6,127.3,290.5z M140.7,295.7c-0.1,0-0.2,0-0.3,0c-1.9-0.2-3.4-1.8-3.2-3.8
	c0.2-1.9,1.9-3.4,3.8-3.2c1.9,0.2,3.4,1.9,3.2,3.8C144.1,294.3,142.5,295.7,140.7,295.7z M157.9,296c0,0-0.1,0-0.1,0
	c-1.9,0-3.4-1.5-3.5-3.3c-0.1-1.9,1.4-3.6,3.3-3.7c0,0,0,0,0,0c1.9-0.1,3.6,1.4,3.6,3.4C161.3,294.3,159.8,296,157.9,296z
	 M175.2,294.3c-0.2,0-0.4,0-0.6,0c-1.7,0-3.2-1.2-3.5-2.9c-0.3-1.9,1-3.7,2.9-4c1.9-0.3,3.7,1,4,2.9
	C178.4,292.2,177.1,294,175.2,294.3z M192.2,290.4L192.2,290.4c-0.3,0.1-0.7,0.1-1,0.1c-1.5,0-2.9-1-3.4-2.5
	c-0.5-1.9,0.5-3.8,2.4-4.3c1.9-0.5,3.8,0.5,4.3,2.4C195.1,287.9,194,289.9,192.2,290.4z M208.6,284.5L208.6,284.5
	c-0.4,0.2-0.9,0.3-1.4,0.3c-1.4,0-2.6-0.8-3.2-2.1c-0.8-1.8,0.1-3.8,1.8-4.6c1.8-0.8,3.8,0.1,4.6,1.8
	C211.2,281.7,210.4,283.8,208.6,284.5z M224.1,276.7c-0.5,0.3-1.2,0.5-1.8,0.5c-1.2,0-2.4-0.6-3-1.8c-1-1.7-0.4-3.8,1.3-4.8
	c0,0,0,0,0,0c1.7-1,3.8-0.4,4.8,1.3C226.4,273.6,225.8,275.8,224.1,276.7z M238.7,267.1c-0.6,0.5-1.4,0.7-2.1,0.7
	c-1.1,0-2.1-0.5-2.8-1.4c-1.2-1.5-0.9-3.7,0.7-4.9c1.5-1.2,3.7-0.8,4.9,0.7C240.5,263.8,240.2,266,238.7,267.1z M251.9,255.9
	c-0.7,0.7-1.5,1-2.4,1c-0.9,0-1.8-0.4-2.5-1.1c-1.3-1.4-1.3-3.6,0.1-5c1.4-1.3,3.6-1.3,5,0.1C253.4,252.3,253.3,254.5,251.9,255.9z
	 M263.7,243.1c-0.7,0.8-1.7,1.3-2.7,1.3c-0.8,0-1.6-0.2-2.2-0.8c-1.5-1.2-1.7-3.4-0.5-4.9c1.2-1.5,3.4-1.7,4.9-0.5
	C264.7,239.4,264.9,241.6,263.7,243.1z M273.9,228.9c-0.7,1.1-1.8,1.6-3,1.6c-0.6,0-1.3-0.2-1.9-0.5c-1.6-1-2.1-3.2-1.1-4.8
	c1-1.6,3.2-2.1,4.8-1.1C274.4,225.1,274.9,227.3,273.9,228.9z M227.4,256.8c-21.9,15.7-48.6,24.4-75.4,24.4c0,0,0,0,0,0
	c-14,0-27.9-2.3-41.3-6.8C44.4,252,7.8,179.6,29,112.9c8.5-26.6,24.9-49.3,47.5-65.6C98.4,31.7,125.2,23,152,23
	c14,0,27.9,2.3,41.3,6.8c66.3,22.4,102.9,94.8,81.7,161.4C266.5,217.9,250,240.5,227.4,256.8z M282.2,213.6c-0.6,1.3-1.9,2-3.2,2
	c-0.5,0-1-0.1-1.5-0.3c-1.8-0.8-2.5-2.9-1.7-4.7c0.8-1.8,2.9-2.5,4.7-1.7C282.3,209.8,283,211.9,282.2,213.6z M288.7,197.5
	c-0.5,1.5-1.9,2.4-3.3,2.4c-0.4,0-0.7-0.1-1.1-0.2c-1.8-0.6-2.8-2.6-2.2-4.4c0.6-1.8,2.6-2.8,4.4-2.2
	C288.3,193.7,289.3,195.7,288.7,197.5z M293.2,180.7c-0.3,1.7-1.8,2.8-3.4,2.8c-0.2,0-0.5,0-0.7-0.1c-1.9-0.4-3.1-2.2-2.7-4.1
	c0,0,0,0,0,0c0.4-1.9,2.2-3.1,4.1-2.7C292.3,176.9,293.5,178.8,293.2,180.7z M292.1,166.6c-0.1,0-0.2,0-0.3,0
	c-1.9-0.1-3.4-1.8-3.2-3.8c0.2-1.9,1.8-3.4,3.8-3.2c1.9,0.1,3.4,1.8,3.2,3.8C295.4,165.2,293.9,166.6,292.1,166.6z M292.5,149.6
	c-0.1,0-0.1,0-0.2,0c-1.9,0-3.4-1.5-3.5-3.4c-0.1-1.9,1.4-3.6,3.3-3.6s3.6,1.4,3.7,3.3C295.9,147.9,294.4,149.6,292.5,149.6z"/>
</svg>
