<!-- Generator: Adobe Illustrator 18.1.1, SVG Export Plug-In  -->
<svg version="1.1"
	 xmlns="http://www.w3.org/2000/svg" xmlns:xlink="http://www.w3.org/1999/xlink" xmlns:a="http://ns.adobe.com/AdobeSVGViewerExtensions/3.0/"
	 x="0px" y="0px" width="78.3px" height="129.1px" viewBox="0 0 78.3 129.1" enable-background="new 0 0 78.3 129.1"
	 xml:space="preserve">
<defs>
</defs>
<path fill="#D0DA20" d="M17.5,0.8C12.8-1.4,7.4,1.1,5.9,6C1.4,20.8-5.2,51.9,6.9,79c12.2,27.1,39.8,42.8,53.9,49.3
	c4.6,2.1,10.1-0.3,11.5-5.2c4.5-14.8,11.2-45.9-1-73.1C59.2,23,31.5,7.3,17.5,0.8z M43.3,95.9l-0.2,0.6c-0.4,1.3-1.8,2-3.1,1.5
	l-15.3-5.2c-1.3-0.4-2-1.8-1.5-3.1l0.2-0.6c0.4-1.3,1.8-2,3.1-1.5l15.3,5.2C43,93.2,43.7,94.6,43.3,95.9z M33.3,73.6l-0.2,0.6
	c-0.4,1.3-1.8,2-3.1,1.5l-18.5-6.3c-1.3-0.4-2-1.8-1.5-3.1l0.2-0.6c0.4-1.3,1.8-2,3.1-1.5l18.5,6.3C33,70.9,33.7,72.3,33.3,73.6z
	 M23.1,50.9l-0.2,0.6c-0.4,1.3-1.8,2-3.1,1.5L7.6,48.9c-1.3-0.4-2-1.8-1.5-3.1l0.2-0.6c0.4-1.3,1.8-2,3.1-1.5l12.2,4.1
	C22.9,48.3,23.5,49.7,23.1,50.9z M14.6,10.3l0.6-0.3c1.2-0.6,2.7,0,3.2,1.2l41.1,91.3c0.6,1.2,0,2.7-1.2,3.2l-0.6,0.3
	c-1.2,0.6-2.7,0-3.2-1.2L13.4,13.6C12.8,12.3,13.4,10.9,14.6,10.3z M64.2,120.4c-1.7,0.8-3.8,0-4.6-1.7c-0.8-1.7,0-3.8,1.7-4.6
	c1.7-0.8,3.8,0,4.6,1.7C66.7,117.6,65.9,119.6,64.2,120.4z M38.4,40.3l5-11.9c0.5-1.2,2-1.8,3.2-1.3l0.6,0.2c1.2,0.5,1.8,2,1.3,3.2
	l-5,11.9c-0.5,1.2-2,1.8-3.2,1.3l-0.6-0.2C38.5,43,37.9,41.5,38.4,40.3z M70,72.5l-6.3,14.9c-0.5,1.2-2,1.8-3.2,1.3l-0.6-0.2
	c-1.2-0.5-1.8-2-1.3-3.2l6.3-14.9c0.5-1.2,2-1.8,3.2-1.3l0.6,0.2C69.9,69.8,70.5,71.3,70,72.5z M53.6,65.1c-0.5,1.2-2,1.8-3.2,1.3
	l-0.6-0.2c-1.2-0.5-1.8-2-1.3-3.2l7.6-18c0.5-1.2,2-1.8,3.2-1.3l0.6,0.2c1.2,0.5,1.8,2,1.3,3.2L53.6,65.1z"/>
</svg>
