<!-- Generator: Adobe Illustrator 18.1.1, SVG Export Plug-In  -->
<svg version="1.1"
	 xmlns="http://www.w3.org/2000/svg" xmlns:xlink="http://www.w3.org/1999/xlink" xmlns:a="http://ns.adobe.com/AdobeSVGViewerExtensions/3.0/"
	 x="0px" y="0px" width="105.5px" height="102.1px" viewBox="0 0 105.5 102.1" enable-background="new 0 0 105.5 102.1"
	 xml:space="preserve">
<defs>
</defs>
<path fill="#D0DA20" d="M105.5,9.1c0.5-5.1-3.7-9.4-8.8-9.1c-15.5,0.8-47,5-68.4,25.6C6.9,46.2,1.4,77.6,0,93
	c-0.5,5.1,3.7,9.4,8.8,9.1c15.5-0.8,47-5,68.4-25.6C98.7,55.9,104.1,24.6,105.5,9.1z M24.7,65.5l-0.6,0c-1.3,0-2.5-1-2.5-2.4
	l-0.3-16.2c0-1.3,1-2.5,2.4-2.5l0.6,0c1.3,0,2.5,1,2.5,2.4L27.1,63C27.1,64.4,26,65.5,24.7,65.5z M42.3,48.6l-0.6,0
	c-1.3,0-2.5-1-2.5-2.4l-0.3-19.5c0-1.3,1-2.5,2.4-2.5l0.6,0c1.3,0,2.5,1,2.5,2.4l0.3,19.5C44.7,47.4,43.7,48.5,42.3,48.6z
	 M60.2,31.4l-0.6,0c-1.3,0-2.5-1-2.5-2.4l-0.2-12.9c0-1.3,1-2.5,2.4-2.5l0.6,0c1.3,0,2.5,1,2.5,2.4l0.2,12.9
	C62.6,30.2,61.6,31.4,60.2,31.4z M95.6,9.7l0.4,0.5c0.9,1,0.9,2.5-0.1,3.4L23.8,83.1c-1,0.9-2.5,0.9-3.4-0.1L20,82.5
	c-0.9-1-0.9-2.5,0.1-3.4L92.1,9.6C93.1,8.7,94.6,8.7,95.6,9.7z M8.7,93.4c-1.3-1.4-1.3-3.6,0.1-4.9c1.4-1.3,3.6-1.3,4.9,0.1
	s1.3,3.6-0.1,4.9C12.2,94.9,10,94.8,8.7,93.4z M75.4,42.2l12.9,0.7c1.3,0.1,2.4,1.2,2.3,2.6l0,0.6c-0.1,1.3-1.2,2.4-2.6,2.3
	l-12.9-0.7c-1.3-0.1-2.4-1.2-2.3-2.6l0-0.6C72.9,43.1,74,42.1,75.4,42.2z M55.7,82.8l-16.2-0.9c-1.3-0.1-2.4-1.2-2.3-2.6l0-0.6
	c0.1-1.3,1.2-2.4,2.6-2.3L56,77.3c1.3,0.1,2.4,1.2,2.3,2.6l0,0.6C58.2,81.8,57.1,82.8,55.7,82.8z M57.2,64.9
	c-1.3-0.1-2.4-1.2-2.3-2.6l0-0.6c0.1-1.3,1.2-2.4,2.6-2.3L77,60.5c1.3,0.1,2.4,1.2,2.3,2.6l0,0.6C79.2,65,78,66.1,76.7,66L57.2,64.9
	z"/>
</svg>
