<!-- Generator: Adobe Illustrator 18.1.1, SVG Export Plug-In  -->
<svg version="1.1"
	 xmlns="http://www.w3.org/2000/svg" xmlns:xlink="http://www.w3.org/1999/xlink" xmlns:a="http://ns.adobe.com/AdobeSVGViewerExtensions/3.0/"
	 x="0px" y="0px" width="132.3px" height="75.8px" viewBox="0 0 132.3 75.8" enable-background="new 0 0 132.3 75.8"
	 xml:space="preserve">
<defs>
</defs>
<path fill="#D0DA20" d="M1,55.3c-2.4,4.5-0.4,10.1,4.4,11.9c14.5,5.5,45.1,14.2,73,3.9c27.9-10.3,45.4-36.9,52.8-50.5
	c2.4-4.5,0.4-10.1-4.4-11.9c-14.5-5.5-45.1-14.2-73-3.9C26,15.1,8.5,41.7,1,55.3z M97.7,35.9l0.6,0.2c1.2,0.5,1.8,1.9,1.3,3.2
	l-6.2,15c-0.5,1.2-1.9,1.8-3.2,1.3l-0.6-0.2c-1.2-0.5-1.8-1.9-1.3-3.2l6.2-15C95,35.9,96.4,35.3,97.7,35.9z M74.7,44.4l0.6,0.2
	c1.2,0.5,1.8,1.9,1.3,3.2l-7.5,18c-0.5,1.2-1.9,1.8-3.2,1.3l-0.6-0.2c-1.2-0.5-1.8-1.9-1.3-3.2l7.5-18C72,44.4,73.5,43.8,74.7,44.4z
	 M51.4,53l0.6,0.2c1.2,0.5,1.8,1.9,1.3,3.2l-4.9,11.9c-0.5,1.2-1.9,1.8-3.2,1.3l-0.6-0.2c-1.2-0.5-1.8-1.9-1.3-3.2l4.9-11.9
	C48.8,53,50.2,52.5,51.4,53z M10.4,58.8l-0.2-0.6c-0.5-1.3,0.2-2.7,1.4-3.1l93.8-34.9c1.3-0.5,2.7,0.2,3.1,1.4l0.2,0.6
	c0.5,1.3-0.2,2.7-1.4,3.1L13.5,60.2C12.2,60.7,10.8,60,10.4,58.8z M123.5,16.7c0.7,1.8-0.3,3.8-2,4.4s-3.8-0.3-4.4-2
	c-0.7-1.8,0.3-3.8,2-4.4C120.9,14,122.8,14.9,123.5,16.7z M41.9,37l-11.5-5.8c-1.2-0.6-1.7-2.1-1.1-3.3l0.3-0.6
	c0.6-1.2,2.1-1.7,3.3-1.1l11.5,5.8c1.2,0.6,1.7,2.1,1.1,3.3l-0.3,0.6C44.5,37.1,43.1,37.6,41.9,37z M76.1,7.7L90.6,15
	c1.2,0.6,1.7,2.1,1.1,3.3l-0.3,0.6c-0.6,1.2-2.1,1.7-3.3,1.1l-14.5-7.3c-1.2-0.6-1.7-2.1-1.1-3.3l0.3-0.6
	C73.4,7.5,74.9,7.1,76.1,7.7z M67.6,23.5c1.2,0.6,1.7,2.1,1.1,3.3l-0.3,0.6c-0.6,1.2-2.1,1.7-3.3,1.1l-17.4-8.8
	c-1.2-0.6-1.7-2.1-1.1-3.3l0.3-0.6c0.6-1.2,2.1-1.7,3.3-1.1L67.6,23.5z"/>
</svg>
