<!-- Generator: Adobe Illustrator 18.1.1, SVG Export Plug-In  -->
<svg version="1.1"
	 xmlns="http://www.w3.org/2000/svg" xmlns:xlink="http://www.w3.org/1999/xlink" xmlns:a="http://ns.adobe.com/AdobeSVGViewerExtensions/3.0/"
	 x="0px" y="0px" width="81.1px" height="125.7px" viewBox="0 0 81.1 125.7" enable-background="new 0 0 81.1 125.7"
	 xml:space="preserve">
<defs>
</defs>
<path fill="#86C638" d="M77.4,6.5c-1.2-5-6.4-7.7-11.2-5.9c-14.4,5.6-43,19.5-56.9,45.9c-13.9,26.3-9.2,57.8-5.6,72.8
	c1.2,5,6.4,7.7,11.2,5.9c14.4-5.6,43-19.5,56.9-45.9C85.7,53,81,21.5,77.4,6.5z M18.5,85.4l-0.6,0.2c-1.3,0.4-2.7-0.2-3.1-1.5
	L9.4,68.9c-0.4-1.3,0.2-2.7,1.5-3.1l0.6-0.2c1.3-0.4,2.7,0.2,3.1,1.5L20,82.3C20.4,83.6,19.7,85,18.5,85.4z M29.9,63.8L29.3,64
	c-1.3,0.4-2.7-0.2-3.1-1.5l-6.5-18.4c-0.4-1.3,0.2-2.7,1.5-3.1l0.6-0.2c1.3-0.4,2.7,0.2,3.1,1.5l6.5,18.4
	C31.8,62,31.1,63.4,29.9,63.8z M41.4,41.8l-0.6,0.2c-1.3,0.4-2.7-0.2-3.1-1.5l-4.3-12.2c-0.4-1.3,0.2-2.7,1.5-3.1l0.6-0.2
	c1.3-0.4,2.7,0.2,3.1,1.5l4.3,12.2C43.4,40,42.7,41.4,41.4,41.8z M68.1,10.1l0.6,0.3c1.2,0.6,1.7,2.1,1,3.3l-46.5,88.7
	c-0.6,1.2-2.1,1.7-3.3,1l-0.6-0.3c-1.2-0.6-1.7-2.1-1-3.3l46.5-88.7C65.5,9.9,66.9,9.5,68.1,10.1z M12.1,117c-1.7-0.9-2.3-3-1.4-4.7
	c0.9-1.7,3-2.3,4.7-1.4c1.7,0.9,2.3,3,1.4,4.7C15.8,117.2,13.8,117.9,12.1,117z M59.2,47.3L71.7,44c1.3-0.4,2.6,0.4,3,1.7l0.2,0.6
	c0.4,1.3-0.4,2.6-1.7,3l-12.4,3.4c-1.3,0.4-2.6-0.4-3-1.7l-0.2-0.6C57.2,49,57.9,47.7,59.2,47.3z M53.4,92l-15.6,4.2
	c-1.3,0.4-2.6-0.4-3-1.7l-0.2-0.6c-0.4-1.3,0.4-2.6,1.7-3l15.6-4.2c1.3-0.4,2.6,0.4,3,1.7l0.2,0.6C55.4,90.3,54.7,91.7,53.4,92z
	 M49.1,74.6c-1.3,0.4-2.6-0.4-3-1.7L46,72.3c-0.4-1.3,0.4-2.6,1.7-3l18.9-5.1c1.3-0.4,2.6,0.4,3,1.7l0.2,0.6c0.4,1.3-0.4,2.6-1.7,3
	L49.1,74.6z"/>
</svg>
