<!-- Generator: Adobe Illustrator 18.1.1, SVG Export Plug-In  -->
<svg version="1.1"
	 xmlns="http://www.w3.org/2000/svg" xmlns:xlink="http://www.w3.org/1999/xlink" xmlns:a="http://ns.adobe.com/AdobeSVGViewerExtensions/3.0/"
	 x="0px" y="0px" width="124px" height="82.7px" viewBox="0 0 124 82.7" enable-background="new 0 0 124 82.7" xml:space="preserve"
	>
<defs>
</defs>
<path fill="#528718" d="M123.5,13.9c1.7-4.8-1.2-10-6.2-11C102.2-0.2,70.6-4,44.7,10.6C18.8,25.2,5.7,54.2,0.5,68.8
	c-1.7,4.8,1.2,10,6.2,11c15.2,3.1,46.7,6.9,72.6-7.7C105.3,57.5,118.4,28.5,123.5,13.9z M31.2,48.3l-0.6-0.1
	c-1.3-0.3-2.1-1.6-1.8-2.9l3.8-15.8c0.3-1.3,1.6-2.1,2.9-1.8l0.6,0.1c1.3,0.3,2.1,1.6,1.8,2.9l-3.8,15.8
	C33.8,47.8,32.5,48.7,31.2,48.3z M52.5,36.3l-0.6-0.1c-1.3-0.3-2.1-1.6-1.8-2.9l4.5-19c0.3-1.3,1.6-2.1,2.9-1.8l0.6,0.1
	c1.3,0.3,2.1,1.6,1.8,2.9l-4.5,19C55.1,35.8,53.8,36.6,52.5,36.3z M74.1,24.1L73.5,24c-1.3-0.3-2.1-1.6-1.8-2.9l3-12.5
	c0.3-1.3,1.6-2.1,2.9-1.8l0.6,0.1c1.3,0.3,2.1,1.6,1.8,2.9l-3,12.5C76.8,23.6,75.4,24.4,74.1,24.1z M113.8,11.9l0.3,0.6
	c0.7,1.2,0.3,2.7-0.9,3.3L26,65.1c-1.2,0.7-2.7,0.3-3.3-0.9l-0.3-0.6c-0.7-1.2-0.3-2.7,0.9-3.3L110.4,11
	C111.6,10.3,113.1,10.7,113.8,11.9z M8.7,71.4c-0.9-1.7-0.3-3.8,1.3-4.7s3.8-0.3,4.7,1.3c0.9,1.7,0.3,3.8-1.3,4.7S9.7,73.1,8.7,71.4
	z M86.1,38.4l12.3,3.9c1.3,0.4,2,1.8,1.6,3.1L99.8,46c-0.4,1.3-1.8,2-3.1,1.6l-12.3-3.9c-1.3-0.4-2-1.8-1.6-3.1l0.2-0.6
	C83.5,38.7,84.8,38,86.1,38.4z M57,72.8l-15.4-4.9c-1.3-0.4-2-1.8-1.6-3.1l0.2-0.6c0.4-1.3,1.8-2,3.1-1.6l15.4,4.9
	c1.3,0.4,2,1.8,1.6,3.1L60,71.2C59.6,72.5,58.2,73.2,57,72.8z M62.8,55.8c-1.3-0.4-2-1.8-1.6-3.1l0.2-0.6c0.4-1.3,1.8-2,3.1-1.6
	l18.6,5.9c1.3,0.4,2,1.8,1.6,3.1l-0.2,0.6c-0.4,1.3-1.8,2-3.1,1.6L62.8,55.8z"/>
</svg>
