<!-- Generator: Adobe Illustrator 18.1.1, SVG Export Plug-In  -->
<svg version="1.1"
	 xmlns="http://www.w3.org/2000/svg" xmlns:xlink="http://www.w3.org/1999/xlink" xmlns:a="http://ns.adobe.com/AdobeSVGViewerExtensions/3.0/"
	 x="0px" y="0px" width="80.6px" height="126.4px" viewBox="0 0 80.6 126.4" enable-background="new 0 0 80.6 126.4"
	 xml:space="preserve">
<defs>
</defs>
<path fill="#86C638" d="M76.5,6.4c-1.2-5-6.5-7.7-11.3-5.8c-14.4,5.8-42.8,20-56.4,46.5C-4.7,73.5,0.4,104.9,4.1,120
	c1.2,5,6.5,7.7,11.3,5.8c14.4-5.8,42.8-20,56.4-46.5C85.3,52.8,80.2,21.4,76.5,6.4z M18.5,86l-0.6,0.2c-1.3,0.5-2.7-0.2-3.1-1.5
	L9.2,69.5c-0.5-1.3,0.2-2.7,1.5-3.1l0.6-0.2c1.3-0.5,2.7,0.2,3.1,1.5l5.5,15.2C20.4,84.1,19.7,85.5,18.5,86z M29.6,64.2L29,64.4
	c-1.3,0.5-2.7-0.2-3.1-1.5l-6.7-18.4c-0.5-1.3,0.2-2.7,1.5-3.1l0.6-0.2c1.3-0.5,2.7,0.2,3.1,1.5l6.7,18.4
	C31.5,62.4,30.9,63.8,29.6,64.2z M40.9,42.1l-0.6,0.2c-1.3,0.5-2.7-0.2-3.1-1.5l-4.4-12.1c-0.5-1.3,0.2-2.7,1.5-3.1l0.6-0.2
	c1.3-0.5,2.7,0.2,3.1,1.5L42.4,39C42.9,40.3,42.2,41.7,40.9,42.1z M67.3,10.1l0.6,0.3c1.2,0.6,1.7,2.1,1.1,3.3l-45.5,89.2
	c-0.6,1.2-2.1,1.7-3.3,1.1l-0.6-0.3c-1.2-0.6-1.7-2.1-1.1-3.3L64,11.2C64.6,10,66.1,9.5,67.3,10.1z M12.4,117.6
	c-1.7-0.9-2.4-2.9-1.5-4.6s2.9-2.4,4.6-1.5c1.7,0.9,2.4,2.9,1.5,4.6S14.1,118.5,12.4,117.6z M58.8,47.4l12.4-3.5
	c1.3-0.4,2.6,0.4,3,1.7l0.2,0.6c0.4,1.3-0.4,2.6-1.7,3l-12.4,3.5c-1.3,0.4-2.6-0.4-3-1.7l-0.2-0.6C56.7,49.1,57.5,47.8,58.8,47.4z
	 M53.4,92.2l-15.6,4.4c-1.3,0.4-2.6-0.4-3-1.7l-0.2-0.6c-0.4-1.3,0.4-2.6,1.7-3l15.6-4.4c1.3-0.4,2.6,0.4,3,1.7l0.2,0.6
	C55.4,90.5,54.7,91.8,53.4,92.2z M49,74.8c-1.3,0.4-2.6-0.4-3-1.7l-0.2-0.6c-0.4-1.3,0.4-2.6,1.7-3l18.8-5.3c1.3-0.4,2.6,0.4,3,1.7
	l0.2,0.6c0.4,1.3-0.4,2.6-1.7,3L49,74.8z"/>
</svg>
