<!-- Generator: Adobe Illustrator 18.1.1, SVG Export Plug-In  -->
<svg version="1.1"
	 xmlns="http://www.w3.org/2000/svg" xmlns:xlink="http://www.w3.org/1999/xlink" xmlns:a="http://ns.adobe.com/AdobeSVGViewerExtensions/3.0/"
	 x="0px" y="0px" width="37.809px" height="35.566px" viewBox="0 0 37.809 35.566"
	 style="enable-background:new 0 0 37.809 35.566;" xml:space="preserve">
<defs>
</defs>
<path style="fill:#726658;" d="M36.485,20.328L28.013,5.226c-3.854-6.869-13.699-6.991-17.721-0.219L1.45,19.895
	c-4.022,6.772,0.795,15.359,8.671,15.456l17.315,0.214C35.311,35.662,40.339,27.197,36.485,20.328z M20.829,13.45
	c-1.692,0.949-3.825,0.357-4.774-1.335c-0.945-1.684-0.343-3.821,1.349-4.77c1.683-0.944,3.811-0.339,4.756,1.345
	C23.108,10.382,22.512,12.506,20.829,13.45z M8.635,28.022c-1.659-0.985-2.199-3.131-1.213-4.791
	c0.99-1.668,3.128-2.213,4.787-1.227c1.668,0.991,2.222,3.134,1.231,4.802C12.455,28.466,10.304,29.013,8.635,28.022z
	 M29.146,28.277c-1.692,0.949-3.825,0.357-4.774-1.335c-0.945-1.684-0.343-3.821,1.349-4.77c1.683-0.944,3.811-0.339,4.756,1.345
	C31.426,25.209,30.829,27.333,29.146,28.277z"/>
</svg>
