<!-- Generator: Adobe Illustrator 18.1.1, SVG Export Plug-In  -->
<svg version="1.1"
	 xmlns="http://www.w3.org/2000/svg" xmlns:xlink="http://www.w3.org/1999/xlink" xmlns:a="http://ns.adobe.com/AdobeSVGViewerExtensions/3.0/"
	 x="0px" y="0px" width="37.8px" height="35.5px" viewBox="0 0 37.8 35.5" enable-background="new 0 0 37.8 35.5"
	 xml:space="preserve">
<defs>
</defs>
<path fill="#726658" d="M36.4,20.1l-8.7-15C23.8-1.7,14-1.7,10,5.1l-8.7,15c-3.9,6.8,1,15.3,8.9,15.3h17.3
	C35.4,35.5,40.4,26.9,36.4,20.1z M10.4,28.7c-1.9,0-3.5-1.6-3.5-3.5c0-1.9,1.6-3.5,3.5-3.5c1.9,0,3.5,1.6,3.5,3.5
	C13.9,27.1,12.3,28.7,10.4,28.7z M21.9,12.2c-1,1.7-3.1,2.2-4.8,1.3c-1.7-1-2.2-3.1-1.3-4.8c1-1.7,3.1-2.3,4.8-1.3
	C22.3,8.4,22.9,10.5,21.9,12.2z M27.4,28.7c-1.9,0-3.5-1.6-3.5-3.5c0-1.9,1.6-3.5,3.5-3.5c1.9,0,3.5,1.6,3.5,3.5
	C30.9,27.1,29.3,28.7,27.4,28.7z"/>
</svg>
