<!-- Generator: Adobe Illustrator 18.1.1, SVG Export Plug-In  -->
<svg version="1.1"
	 xmlns="http://www.w3.org/2000/svg" xmlns:xlink="http://www.w3.org/1999/xlink" xmlns:a="http://ns.adobe.com/AdobeSVGViewerExtensions/3.0/"
	 x="0px" y="0px" width="23.7px" height="54.6px" viewBox="0 0 23.7 54.6" enable-background="new 0 0 23.7 54.6"
	 xml:space="preserve">
<defs>
</defs>
<path fill="#FFDD00" d="M23.7,43.2L21,9.7C20.5,3.9,15.4-0.4,9.7,0C3.9,0.5-0.4,5.6,0,11.3l2.7,33.6c0.5,5.8,5.5,10.1,11.3,9.6
	C19.8,54.1,24.1,49,23.7,43.2z M7,10.5c-0.2-1.9,1.3-3.6,3.2-3.8C12.1,6.6,13.8,8,14,9.9c0.2,1.9-1.3,3.6-3.2,3.8
	C8.8,13.8,7.1,12.4,7,10.5z M8.4,27.4c-0.2-1.9,1.3-3.6,3.2-3.8c1.9-0.2,3.6,1.3,3.8,3.2c0.2,1.9-1.3,3.6-3.2,3.8
	C10.2,30.8,8.5,29.3,8.4,27.4z M9.7,44.4c-0.2-1.9,1.3-3.6,3.2-3.8c1.9-0.2,3.6,1.3,3.8,3.2c0.2,1.9-1.3,3.6-3.2,3.8
	C11.6,47.7,9.9,46.3,9.7,44.4z"/>
</svg>
