<!-- Generator: Adobe Illustrator 18.1.1, SVG Export Plug-In  -->
<svg version="1.1"
	 xmlns="http://www.w3.org/2000/svg" xmlns:xlink="http://www.w3.org/1999/xlink" xmlns:a="http://ns.adobe.com/AdobeSVGViewerExtensions/3.0/"
	 x="0px" y="0px" width="41.7px" height="38.7px" viewBox="0 0 41.7 38.7" enable-background="new 0 0 41.7 38.7"
	 xml:space="preserve">
<defs>
</defs>
<path fill="#FFEC00" d="M33.8,0L7.2,1.3C1.4,1.6-1.9,8,1.2,12.9l14.4,22.4c3.1,4.9,10.4,4.5,13.1-0.6L40.8,11
	C43.5,5.8,39.6-0.3,33.8,0z M24.8,27.3c-0.9,1.7-3,2.4-4.7,1.5c-1.7-0.9-2.4-3-1.5-4.7c0.9-1.7,3-2.4,4.7-1.5
	C25,23.4,25.7,25.5,24.8,27.3z M15.5,9.5c1,1.6,0.6,3.8-1.1,4.8c-1.6,1-3.8,0.6-4.8-1.1c-1-1.6-0.6-3.8,1-4.8
	C12.2,7.4,14.4,7.9,15.5,9.5z M32.6,12.2c-0.9,1.7-3,2.4-4.7,1.5c-1.7-0.9-2.4-3-1.5-4.7c0.9-1.7,3-2.4,4.7-1.5
	C32.8,8.3,33.5,10.4,32.6,12.2z"/>
</svg>
