<!-- Generator: Adobe Illustrator 18.1.1, SVG Export Plug-In  -->
<svg version="1.1"
	 xmlns="http://www.w3.org/2000/svg" xmlns:xlink="http://www.w3.org/1999/xlink" xmlns:a="http://ns.adobe.com/AdobeSVGViewerExtensions/3.0/"
	 x="0px" y="0px" width="31.4px" height="34px" viewBox="0 0 31.4 34" enable-background="new 0 0 31.4 34" xml:space="preserve">
<defs>
</defs>
<path fill="#FFEC00" d="M12.7,3.9l-10.4,13c-3.6,4.5-2.9,11.1,1.6,14.8l0,0c4.5,3.6,11.1,2.9,14.8-1.6l10.4-13
	c3.6-4.5,2.9-11.1-1.6-14.8l0,0C23-1.3,16.4-0.6,12.7,3.9z M13.3,25.5c-1.2,2.2-4.2,2.5-5.8,0.6c-0.9-1.1-1.1-2.6-0.4-3.9
	c1.2-2.2,4.2-2.6,5.8-0.6C13.8,22.7,14,24.3,13.3,25.5z M23.9,12.3c-1.2,2.2-4.2,2.5-5.8,0.6c-0.9-1.1-1.1-2.6-0.4-3.9
	c1.2-2.2,4.2-2.6,5.8-0.6C24.4,9.5,24.6,11,23.9,12.3z"/>
</svg>
