<!-- Generator: Adobe Illustrator 18.1.1, SVG Export Plug-In  -->
<svg version="1.1"
	 xmlns="http://www.w3.org/2000/svg" xmlns:xlink="http://www.w3.org/1999/xlink" xmlns:a="http://ns.adobe.com/AdobeSVGViewerExtensions/3.0/"
	 x="0px" y="0px" width="34.9px" height="30.2px" viewBox="0 0 34.9 30.2" enable-background="new 0 0 34.9 30.2"
	 xml:space="preserve">
<defs>
</defs>
<path fill="#FFEC00" d="M18.6,1.8L4.7,11c-4.8,3.2-6.1,9.7-2.9,14.6l0,0c3.2,4.8,9.7,6.1,14.6,2.9l13.9-9.2C35,16,36.3,9.5,33.1,4.7
	l0,0C29.9-0.1,23.4-1.5,18.6,1.8z M12.6,22.5c-1.8,1.7-4.7,1.1-5.7-1.2c-0.5-1.3-0.2-2.8,0.8-3.8c1.8-1.8,4.8-1.2,5.7,1.2
	C13.9,20,13.6,21.5,12.6,22.5z M26.7,13.1c-1.8,1.7-4.7,1.1-5.7-1.2c-0.5-1.3-0.2-2.8,0.8-3.8c1.8-1.8,4.8-1.2,5.7,1.2
	C28,10.6,27.7,12.1,26.7,13.1z"/>
</svg>
