<!-- Generator: Adobe Illustrator 18.1.1, SVG Export Plug-In  -->
<svg version="1.1"
	 xmlns="http://www.w3.org/2000/svg" xmlns:xlink="http://www.w3.org/1999/xlink" xmlns:a="http://ns.adobe.com/AdobeSVGViewerExtensions/3.0/"
	 x="0px" y="0px" width="41.6px" height="39.4px" viewBox="0 0 41.6 39.4" enable-background="new 0 0 41.6 39.4"
	 xml:space="preserve">
<defs>
</defs>
<path fill="#FFEC00" d="M40.9,28.7L30,4.5c-2.4-5.3-9.6-6-13-1.3L1.4,24.7C-2,29.4,1,36.1,6.8,36.6l26.5,2.7
	C39,39.9,43.3,34,40.9,28.7z M12.3,30.4c-1.9-0.2-3.3-1.9-3.1-3.8c0.2-1.9,1.9-3.3,3.8-3.1c1.9,0.2,3.3,1.9,3.1,3.8
	C15.9,29.2,14.2,30.6,12.3,30.4z M25.4,15.1c-1.1,1.6-3.3,1.9-4.9,0.8c-1.6-1.1-1.9-3.3-0.8-4.9c1.1-1.6,3.3-1.9,4.9-0.8
	C26.2,11.4,26.5,13.6,25.4,15.1z M29.2,32.1c-1.9-0.2-3.3-1.9-3.1-3.8c0.2-1.9,1.9-3.3,3.8-3.1c1.9,0.2,3.3,1.9,3.1,3.8
	C32.8,30.9,31.1,32.3,29.2,32.1z"/>
</svg>
