<!-- Generator: Adobe Illustrator 18.1.1, SVG Export Plug-In  -->
<svg version="1.1"
	 xmlns="http://www.w3.org/2000/svg" xmlns:xlink="http://www.w3.org/1999/xlink" xmlns:a="http://ns.adobe.com/AdobeSVGViewerExtensions/3.0/"
	 x="0px" y="0px" width="61.9px" height="50.9px" viewBox="0 0 61.9 50.9" enable-background="new 0 0 61.9 50.9"
	 xml:space="preserve">
<defs>
</defs>
<path fill="#FFDD00" d="M57.6,31.9L16.7,2C12-1.4,5.4-0.4,2,4.3l0,0C-1.4,9-0.4,15.6,4.3,19l40.9,29.9c4.7,3.4,11.3,2.4,14.7-2.3
	l0,0C63.3,41.9,62.3,35.3,57.6,31.9z M8.1,13.1c-1.6-1.1-1.9-3.3-0.8-4.9c1.1-1.6,3.3-1.9,4.9-0.8c1.6,1.1,1.9,3.3,0.8,4.9
	C11.8,13.8,9.6,14.2,8.1,13.1z M21.8,23.1c-1.6-1.1-1.9-3.3-0.8-4.9c1.1-1.6,3.3-1.9,4.9-0.8c1.6,1.1,1.9,3.3,0.8,4.9
	C25.5,23.9,23.3,24.2,21.8,23.1z M35.5,33.1c-1.6-1.1-1.9-3.3-0.8-4.9c1.1-1.6,3.3-1.9,4.9-0.8c1.6,1.1,1.9,3.3,0.8,4.9
	C39.3,33.9,37.1,34.3,35.5,33.1z M49.2,43.1c-1.6-1.1-1.9-3.3-0.8-4.9c1.1-1.6,3.3-1.9,4.9-0.8c1.6,1.1,1.9,3.3,0.8,4.9
	C53,43.9,50.8,44.3,49.2,43.1z"/>
</svg>
