<!-- Generator: Adobe Illustrator 18.1.1, SVG Export Plug-In  -->
<svg version="1.1"
	 xmlns="http://www.w3.org/2000/svg" xmlns:xlink="http://www.w3.org/1999/xlink" xmlns:a="http://ns.adobe.com/AdobeSVGViewerExtensions/3.0/"
	 x="0px" y="0px" width="552.7px" height="534px" viewBox="0 0 552.7 534" enable-background="new 0 0 552.7 534"
	 xml:space="preserve">
<defs>
</defs>
<g>
	<path fill="#66380C" d="M305.6,523.2V305.5c0-6-4.8-10.8-10.8-10.8h0c-6,0-10.8,4.8-10.8,10.8v217.7c0,6,4.8,10.8,10.8,10.8h0
		C300.7,534,305.6,529.2,305.6,523.2z M291.2,307.5c-0.5-2.4,1.6-4.5,4.1-4.1c1.4,0.3,2.5,1.4,2.7,2.7c0.5,2.4-1.6,4.5-4.1,4.1
		C292.5,309.9,291.4,308.8,291.2,307.5z M291.2,322.8c-0.5-2.4,1.6-4.5,4.1-4.1c1.4,0.3,2.5,1.4,2.7,2.7c0.5,2.4-1.6,4.5-4.1,4.1
		C292.5,325.2,291.4,324.1,291.2,322.8z M294.5,392.5c-1.3,0-2.4-1.1-2.4-2.4v-55.3c0-1.3,1.1-2.4,2.4-2.4h0.6
		c1.3,0,2.4,1.1,2.4,2.4v55.3c0,1.3-1.1,2.4-2.4,2.4H294.5z M291.2,407.7c-0.5-2.4,1.6-4.5,4.1-4.1c1.4,0.3,2.5,1.4,2.7,2.7
		c0.5,2.4-1.6,4.5-4.1,4.1C292.5,410.2,291.4,409.1,291.2,407.7z M291.2,423c-0.5-2.4,1.6-4.5,4.1-4.1c1.4,0.3,2.5,1.4,2.7,2.7
		c0.5,2.4-1.6,4.5-4.1,4.1C292.5,425.5,291.4,424.4,291.2,423z M294.5,494.1c-1.3,0-2.4-1.1-2.4-2.4v-55.3c0-1.3,1.1-2.4,2.4-2.4
		h0.6c1.3,0,2.4,1.1,2.4,2.4v55.3c0,1.3-1.1,2.4-2.4,2.4H294.5z M291.2,506.7c-0.5-2.4,1.6-4.5,4.1-4.1c1.4,0.3,2.5,1.4,2.7,2.7
		c0.5,2.4-1.6,4.5-4.1,4.1C292.5,509.1,291.4,508,291.2,506.7z M291.2,522c-0.5-2.4,1.6-4.5,4.1-4.1c1.4,0.3,2.5,1.4,2.7,2.7
		c0.5,2.4-1.6,4.5-4.1,4.1C292.5,524.4,291.4,523.3,291.2,522z"/>
	<path fill="#855117" d="M333.9,291.2L286.7,361c-3.3,4.9-2.1,11.7,2.9,15l0,0c4.9,3.3,11.7,2.1,15-2.9l47.2-69.8
		c3.3-4.9,2.1-11.7-2.9-15l0,0C344,285,337.3,286.3,333.9,291.2z M298.7,368.9c-1,2.3-3.9,2.8-5.6,1.1c-1-1-1.3-2.5-0.7-3.8
		c1-2.3,3.9-2.8,5.6-1.1C299,366.1,299.3,367.6,298.7,368.9z M335.8,308.2c1.1,0.8,1.4,2.3,0.7,3.4l-31,45.8
		c-0.8,1.1-2.3,1.4-3.4,0.7l-0.5-0.4c-1.1-0.8-1.4-2.3-0.7-3.4l31-45.8c0.8-1.1,2.3-1.4,3.4-0.7L335.8,308.2z M345.6,299.6
		c-1,2.3-3.9,2.8-5.6,1.1c-1-1-1.3-2.5-0.7-3.8c1-2.3,3.9-2.8,5.6-1.1C345.9,296.8,346.2,298.4,345.6,299.6z"/>
	<path fill="#855117" d="M304.2,402.9l-45.1-71.2c-3.2-5-9.9-6.5-14.9-3.4l0,0c-5,3.2-6.5,9.9-3.4,14.9l45.1,71.2
		c3.2,5,9.9,6.5,14.9,3.4v0C305.9,414.6,307.4,407.9,304.2,402.9z M246.7,339c-1-1.6-0.5-3.7,1.1-4.8s3.7-0.5,4.8,1.1
		c1,1.6,0.5,3.7-1.1,4.8C249.8,341.1,247.7,340.6,246.7,339z M287.9,397.8c-1.1,0.7-2.6,0.4-3.4-0.8L255,350.3
		c-0.7-1.1-0.4-2.6,0.8-3.4l0.5-0.3c1.1-0.7,2.6-0.4,3.4,0.8l29.6,46.7c0.7,1.1,0.4,2.6-0.8,3.4L287.9,397.8z M291.4,409.7
		c-1-1.6-0.5-3.7,1.1-4.8c1.6-1,3.7-0.5,4.8,1.1c1,1.6,0.5,3.7-1.1,4.8C294.6,411.8,292.4,411.3,291.4,409.7z"/>
	<g>
		
			<linearGradient id="SVGID_1_" gradientUnits="userSpaceOnUse" x1="771.9208" y1="2266.908" x2="781.1734" y2="2266.908" gradientTransform="matrix(0.881 0.473 -0.473 0.881 682.9061 -1997.286)">
			<stop  offset="0.2991" style="stop-color:#231F20"/>
			<stop  offset="0.5038" style="stop-color:#ADAFB1"/>
			<stop  offset="0.7105" style="stop-color:#231F20"/>
		</linearGradient>
		<circle fill="url(#SVGID_1_)" cx="294.8" cy="367.3" r="4.6"/>
		<g>
			<path fill="#A6A8AB" d="M296.1,362.9c-2.1-0.6-4.4,0.3-5.4,2.2c-1.1,2-0.5,4.4,1.1,5.8L296.1,362.9z"/>
			<path fill="#A6A8AB" d="M297.7,363.7l-4.3,8c2.1,0.6,4.4-0.3,5.4-2.2C299.9,367.5,299.4,365.1,297.7,363.7z"/>
		</g>
	</g>
</g>
<g>
	
		<linearGradient id="SVGID_2_" gradientUnits="userSpaceOnUse" x1="4088.5186" y1="-3615.7617" x2="4097.771" y2="-3615.7617" gradientTransform="matrix(5.741022e-02 -0.9984 0.9984 5.741022e-02 3669.5786 4701.9707)">
		<stop  offset="0.2991" style="stop-color:#231F20"/>
		<stop  offset="0.5038" style="stop-color:#ADAFB1"/>
		<stop  offset="0.7105" style="stop-color:#231F20"/>
	</linearGradient>
	<circle fill="url(#SVGID_2_)" cx="294.8" cy="408" r="4.6"/>
	<g>
		<path fill="#A6A8AB" d="M290.2,408.6c0.3,2.1,2.1,3.8,4.3,4c2.2,0.1,4.2-1.4,4.7-3.4L290.2,408.6z"/>
		<path fill="#A6A8AB" d="M290.3,406.8l9.1,0.5c-0.3-2.1-2.1-3.8-4.3-4C292.8,403.2,290.8,404.7,290.3,406.8z"/>
	</g>
</g>
<path fill="#528718" d="M482.9,239.4c1.7-4.8-1.2-10-6.2-11c-15.2-3.1-46.7-6.9-72.6,7.7c-25.9,14.6-39,43.6-44.2,58.2
	c-1.7,4.8,1.2,10,6.2,11c15.2,3.1,46.7,6.9,72.6-7.7C464.7,283,477.8,254,482.9,239.4z M390.6,273.9l-0.6-0.1
	c-1.3-0.3-2.1-1.6-1.8-2.9l3.8-15.8c0.3-1.3,1.6-2.1,2.9-1.8l0.6,0.1c1.3,0.3,2.1,1.6,1.8,2.9l-3.8,15.8
	C393.2,273.4,391.9,274.2,390.6,273.9z M411.9,261.8l-0.6-0.1c-1.3-0.3-2.1-1.6-1.8-2.9l4.5-19c0.3-1.3,1.6-2.1,2.9-1.8l0.6,0.1
	c1.3,0.3,2.1,1.6,1.8,2.9l-4.5,19C414.5,261.4,413.2,262.2,411.9,261.8z M433.5,249.7l-0.6-0.1c-1.3-0.3-2.1-1.6-1.8-2.9l3-12.5
	c0.3-1.3,1.6-2.1,2.9-1.8l0.6,0.1c1.3,0.3,2.1,1.6,1.8,2.9l-3,12.5C436.1,249.2,434.8,250,433.5,249.7z M473.2,237.4l0.3,0.6
	c0.7,1.2,0.3,2.7-0.9,3.3l-87.1,49.3c-1.2,0.7-2.7,0.3-3.3-0.9l-0.3-0.6c-0.7-1.2-0.3-2.7,0.9-3.3l87.1-49.3
	C471,235.9,472.5,236.3,473.2,237.4z M368.1,296.9c-0.9-1.7-0.3-3.8,1.3-4.7s3.8-0.3,4.7,1.3c0.9,1.7,0.3,3.8-1.3,4.7
	C371.2,299.2,369.1,298.6,368.1,296.9z M445.5,263.9l12.3,3.9c1.3,0.4,2,1.8,1.6,3.1l-0.2,0.6c-0.4,1.3-1.8,2-3.1,1.6l-12.3-3.9
	c-1.3-0.4-2-1.8-1.6-3.1l0.2-0.6C442.9,264.2,444.2,263.5,445.5,263.9z M416.3,298.3l-15.4-4.9c-1.3-0.4-2-1.8-1.6-3.1l0.2-0.6
	c0.4-1.3,1.8-2,3.1-1.6L418,293c1.3,0.4,2,1.8,1.6,3.1l-0.2,0.6C419,298,417.6,298.7,416.3,298.3z M422.2,281.3
	c-1.3-0.4-2-1.8-1.6-3.1l0.2-0.6c0.4-1.3,1.8-2,3.1-1.6l18.6,5.9c1.3,0.4,2,1.8,1.6,3.1l-0.2,0.6c-0.4,1.3-1.8,2-3.1,1.6
	L422.2,281.3z"/>
<path fill="#D0DA20" d="M505.5,115.6c0.5-5.1-3.7-9.4-8.8-9.1c-15.5,0.8-47,5-68.4,25.6c-21.5,20.6-26.9,51.9-28.3,67.4
	c-0.5,5.1,3.7,9.4,8.8,9.1c15.5-0.8,47-5,68.4-25.6C498.7,162.3,504.2,131,505.5,115.6z M424.7,171.9l-0.6,0c-1.3,0-2.5-1-2.5-2.4
	l-0.3-16.2c0-1.3,1-2.5,2.4-2.5l0.6,0c1.3,0,2.5,1,2.5,2.4l0.3,16.2C427.1,170.8,426.1,171.9,424.7,171.9z M442.4,155l-0.6,0
	c-1.3,0-2.5-1-2.5-2.4l-0.3-19.5c0-1.3,1-2.5,2.4-2.5l0.6,0c1.3,0,2.5,1,2.5,2.4l0.3,19.5C444.8,153.8,443.7,155,442.4,155z
	 M460.3,137.8l-0.6,0c-1.3,0-2.5-1-2.5-2.4l-0.2-12.9c0-1.3,1-2.5,2.4-2.5l0.6,0c1.3,0,2.5,1,2.5,2.4l0.2,12.9
	C462.7,136.7,461.6,137.8,460.3,137.8z M495.6,116.1l0.4,0.5c0.9,1,0.9,2.5-0.1,3.4l-72.1,69.5c-1,0.9-2.5,0.9-3.4-0.1L420,189
	c-0.9-1-0.9-2.5,0.1-3.4l72.1-69.5C493.1,115.1,494.7,115.1,495.6,116.1z M408.7,199.9c-1.3-1.4-1.3-3.6,0.1-4.9s3.6-1.3,4.9,0.1
	c1.3,1.4,1.3,3.6-0.1,4.9C412.2,201.3,410,201.2,408.7,199.9z M475.4,148.6l12.9,0.7c1.3,0.1,2.4,1.2,2.3,2.6l0,0.6
	c-0.1,1.3-1.2,2.4-2.6,2.3l-12.9-0.7c-1.3-0.1-2.4-1.2-2.3-2.6l0-0.6C472.9,149.5,474.1,148.5,475.4,148.6z M455.7,189.2l-16.2-0.9
	c-1.3-0.1-2.4-1.2-2.3-2.6l0-0.6c0.1-1.3,1.2-2.4,2.6-2.3l16.2,0.9c1.3,0.1,2.4,1.2,2.3,2.6l0,0.6
	C458.2,188.2,457.1,189.2,455.7,189.2z M457.2,171.3c-1.3-0.1-2.4-1.2-2.3-2.6l0-0.6c0.1-1.3,1.2-2.4,2.6-2.3l19.5,1.1
	c1.3,0.1,2.4,1.2,2.3,2.6l0,0.6c-0.1,1.3-1.2,2.4-2.6,2.3L457.2,171.3z"/>
<path fill="#2BB673" d="M310.7,50.7c-3-4.1-9-4.6-12.6-1c-11,10.8-31.8,34.9-34.2,64.6c-2.4,29.7,14.4,56.7,23.6,69.2
	c3,4.1,9,4.6,12.6,1c11-10.8,31.8-34.9,34.2-64.6C336.6,90.2,319.9,63.2,310.7,50.7z M287.7,146.5l-0.5,0.4c-1,0.9-2.5,0.8-3.4-0.1
	l-11-11.9c-0.9-1-0.8-2.5,0.1-3.4l0.5-0.4c1-0.9,2.5-0.8,3.4,0.1l11,11.9C288.7,144.1,288.6,145.6,287.7,146.5z M289.6,122.1
	l-0.5,0.4c-1,0.9-2.5,0.8-3.4-0.1l-13.2-14.4c-0.9-1-0.8-2.5,0.1-3.4l0.5-0.4c1-0.9,2.5-0.8,3.4,0.1l13.2,14.4
	C290.6,119.7,290.6,121.2,289.6,122.1z M291.6,97.4l-0.5,0.4c-1,0.9-2.5,0.8-3.4-0.1l-8.7-9.5c-0.9-1-0.8-2.5,0.1-3.4l0.5-0.4
	c1-0.9,2.5-0.8,3.4,0.1l8.7,9.5C292.6,95,292.5,96.5,291.6,97.4z M303.6,57.7l0.6,0c1.3,0.1,2.3,1.3,2.2,2.6l-7.8,99.8
	c-0.1,1.3-1.3,2.3-2.6,2.2l-0.6,0c-1.3-0.1-2.3-1.3-2.2-2.6l7.8-99.8C301,58.6,302.2,57.6,303.6,57.7z M294.2,178.1
	c-1.9-0.2-3.3-1.8-3.2-3.7c0.2-1.9,1.8-3.3,3.7-3.2s3.3,1.8,3.2,3.7C297.8,176.8,296.1,178.2,294.2,178.1z M310.1,95.4l10.1-8
	c1.1-0.8,2.6-0.7,3.4,0.4l0.4,0.5c0.8,1.1,0.7,2.6-0.4,3.4l-10.1,8c-1.1,0.8-2.6,0.7-3.4-0.4l-0.4-0.5
	C308.8,97.8,309,96.3,310.1,95.4z M322.3,138.8l-12.7,10c-1.1,0.8-2.6,0.7-3.4-0.4l-0.4-0.5c-0.8-1.1-0.7-2.6,0.4-3.4l12.7-10
	c1.1-0.8,2.6-0.7,3.4,0.4l0.4,0.5C323.5,136.5,323.4,138,322.3,138.8z M311.5,124.5c-1.1,0.8-2.6,0.7-3.4-0.4l-0.4-0.5
	c-0.8-1.1-0.7-2.6,0.4-3.4l15.3-12.1c1.1-0.8,2.6-0.7,3.4,0.4l0.4,0.5c0.8,1.1,0.7,2.6-0.4,3.4L311.5,124.5z"/>
<path fill="#2BB673" d="M548.9,356.4c4.3-2.8,5.2-8.7,1.8-12.5c-10.1-11.7-32.7-34.1-62.2-38.3c-29.4-4.3-57.5,10.6-70.6,19
	c-4.3,2.8-5.2,8.7-1.8,12.5c10.1,11.7,32.7,34.1,62.2,38.3C507.8,379.7,535.9,364.8,548.9,356.4z M454.8,327.1l-0.4-0.5
	c-0.8-1-0.7-2.6,0.4-3.4l12.6-10.2c1-0.8,2.6-0.7,3.4,0.4l0.4,0.5c0.8,1,0.7,2.6-0.4,3.4l-12.6,10.2
	C457.2,328.4,455.6,328.2,454.8,327.1z M479,330.7l-0.4-0.5c-0.8-1-0.7-2.6,0.4-3.4l15.2-12.3c1-0.8,2.6-0.7,3.4,0.4l0.4,0.5
	c0.8,1,0.7,2.6-0.4,3.4L482.4,331C481.4,331.9,479.8,331.7,479,330.7z M503.5,334.3l-0.4-0.5c-0.8-1-0.7-2.6,0.4-3.4l10-8.1
	c1-0.8,2.6-0.7,3.4,0.4l0.4,0.5c0.8,1,0.7,2.6-0.4,3.4l-10,8.1C505.9,335.5,504.4,335.3,503.5,334.3z M542.4,348.8l-0.1,0.6
	c-0.2,1.3-1.4,2.3-2.8,2.1l-99.1-14.3c-1.3-0.2-2.3-1.4-2.1-2.8l0.1-0.6c0.2-1.3,1.4-2.3,2.8-2.1l99.1,14.3
	C541.6,346.3,542.5,347.5,542.4,348.8z M422.9,331.6c0.3-1.9,2-3.2,3.9-2.9c1.9,0.3,3.2,2,2.9,3.9c-0.3,1.9-2,3.2-3.9,2.9
	C423.9,335.2,422.6,333.5,422.9,331.6z M504.3,352.9l7.3,10.6c0.8,1.1,0.5,2.6-0.6,3.4l-0.5,0.4c-1.1,0.8-2.6,0.5-3.4-0.6l-7.3-10.6
	c-0.8-1.1-0.5-2.6,0.6-3.4l0.5-0.4C502,351.5,503.5,351.8,504.3,352.9z M460.2,362.2l-9.2-13.3c-0.8-1.1-0.5-2.6,0.6-3.4l0.5-0.4
	c1.1-0.8,2.6-0.5,3.4,0.6l9.2,13.3c0.8,1.1,0.5,2.6-0.6,3.4l-0.5,0.4C462.5,363.6,460.9,363.3,460.2,362.2z M475.2,352.4
	c-0.8-1.1-0.5-2.6,0.6-3.4l0.5-0.4c1.1-0.8,2.6-0.5,3.4,0.6l11.1,16.1c0.8,1.1,0.5,2.6-0.6,3.4l-0.5,0.4c-1.1,0.8-2.6,0.5-3.4-0.6
	L475.2,352.4z"/>
<path fill="#2BB673" d="M100.8,106.9c-5-1.1-9.8,2.4-10.2,7.5c-1.3,15.4-1.3,47.2,16.3,71.2c17.6,24,47.9,33.6,63,37
	c5,1.1,9.8-2.4,10.2-7.5c1.3-15.4,1.3-47.2-16.3-71.2C146.2,119.8,115.9,110.3,100.8,106.9z M145.9,194.5l-0.1,0.6
	c-0.2,1.3-1.4,2.3-2.7,2.1l-16.1-1.9c-1.3-0.2-2.3-1.4-2.1-2.7l0.1-0.6c0.2-1.3,1.4-2.3,2.7-2.1l16.1,1.9
	C145.1,191.9,146.1,193.1,145.9,194.5z M131.4,174.7l-0.1,0.6c-0.2,1.3-1.4,2.3-2.7,2.1l-19.4-2.2c-1.3-0.2-2.3-1.4-2.1-2.7l0.1-0.6
	c0.2-1.3,1.4-2.3,2.7-2.1l19.4,2.2C130.6,172.2,131.6,173.4,131.4,174.7z M116.8,154.7l-0.1,0.6c-0.2,1.3-1.4,2.3-2.7,2.1l-12.8-1.5
	c-1.3-0.2-2.3-1.4-2.1-2.7l0.1-0.6c0.2-1.3,1.4-2.3,2.7-2.1l12.8,1.5C116,152.2,116.9,153.4,116.8,154.7z M100,116.8l0.5-0.4
	c1.1-0.8,2.6-0.6,3.4,0.5l59.3,80.7c0.8,1.1,0.6,2.6-0.5,3.4l-0.5,0.4c-1.1,0.8-2.6,0.6-3.4-0.5l-59.3-80.7
	C98.6,119.1,98.9,117.6,100,116.8z M171.5,214.1c-1.5,1.1-3.7,0.8-4.8-0.7c-1.1-1.5-0.8-3.7,0.7-4.8c1.5-1.1,3.7-0.8,4.8,0.7
	C173.3,210.8,173,212.9,171.5,214.1z M129.5,141.1l2.4-12.7c0.3-1.3,1.5-2.2,2.9-1.9l0.6,0.1c1.3,0.3,2.2,1.5,1.9,2.9l-2.4,12.7
	c-0.3,1.3-1.5,2.2-2.9,1.9l-0.6-0.1C130.1,143.7,129.3,142.4,129.5,141.1z M167.1,166l-3.1,15.9c-0.3,1.3-1.5,2.2-2.9,1.9l-0.6-0.1
	c-1.3-0.3-2.2-1.5-1.9-2.9l3.1-15.9c0.3-1.3,1.5-2.2,2.9-1.9l0.6,0.1C166.5,163.4,167.4,164.7,167.1,166z M149.6,162.2
	c-0.3,1.3-1.5,2.2-2.9,1.9l-0.6-0.1c-1.3-0.3-2.2-1.5-1.9-2.9l3.7-19.2c0.3-1.3,1.5-2.2,2.9-1.9l0.6,0.1c1.3,0.3,2.2,1.5,1.9,2.9
	L149.6,162.2z"/>
<path fill="#39B54A" d="M4.8,279.4c-4.6,2.2-6.2,7.9-3.4,12.2c8.5,12.9,28.1,38,56.7,46.1c28.6,8.1,58.4-3.1,72.4-9.7
	c4.6-2.2,6.2-7.9,3.4-12.2c-8.5-12.9-28.1-38-56.7-46.1C48.6,261.6,18.8,272.7,4.8,279.4z M94.3,320.6l0.3,0.5
	c0.7,1.1,0.3,2.6-0.8,3.3L80,332.9c-1.1,0.7-2.6,0.3-3.3-0.8l-0.3-0.5c-0.7-1.1-0.3-2.6,0.8-3.3l13.8-8.4
	C92.1,319,93.6,319.4,94.3,320.6z M70.8,313.9l0.3,0.5c0.7,1.1,0.3,2.6-0.8,3.3L53.6,328c-1.1,0.7-2.6,0.3-3.3-0.8l-0.3-0.5
	c-0.7-1.1-0.3-2.6,0.8-3.3l16.7-10.2C68.6,312.4,70.1,312.8,70.8,313.9z M46.9,307.2l0.3,0.5c0.7,1.1,0.3,2.6-0.8,3.3l-11,6.7
	c-1.1,0.7-2.6,0.3-3.3-0.8l-0.3-0.5c-0.7-1.1-0.3-2.6,0.8-3.3l11-6.7C44.7,305.7,46.2,306,46.9,307.2z M10.3,287.7l0.2-0.6
	c0.4-1.3,1.7-2.1,3-1.7l96.4,27c1.3,0.4,2.1,1.7,1.7,3l-0.2,0.6c-0.4,1.3-1.7,2.1-3,1.7l-96.4-27C10.7,290.3,9.9,289,10.3,287.7z
	 M126.5,320.3c-0.5,1.8-2.4,2.9-4.3,2.4c-1.8-0.5-2.9-2.4-2.4-4.3c0.5-1.8,2.4-2.9,4.3-2.4C126,316.5,127,318.4,126.5,320.3z
	 M48.6,288.6l-5.9-11.5c-0.6-1.2-0.1-2.7,1.1-3.3l0.6-0.3c1.2-0.6,2.7-0.1,3.3,1.1l5.9,11.5c0.6,1.2,0.1,2.7-1.1,3.3l-0.6,0.3
	C50.6,290.3,49.2,289.8,48.6,288.6z M93.5,285.1l7.4,14.4c0.6,1.2,0.1,2.7-1.1,3.3l-0.6,0.3c-1.2,0.6-2.7,0.1-3.3-1.1l-7.4-14.4
	c-0.6-1.2-0.1-2.7,1.1-3.3l0.6-0.3C91.4,283.4,92.9,283.9,93.5,285.1z M77.3,292.9c0.6,1.2,0.1,2.7-1.1,3.3l-0.6,0.3
	c-1.2,0.6-2.7,0.1-3.3-1.1L63.5,278c-0.6-1.2-0.1-2.7,1.1-3.3l0.6-0.3c1.2-0.6,2.7-0.1,3.3,1.1L77.3,292.9z"/>
<path fill="#528718" d="M124.4,238.8c-5,0.7-8.3,5.8-6.8,10.7c4.3,14.9,15.8,44.5,40.8,60.6c25,16.1,56.8,14.1,72.1,11.8
	c5-0.7,8.3-5.8,6.8-10.7c-4.3-14.9-15.8-44.5-40.8-60.6C171.5,234.6,139.7,236.6,124.4,238.8z M198,304.3l0.2,0.6
	c0.3,1.3-0.4,2.6-1.8,3l-15.7,4c-1.3,0.3-2.6-0.4-3-1.8l-0.2-0.6c-0.3-1.3,0.4-2.6,1.8-3l15.7-4C196.4,302.3,197.7,303,198,304.3z
	 M177.5,291.1l0.2,0.6c0.3,1.3-0.4,2.6-1.8,3l-18.9,4.9c-1.3,0.3-2.6-0.4-3-1.8l-0.2-0.6c-0.3-1.3,0.4-2.6,1.8-3l18.9-4.9
	C175.8,289,177.1,289.8,177.5,291.1z M156.6,277.7l0.2,0.6c0.3,1.3-0.4,2.6-1.8,3l-12.5,3.2c-1.3,0.3-2.6-0.4-3-1.8l-0.2-0.6
	c-0.3-1.3,0.4-2.6,1.8-3l12.5-3.2C154.9,275.6,156.2,276.4,156.6,277.7z M127.2,248.4l0.3-0.5c0.7-1.1,2.2-1.5,3.4-0.7l84.4,54
	c1.1,0.7,1.5,2.2,0.7,3.4l-0.3,0.5c-0.7,1.1-2.2,1.5-3.4,0.7l-84.4-54C126.9,251.1,126.5,249.5,127.2,248.4z M228.9,313.4
	c-1,1.6-3.2,2.1-4.8,1c-1.6-1-2.1-3.2-1-4.8c1-1.6,3.2-2.1,4.8-1S230,311.8,228.9,313.4z M163.6,260.5l-2.3-12.7
	c-0.2-1.3,0.6-2.6,2-2.8l0.6-0.1c1.3-0.2,2.6,0.6,2.8,2l2.3,12.7c0.2,1.3-0.6,2.6-2,2.8l-0.6,0.1
	C165.1,262.7,163.8,261.8,163.6,260.5z M207.6,270.2l2.9,15.9c0.2,1.3-0.6,2.6-2,2.8l-0.6,0.1c-1.3,0.2-2.6-0.6-2.8-2l-2.9-15.9
	c-0.2-1.3,0.6-2.6,2-2.8l0.6-0.1C206.1,268,207.4,268.8,207.6,270.2z M189.9,272.9c0.2,1.3-0.6,2.6-2,2.8l-0.6,0.1
	c-1.3,0.2-2.6-0.6-2.8-2l-3.4-19.2c-0.2-1.3,0.6-2.6,2-2.8l0.6-0.1c1.3-0.2,2.6,0.6,2.8,2L189.9,272.9z"/>
<path fill="#D0DA20" d="M216.7,159.3c-4.6-2.1-10.1,0.3-11.5,5.2c-4.5,14.8-11.2,45.9,1,73.1c12.2,27.1,39.8,42.8,53.9,49.3
	c4.6,2.1,10.1-0.3,11.5-5.2c4.5-14.8,11.2-45.9-1-73.1C258.4,181.5,230.7,165.8,216.7,159.3z M242.5,254.4l-0.2,0.6
	c-0.4,1.3-1.8,2-3.1,1.5l-15.3-5.2c-1.3-0.4-2-1.8-1.5-3.1l0.2-0.6c0.4-1.3,1.8-2,3.1-1.5l15.3,5.2
	C242.3,251.7,242.9,253.1,242.5,254.4z M232.5,232.1l-0.2,0.6c-0.4,1.3-1.8,2-3.1,1.5l-18.5-6.3c-1.3-0.4-2-1.8-1.5-3.1l0.2-0.6
	c0.4-1.3,1.8-2,3.1-1.5L231,229C232.3,229.4,232.9,230.8,232.5,232.1z M222.4,209.4l-0.2,0.6c-0.4,1.3-1.8,2-3.1,1.5l-12.2-4.1
	c-1.3-0.4-2-1.8-1.5-3.1l0.2-0.6c0.4-1.3,1.8-2,3.1-1.5l12.2,4.1C222.1,206.8,222.8,208.2,222.4,209.4z M213.8,168.8l0.6-0.3
	c1.2-0.6,2.7,0,3.2,1.2l41.1,91.3c0.6,1.2,0,2.7-1.2,3.2l-0.6,0.3c-1.2,0.6-2.7,0-3.2-1.2l-41.1-91.3
	C212.1,170.8,212.6,169.4,213.8,168.8z M263.4,278.9c-1.7,0.8-3.8,0-4.6-1.7s0-3.8,1.7-4.6s3.8,0,4.6,1.7S265.1,278.1,263.4,278.9z
	 M237.6,198.8l5-11.9c0.5-1.2,2-1.8,3.2-1.3l0.6,0.2c1.2,0.5,1.8,2,1.3,3.2l-5,11.9c-0.5,1.2-2,1.8-3.2,1.3l-0.6-0.2
	C237.7,201.5,237.1,200,237.6,198.8z M269.2,231l-6.3,14.9c-0.5,1.2-2,1.8-3.2,1.3l-0.6-0.2c-1.2-0.5-1.8-2-1.3-3.2l6.3-14.9
	c0.5-1.2,2-1.8,3.2-1.3l0.6,0.2C269.2,228.3,269.7,229.8,269.2,231z M252.9,223.6c-0.5,1.2-2,1.8-3.2,1.3l-0.6-0.2
	c-1.2-0.5-1.8-2-1.3-3.2l7.6-18c0.5-1.2,2-1.8,3.2-1.3l0.6,0.2c1.2,0.5,1.8,2,1.3,3.2L252.9,223.6z"/>
<path fill="#86C638" d="M379.5,160.8c-1.2-5-6.5-7.7-11.3-5.8c-14.4,5.8-42.8,20-56.4,46.5c-13.6,26.5-8.5,57.9-4.8,72.9
	c1.2,5,6.5,7.7,11.3,5.8c14.4-5.8,42.8-20,56.4-46.5C388.2,207.2,383.2,175.8,379.5,160.8z M321.4,240.4l-0.6,0.2
	c-1.3,0.5-2.7-0.2-3.1-1.5l-5.5-15.2c-0.5-1.3,0.2-2.7,1.5-3.1l0.6-0.2c1.3-0.5,2.7,0.2,3.1,1.5l5.5,15.2
	C323.3,238.6,322.7,240,321.4,240.4z M332.5,218.7l-0.6,0.2c-1.3,0.5-2.7-0.2-3.1-1.5l-6.7-18.4c-0.5-1.3,0.2-2.7,1.5-3.1l0.6-0.2
	c1.3-0.5,2.7,0.2,3.1,1.5l6.7,18.4C334.5,216.8,333.8,218.2,332.5,218.7z M343.9,196.6l-0.6,0.2c-1.3,0.5-2.7-0.2-3.1-1.5l-4.4-12.1
	c-0.5-1.3,0.2-2.7,1.5-3.1l0.6-0.2c1.3-0.5,2.7,0.2,3.1,1.5l4.4,12.1C345.8,194.7,345.1,196.1,343.9,196.6z M370.2,164.6l0.6,0.3
	c1.2,0.6,1.7,2.1,1.1,3.3l-45.5,89.2c-0.6,1.2-2.1,1.7-3.3,1.1l-0.6-0.3c-1.2-0.6-1.7-2.1-1.1-3.3l45.5-89.2
	C367.6,164.4,369,163.9,370.2,164.6z M315.3,272c-1.7-0.9-2.4-2.9-1.5-4.6c0.9-1.7,2.9-2.4,4.6-1.5c1.7,0.9,2.4,2.9,1.5,4.6
	S317,272.9,315.3,272z M361.7,201.9l12.4-3.5c1.3-0.4,2.6,0.4,3,1.7l0.2,0.6c0.4,1.3-0.4,2.6-1.7,3l-12.4,3.5
	c-1.3,0.4-2.6-0.4-3-1.7l-0.2-0.6C359.7,203.6,360.4,202.2,361.7,201.9z M356.3,246.6l-15.6,4.4c-1.3,0.4-2.6-0.4-3-1.7l-0.2-0.6
	c-0.4-1.3,0.4-2.6,1.7-3l15.6-4.4c1.3-0.4,2.6,0.4,3,1.7l0.2,0.6C358.4,244.9,357.6,246.3,356.3,246.6z M351.9,229.2
	c-1.3,0.4-2.6-0.4-3-1.7l-0.2-0.6c-0.4-1.3,0.4-2.6,1.7-3l18.8-5.3c1.3-0.4,2.6,0.4,3,1.7l0.2,0.6c0.4,1.3-0.4,2.6-1.7,3
	L351.9,229.2z"/>
<path fill="#D0DA20" d="M100.9,390.4c-2.4,4.5-0.4,10.1,4.4,11.9c14.5,5.5,45.1,14.2,73,3.9c27.9-10.3,45.4-36.9,52.8-50.5
	c2.4-4.5,0.4-10.1-4.4-11.9c-14.5-5.5-45.1-14.2-73-3.9C125.9,350.3,108.3,376.8,100.9,390.4z M197.5,371l0.6,0.2
	c1.2,0.5,1.8,1.9,1.3,3.2l-6.2,15c-0.5,1.2-1.9,1.8-3.2,1.3l-0.6-0.2c-1.2-0.5-1.8-1.9-1.3-3.2l6.2-15
	C194.9,371.1,196.3,370.5,197.5,371z M174.6,379.5l0.6,0.2c1.2,0.5,1.8,1.9,1.3,3.2l-7.5,18c-0.5,1.2-1.9,1.8-3.2,1.3l-0.6-0.2
	c-1.2-0.5-1.8-1.9-1.3-3.2l7.5-18C171.9,379.6,173.4,379,174.6,379.5z M151.3,388.1l0.6,0.2c1.2,0.5,1.8,1.9,1.3,3.2l-4.9,11.9
	c-0.5,1.2-1.9,1.8-3.2,1.3l-0.6-0.2c-1.2-0.5-1.8-1.9-1.3-3.2l4.9-11.9C148.7,388.2,150.1,387.6,151.3,388.1z M110.3,393.9l-0.2-0.6
	c-0.5-1.3,0.2-2.7,1.4-3.1l93.8-34.9c1.3-0.5,2.7,0.2,3.1,1.4l0.2,0.6c0.5,1.3-0.2,2.7-1.4,3.1l-93.8,34.9
	C112.1,395.8,110.7,395.2,110.3,393.9z M223.4,351.8c0.7,1.8-0.3,3.8-2,4.4c-1.8,0.7-3.8-0.3-4.4-2c-0.7-1.8,0.3-3.8,2-4.4
	C220.7,349.1,222.7,350,223.4,351.8z M141.7,372.1l-11.5-5.8c-1.2-0.6-1.7-2.1-1.1-3.3l0.3-0.6c0.6-1.2,2.1-1.7,3.3-1.1l11.5,5.8
	c1.2,0.6,1.7,2.1,1.1,3.3l-0.3,0.6C144.4,372.3,142.9,372.8,141.7,372.1z M176,342.8l14.5,7.3c1.2,0.6,1.7,2.1,1.1,3.3l-0.3,0.6
	c-0.6,1.2-2.1,1.7-3.3,1.1l-14.5-7.3c-1.2-0.6-1.7-2.1-1.1-3.3l0.3-0.6C173.3,342.7,174.8,342.2,176,342.8z M167.5,358.6
	c1.2,0.6,1.7,2.1,1.1,3.3l-0.3,0.6c-0.6,1.2-2.1,1.7-3.3,1.1l-17.4-8.8c-1.2-0.6-1.7-2.1-1.1-3.3l0.3-0.6c0.6-1.2,2.1-1.7,3.3-1.1
	L167.5,358.6z"/>
<path fill="#86C638" d="M459.7,418.9c4.7-2,6.5-7.7,3.8-12.1c-8.1-13.2-27-38.8-55.4-47.6c-28.4-8.9-58.5,1.4-72.7,7.6
	c-4.7,2-6.5,7.7-3.8,12.1c8.1,13.2,27,38.8,55.4,47.6C415.5,435.4,445.6,425.1,459.7,418.9z M371.4,375.2l-0.3-0.6
	c-0.7-1.2-0.3-2.7,0.9-3.3l14.1-8.1c1.2-0.7,2.7-0.3,3.3,0.9l0.3,0.6c0.7,1.2,0.3,2.7-0.9,3.3l-14.1,8.1
	C373.5,376.8,372.1,376.3,371.4,375.2z M394.7,382.5l-0.3-0.6c-0.7-1.2-0.3-2.7,0.9-3.3l16.9-9.7c1.2-0.7,2.7-0.3,3.3,0.9l0.3,0.6
	c0.7,1.2,0.3,2.7-0.9,3.3l-16.9,9.7C396.9,384,395.4,383.6,394.7,382.5z M418.4,389.9l-0.3-0.6c-0.7-1.2-0.3-2.7,0.9-3.3l11.2-6.4
	c1.2-0.7,2.7-0.3,3.3,0.9l0.3,0.6c0.7,1.2,0.3,2.7-0.9,3.3l-11.2,6.4C420.6,391.4,419.1,391,418.4,389.9z M454.5,410.4l-0.2,0.6
	c-0.4,1.3-1.8,2-3,1.6l-95.6-29.7c-1.3-0.4-2-1.8-1.6-3l0.2-0.6c0.4-1.3,1.8-2,3-1.6l95.6,29.7C454.1,407.7,454.9,409.1,454.5,410.4
	z M339.2,374.6c0.6-1.8,2.5-2.8,4.3-2.3c1.8,0.6,2.8,2.5,2.3,4.3c-0.6,1.8-2.5,2.8-4.3,2.3S338.6,376.4,339.2,374.6z M416.3,408.4
	l5.5,11.6c0.6,1.2,0.1,2.7-1.2,3.2l-0.6,0.3c-1.2,0.6-2.7,0.1-3.2-1.2l-5.5-11.6c-0.6-1.2-0.1-2.7,1.2-3.2l0.6-0.3
	C414.2,406.6,415.7,407.2,416.3,408.4z M371.2,410.7l-7-14.6c-0.6-1.2-0.1-2.7,1.2-3.2l0.6-0.3c1.2-0.6,2.7-0.1,3.2,1.2l7,14.6
	c0.6,1.2,0.1,2.7-1.2,3.2l-0.6,0.3C373.3,412.4,371.8,411.9,371.2,410.7z M387.6,403.3c-0.6-1.2-0.1-2.7,1.2-3.2l0.6-0.3
	c1.2-0.6,2.7-0.1,3.2,1.2l8.4,17.6c0.6,1.2,0.1,2.7-1.2,3.2l-0.6,0.3c-1.2,0.6-2.7,0.1-3.2-1.2L387.6,403.3z"/>
<path fill="#86C638" d="M436.7,6.5c-1.2-5-6.4-7.7-11.2-5.9c-14.4,5.6-43,19.5-56.9,45.9c-13.9,26.3-9.2,57.8-5.6,72.8
	c1.2,5,6.4,7.7,11.2,5.9c14.4-5.6,43-19.5,56.9-45.9C445,53,440.3,21.5,436.7,6.5z M377.8,85.4l-0.6,0.2c-1.3,0.4-2.7-0.2-3.1-1.5
	l-5.4-15.3c-0.4-1.3,0.2-2.7,1.5-3.1l0.6-0.2c1.3-0.4,2.7,0.2,3.1,1.5l5.4,15.3C379.7,83.6,379,85,377.8,85.4z M389.2,63.8l-0.6,0.2
	c-1.3,0.4-2.7-0.2-3.1-1.5L379,44.1c-0.4-1.3,0.2-2.7,1.5-3.1l0.6-0.2c1.3-0.4,2.7,0.2,3.1,1.5l6.5,18.4
	C391.1,62,390.4,63.4,389.2,63.8z M400.7,41.8l-0.6,0.2c-1.3,0.4-2.7-0.2-3.1-1.5l-4.3-12.2c-0.4-1.3,0.2-2.7,1.5-3.1l0.6-0.2
	c1.3-0.4,2.7,0.2,3.1,1.5l4.3,12.2C402.7,40,402,41.4,400.7,41.8z M427.4,10.1l0.6,0.3c1.2,0.6,1.7,2.1,1,3.3l-46.5,88.7
	c-0.6,1.2-2.1,1.7-3.3,1l-0.6-0.3c-1.2-0.6-1.7-2.1-1-3.3l46.5-88.7C424.8,9.9,426.2,9.5,427.4,10.1z M371.4,117
	c-1.7-0.9-2.3-3-1.4-4.7c0.9-1.7,3-2.3,4.7-1.4c1.7,0.9,2.3,3,1.4,4.7C375.1,117.2,373.1,117.9,371.4,117z M418.5,47.3L431,44
	c1.3-0.4,2.6,0.4,3,1.7l0.2,0.6c0.4,1.3-0.4,2.6-1.7,3L420,52.6c-1.3,0.4-2.6-0.4-3-1.7l-0.2-0.6C416.5,49,417.2,47.7,418.5,47.3z
	 M412.7,92L397,96.2c-1.3,0.4-2.6-0.4-3-1.7l-0.2-0.6c-0.4-1.3,0.4-2.6,1.7-3l15.6-4.2c1.3-0.4,2.6,0.4,3,1.7l0.2,0.6
	C414.7,90.3,413.9,91.7,412.7,92z M408.4,74.6c-1.3,0.4-2.6-0.4-3-1.7l-0.2-0.6c-0.4-1.3,0.4-2.6,1.7-3l18.9-5.1
	c1.3-0.4,2.6,0.4,3,1.7l0.2,0.6c0.4,1.3-0.4,2.6-1.7,3L408.4,74.6z"/>
<path fill="#86C638" d="M173.4,9.6c-4.8-1.8-10,1-11.2,5.9c-3.5,15.1-8.1,46.5,5.8,72.8c13.9,26.3,42.6,40.1,57,45.7
	c4.8,1.8,10-1,11.2-5.9c3.5-15.1,8.1-46.5-5.8-72.8C216.5,29,187.9,15.2,173.4,9.6z M205.4,102.8l-0.2,0.6c-0.3,1.3-1.7,2.1-3,1.7
	l-15.7-4.2c-1.3-0.3-2.1-1.7-1.7-3l0.2-0.6c0.3-1.3,1.7-2.1,3-1.7l15.7,4.2C205,100.2,205.8,101.5,205.4,102.8z M194,81.2l-0.2,0.6
	c-0.3,1.3-1.7,2.1-3,1.7l-18.9-5c-1.3-0.3-2.1-1.7-1.7-3l0.2-0.6c0.3-1.3,1.7-2.1,3-1.7l18.9,5C193.6,78.6,194.3,79.9,194,81.2z
	 M182.4,59.3l-0.2,0.6c-0.3,1.3-1.7,2.1-3,1.7l-12.5-3.3c-1.3-0.3-2.1-1.7-1.7-3l0.2-0.6c0.3-1.3,1.7-2.1,3-1.7l12.5,3.3
	C181.9,56.6,182.7,58,182.4,59.3z M171.2,19.3l0.6-0.3c1.2-0.6,2.7-0.2,3.3,1l47,88.4c0.6,1.2,0.2,2.7-1,3.3l-0.6,0.3
	c-1.2,0.6-2.7,0.2-3.3-1l-47-88.4C169.6,21.4,170,20,171.2,19.3z M227.9,125.9c-1.7,0.9-3.8,0.3-4.7-1.4c-0.9-1.7-0.3-3.8,1.4-4.7
	s3.8-0.3,4.7,1.4C230.2,122.9,229.6,125,227.9,125.9z M196.9,47.7l4.2-12.2c0.4-1.3,1.8-1.9,3.1-1.5l0.6,0.2
	c1.3,0.4,1.9,1.8,1.5,3.1l-4.2,12.2c-0.4,1.3-1.8,1.9-3.1,1.5l-0.6-0.2C197.2,50.3,196.5,48.9,196.9,47.7z M230.5,77.7L225.2,93
	c-0.4,1.3-1.8,1.9-3.1,1.5l-0.6-0.2c-1.3-0.4-1.9-1.8-1.5-3.1l5.3-15.3c0.4-1.3,1.8-1.9,3.1-1.5l0.6,0.2
	C230.3,75.1,231,76.5,230.5,77.7z M213.7,71.4c-0.4,1.3-1.8,1.9-3.1,1.5l-0.6-0.2c-1.3-0.4-1.9-1.8-1.5-3.1l6.4-18.4
	c0.4-1.3,1.8-1.9,3.1-1.5l0.6,0.2c1.3,0.4,1.9,1.8,1.5,3.1L213.7,71.4z"/>
</svg>
