<!-- Generator: Adobe Illustrator 18.1.1, SVG Export Plug-In  -->
<svg version="1.1"
	 xmlns="http://www.w3.org/2000/svg" xmlns:xlink="http://www.w3.org/1999/xlink" xmlns:a="http://ns.adobe.com/AdobeSVGViewerExtensions/3.0/"
	 x="0px" y="0px" width="101.3px" height="83.7px" viewBox="0 0 101.3 83.7" enable-background="new 0 0 101.3 83.7"
	 xml:space="preserve">
<defs>
</defs>
<g>
	<path fill="#A5A6A9" d="M62.3,10.9C62.4,5,57.6,0.1,51.6,0l0,0c-6-0.1-10.9,4.7-10.9,10.7l-0.5,44.9c-0.1,6,4.7,10.9,10.7,10.9h0
		c6,0.1,10.9-4.7,10.9-10.7L62.3,10.9z M53.8,10c2.8,3.7-1.4,7.9-5.1,5C46,11.2,50.2,7.1,53.8,10z M53.6,31.1c2.8,3.7-1.4,7.9-5.1,5
		C45.7,32.4,50,28.2,53.6,31.1z M48.3,57.2c-2.8-3.7,1.4-7.9,5.1-5C56.2,55.9,52,60.1,48.3,57.2z"/>
	<path fill="#A5A6A9" d="M56.2,64c5.4-2.4,7.9-8.8,5.4-14.3l0,0c-2.4-5.4-8.8-7.9-14.3-5.4l-41,18.4C0.9,65.1-1.5,71.5,1,77l0,0
		c2.4,5.4,8.8,7.9,14.3,5.4L56.2,64z M53.5,55.9c-2.2,4.1-7.7,2-6.7-2.5C49.1,49.3,54.6,51.4,53.5,55.9z M34.3,64.5
		c-2.2,4.1-7.7,2-6.7-2.5C29.8,57.9,35.3,60,34.3,64.5z M8.3,70.7c2.2-4.1,7.7-2,6.7,2.5C12.8,77.3,7.3,75.2,8.3,70.7z"/>
	<path fill="#A5A6A9" d="M86,82.8c5.4,2.5,11.8,0.1,14.3-5.4l0,0c2.5-5.4,0.1-11.8-5.4-14.3L54,44.5c-5.4-2.5-11.8-0.1-14.3,5.4l0,0
		c-2.5,5.4-0.1,11.8,5.4,14.3L86,82.8z M90.3,75.4c-4.5,1-6.6-4.5-2.5-6.7C92.3,67.6,94.4,73.2,90.3,75.4z M71.1,66.6
		c-4.5,1-6.6-4.5-2.5-6.7C73.1,58.9,75.2,64.4,71.1,66.6z M49.3,51.2c4.5-1,6.6,4.5,2.5,6.7C47.3,59,45.2,53.4,49.3,51.2z"/>
</g>
</svg>
