<!-- Generator: Adobe Illustrator 18.1.1, SVG Export Plug-In  -->
<svg version="1.1"
	 xmlns="http://www.w3.org/2000/svg" xmlns:xlink="http://www.w3.org/1999/xlink" xmlns:a="http://ns.adobe.com/AdobeSVGViewerExtensions/3.0/"
	 x="0px" y="0px" width="100.2px" height="74.4px" viewBox="0 0 100.2 74.4" enable-background="new 0 0 100.2 74.4"
	 xml:space="preserve">
<defs>
</defs>
<path fill="#726759" d="M83.2,1.8L4.8,54.4c-5,3.3-6.3,10.1-3,15.1l0,0c3.3,5,10.1,6.3,15.1,3l78.4-52.6c5-3.3,6.3-10.1,3-15.1l0,0
	C95-0.2,88.2-1.5,83.2,1.8z M12.8,66.4C11.2,67.4,9.1,67,8,65.4c-1.1-1.6-0.6-3.7,0.9-4.8c1.6-1.1,3.7-0.6,4.8,0.9
	C14.8,63.2,14.4,65.3,12.8,66.4z M30.8,54.3c-1.6,1.1-3.7,0.6-4.8-0.9c-1.1-1.6-0.6-3.7,0.9-4.8c1.6-1.1,3.7-0.6,4.8,0.9
	C32.8,51.1,32.4,53.2,30.8,54.3z M52.6,39.6c-1.6,1.1-3.7,0.6-4.8-1c-1.1-1.6-0.6-3.7,0.9-4.8c1.6-1.1,3.7-0.6,4.8,1
	C54.6,36.4,54.2,38.6,52.6,39.6z M71.4,27c-1.6,1.1-3.7,0.6-4.8-0.9c-1.1-1.6-0.6-3.7,0.9-4.8c1.6-1.1,3.7-0.6,4.8,0.9
	C73.4,23.8,73,26,71.4,27z M89.8,14.7c-1.6,1.1-3.7,0.6-4.8-1C84,12.1,84.4,10,86,8.9c1.6-1.1,3.7-0.6,4.8,0.9
	C91.8,11.5,91.4,13.6,89.8,14.7z"/>
</svg>
