<!-- Generator: Adobe Illustrator 18.1.1, SVG Export Plug-In  -->
<svg version="1.1"
	 xmlns="http://www.w3.org/2000/svg" xmlns:xlink="http://www.w3.org/1999/xlink" xmlns:a="http://ns.adobe.com/AdobeSVGViewerExtensions/3.0/"
	 x="0px" y="0px" width="73.9px" height="100.5px" viewBox="0 0 73.9 100.5" enable-background="new 0 0 73.9 100.5"
	 xml:space="preserve">
<defs>
</defs>
<path fill="#A5A6A9" d="M53.9,4.9L1.8,83.6c-3.3,5-1.9,11.8,3.1,15.1l0,0c5,3.3,11.8,1.9,15.1-3.1l52.1-78.7
	c3.3-5,1.9-11.8-3.1-15.1l0,0C64-1.5,57.3-0.1,53.9,4.9z M14.1,90.9c-1,2.3-3.9,2.9-5.6,1.1c-1-1-1.3-2.5-0.8-3.8
	c1-2.3,3.9-2.9,5.6-1.1C14.3,88.1,14.6,89.6,14.1,90.9z M26,72.8c-1,2.3-3.9,2.9-5.6,1.1c-1-1-1.3-2.5-0.8-3.8
	c1-2.3,3.9-2.9,5.6-1.1C26.3,70,26.6,71.6,26,72.8z M40.6,50.9c-1,2.3-3.9,2.9-5.6,1.1c-1-1-1.3-2.5-0.8-3.8c1-2.3,3.9-2.9,5.6-1.1
	C40.8,48.1,41.1,49.7,40.6,50.9z M53.1,32c-1,2.3-3.9,2.9-5.6,1.1c-1-1-1.3-2.5-0.8-3.8c1-2.3,3.9-2.9,5.6-1.1
	C53.3,29.2,53.6,30.8,53.1,32z M65.3,13.6c-1,2.3-3.9,2.9-5.6,1.1c-1-1-1.3-2.5-0.8-3.8c1-2.3,3.9-2.9,5.6-1.1
	C65.5,10.8,65.8,12.3,65.3,13.6z"/>
</svg>
