<!-- Generator: Adobe Illustrator 18.1.1, SVG Export Plug-In  -->
<svg version="1.1"
	 xmlns="http://www.w3.org/2000/svg" xmlns:xlink="http://www.w3.org/1999/xlink" xmlns:a="http://ns.adobe.com/AdobeSVGViewerExtensions/3.0/"
	 x="0px" y="0px" width="22.1px" height="116.2px" viewBox="0 0 22.1 116.2" enable-background="new 0 0 22.1 116.2"
	 xml:space="preserve">
<defs>
</defs>
<path fill="#726759" d="M0,10.9l0.3,94.4c0,6,4.9,10.9,10.9,10.8h0c6,0,10.9-4.9,10.8-10.9l-0.3-94.4c0-6-4.9-10.9-10.9-10.8l0,0
	C4.8,0,0,4.9,0,10.9z M14.7,105.3c0,1.9-1.5,3.5-3.4,3.5c-1.9,0-3.5-1.5-3.5-3.4c0-1.9,1.5-3.5,3.4-3.5
	C13.1,101.9,14.7,103.4,14.7,105.3z M14.6,83.6c0,1.9-1.5,3.5-3.4,3.5c-1.9,0-3.5-1.5-3.5-3.4c0-1.9,1.5-3.5,3.4-3.5
	C13,80.2,14.6,81.7,14.6,83.6z M14.5,57.3c0,1.9-1.5,3.5-3.4,3.5c-1.9,0-3.5-1.5-3.5-3.4c0-1.9,1.5-3.5,3.4-3.5
	C13,53.9,14.5,55.4,14.5,57.3z M14.4,34.7c0,1.9-1.5,3.5-3.4,3.5c-1.9,0-3.5-1.5-3.5-3.4c0-1.9,1.5-3.5,3.4-3.5
	C12.9,31.2,14.4,32.8,14.4,34.7z M14.3,12.5c0,1.9-1.5,3.5-3.4,3.5c-1.9,0-3.5-1.5-3.5-3.4c0-1.9,1.5-3.5,3.4-3.5
	C12.8,9.1,14.3,10.6,14.3,12.5z"/>
</svg>
