<!-- Generator: Adobe Illustrator 18.1.1, SVG Export Plug-In  -->
<svg version="1.1"
	 xmlns="http://www.w3.org/2000/svg" xmlns:xlink="http://www.w3.org/1999/xlink" xmlns:a="http://ns.adobe.com/AdobeSVGViewerExtensions/3.0/"
	 x="0px" y="0px" width="21.8px" height="116.2px" viewBox="0 0 21.8 116.2" enable-background="new 0 0 21.8 116.2"
	 xml:space="preserve">
<defs>
</defs>
<path fill="#A5A6A9" d="M0,10.9l0,94.4c0,6,4.9,10.9,10.9,10.9h0c6,0,10.9-4.9,10.9-10.9l0-94.4c0-6-4.9-10.9-10.9-10.9l0,0
	C4.9,0,0,4.9,0,10.9z M14.3,104.6c0.5,2.4-1.6,4.5-4.1,4.1c-1.4-0.3-2.5-1.4-2.7-2.7c-0.5-2.4,1.6-4.5,4.1-4.1
	C12.9,102.2,14,103.3,14.3,104.6z M14.3,83c0.5,2.4-1.6,4.5-4.1,4.1c-1.4-0.3-2.5-1.4-2.7-2.7c-0.5-2.4,1.6-4.5,4.1-4.1
	C12.9,80.5,14,81.6,14.3,83z M14.3,56.7c0.5,2.4-1.6,4.5-4.1,4.1c-1.3-0.3-2.5-1.4-2.7-2.7c-0.5-2.4,1.6-4.5,4.1-4.1
	C12.9,54.2,14,55.3,14.3,56.7z M14.3,34c0.5,2.4-1.6,4.5-4.1,4.1c-1.4-0.3-2.5-1.4-2.7-2.7c-0.5-2.4,1.6-4.5,4.1-4.1
	C12.9,31.6,14,32.7,14.3,34z M14.3,11.9c0.5,2.4-1.6,4.5-4.1,4.1c-1.3-0.3-2.5-1.4-2.7-2.7C7,10.8,9.1,8.7,11.6,9.1
	C12.9,9.4,14,10.5,14.3,11.9z"/>
</svg>
