<!-- Generator: Adobe Illustrator 18.1.1, SVG Export Plug-In  -->
<svg version="1.1"
	 xmlns="http://www.w3.org/2000/svg" xmlns:xlink="http://www.w3.org/1999/xlink" xmlns:a="http://ns.adobe.com/AdobeSVGViewerExtensions/3.0/"
	 x="0px" y="0px" width="89px" height="89px" viewBox="0 0 89 89" enable-background="new 0 0 89 89" xml:space="preserve">
<defs>
</defs>
<path fill="#B3B5B7" d="M10.5,0C4.7,0,0,4.7,0,10.5S4.7,21,10.5,21C42.2,21,68,46.8,68,78.5C68,84.3,72.7,89,78.5,89
	S89,84.3,89,78.5C89,35.2,53.8,0,10.5,0z M10.5,14C8.6,14,7,12.4,7,10.5C7,8.6,8.6,7,10.5,7c1.9,0,3.5,1.6,3.5,3.5
	C14,12.4,12.4,14,10.5,14z M31.5,13.7c-0.4,1.6-1.8,2.6-3.4,2.6c-0.3,0-0.6,0-0.9-0.1c-1.9-0.5-3-2.4-2.5-4.3c0.5-1.9,2.4-3,4.3-2.5
	C30.9,9.9,32,11.8,31.5,13.7z M47.5,21.3c-0.7,1.1-1.8,1.8-3,1.8c-0.6,0-1.2-0.1-1.8-0.5c-1.7-1-2.2-3.1-1.3-4.8
	c1-1.7,3.1-2.2,4.8-1.3C47.9,17.5,48.5,19.7,47.5,21.3z M61,32.9c-0.7,0.7-1.6,1-2.5,1c-0.9,0-1.8-0.4-2.5-1c-1.4-1.4-1.4-3.6,0-4.9
	c1.4-1.4,3.6-1.4,5,0c0,0,0,0,0,0C62.4,29.3,62.4,31.5,61,32.9z M71.1,47.5C70.6,47.8,70,48,69.4,48c-1.2,0-2.4-0.6-3-1.8
	c-1-1.7-0.4-3.8,1.3-4.8c1.7-1,3.8-0.4,4.8,1.3C73.4,44.4,72.8,46.5,71.1,47.5z M72.8,61.7c-0.5-1.9,0.6-3.8,2.5-4.3
	c1.9-0.5,3.8,0.6,4.3,2.5c0.5,1.9-0.6,3.8-2.5,4.3c-0.3,0.1-0.6,0.1-0.9,0.1C74.7,64.3,73.2,63.3,72.8,61.7z M78.5,81.9
	c-1.9,0-3.5-1.6-3.5-3.5c0-1.9,1.6-3.5,3.5-3.5c1.9,0,3.5,1.6,3.5,3.5C82,80.4,80.5,81.9,78.5,81.9z"/>
</svg>
