<!-- Generator: Adobe Illustrator 18.1.1, SVG Export Plug-In  -->
<svg version="1.1"
	 xmlns="http://www.w3.org/2000/svg" xmlns:xlink="http://www.w3.org/1999/xlink" xmlns:a="http://ns.adobe.com/AdobeSVGViewerExtensions/3.0/"
	 x="0px" y="0px" width="89px" height="89px" viewBox="0 0 89 89" enable-background="new 0 0 89 89" xml:space="preserve">
<defs>
</defs>
<path fill="#B3B5B7" d="M89,10.5C89,4.7,84.3,0,78.5,0S68,4.7,68,10.5C68,42.2,42.2,68,10.5,68C4.7,68,0,72.7,0,78.5S4.7,89,10.5,89
	C53.8,89,89,53.8,89,10.5z M75,10.5C75,8.6,76.6,7,78.5,7c1.9,0,3.5,1.6,3.5,3.5c0,1.9-1.6,3.5-3.5,3.5C76.6,14,75,12.4,75,10.5z
	 M75.3,31.5c-1.6-0.4-2.6-1.8-2.6-3.4c0-0.3,0-0.6,0.1-0.9c0.5-1.9,2.4-3,4.3-2.5c1.9,0.5,3,2.4,2.5,4.3
	C79.1,30.9,77.2,32,75.3,31.5z M67.7,47.5c-1.1-0.7-1.8-1.8-1.8-3c0-0.6,0.1-1.2,0.5-1.8c1-1.7,3.1-2.2,4.8-1.3
	c1.7,1,2.2,3.1,1.3,4.8C71.5,47.9,69.3,48.5,67.7,47.5z M56.1,61c-0.7-0.7-1-1.6-1-2.5c0-0.9,0.4-1.8,1-2.5c1.4-1.4,3.6-1.4,4.9,0
	c1.4,1.4,1.4,3.6,0,5c0,0,0,0,0,0C59.7,62.4,57.5,62.4,56.1,61z M41.5,71.1c-0.3-0.6-0.5-1.2-0.5-1.8c0-1.2,0.6-2.4,1.8-3
	c1.7-1,3.8-0.4,4.8,1.3c1,1.7,0.4,3.8-1.3,4.8C44.6,73.4,42.5,72.8,41.5,71.1z M27.3,72.8c1.9-0.5,3.8,0.6,4.3,2.5
	c0.5,1.9-0.6,3.8-2.5,4.3c-1.9,0.5-3.8-0.6-4.3-2.5c-0.1-0.3-0.1-0.6-0.1-0.9C24.7,74.7,25.7,73.2,27.3,72.8z M7.1,78.5
	c0-1.9,1.6-3.5,3.5-3.5c1.9,0,3.5,1.6,3.5,3.5c0,1.9-1.6,3.5-3.5,3.5C8.6,82,7.1,80.5,7.1,78.5z"/>
</svg>
