<!-- Generator: Adobe Illustrator 18.1.1, SVG Export Plug-In  -->
<svg version="1.1"
	 xmlns="http://www.w3.org/2000/svg" xmlns:xlink="http://www.w3.org/1999/xlink" xmlns:a="http://ns.adobe.com/AdobeSVGViewerExtensions/3.0/"
	 x="0px" y="0px" width="123.3px" height="21px" viewBox="0 0 123.3 21" enable-background="new 0 0 123.3 21" xml:space="preserve"
	>
<defs>
</defs>
<path fill="#939598" d="M112.8,0L10.5,0C4.7,0,0,4.7,0,10.5v0C0,16.3,4.7,21,10.5,21h102.3c5.8,0,10.5-4.7,10.5-10.5v0
	C123.3,4.7,118.6,0,112.8,0z M10.7,14c-1.9,0-3.5-1.6-3.5-3.5C7.2,8.6,8.8,7,10.7,7c1.9,0,3.5,1.6,3.5,3.5
	C14.2,12.4,12.6,14,10.7,14z M27.7,14c-1.9,0-3.5-1.6-3.5-3.5c0-1.9,1.6-3.5,3.5-3.5c1.9,0,3.5,1.6,3.5,3.5
	C31.2,12.4,29.6,14,27.7,14z M44.7,14c-1.9,0-3.5-1.6-3.5-3.5c0-1.9,1.6-3.5,3.5-3.5c1.9,0,3.5,1.6,3.5,3.5
	C48.2,12.4,46.6,14,44.7,14z M61.7,14c-1.9,0-3.5-1.6-3.5-3.5c0-1.9,1.6-3.5,3.5-3.5c1.9,0,3.5,1.6,3.5,3.5
	C65.2,12.4,63.6,14,61.7,14z M78.7,14c-1.9,0-3.5-1.6-3.5-3.5c0-1.9,1.6-3.5,3.5-3.5c1.9,0,3.5,1.6,3.5,3.5
	C82.2,12.4,80.6,14,78.7,14z M95.7,14c-1.9,0-3.5-1.6-3.5-3.5c0-1.9,1.6-3.5,3.5-3.5c1.9,0,3.5,1.6,3.5,3.5
	C99.2,12.4,97.6,14,95.7,14z M112.7,14c-1.9,0-3.5-1.6-3.5-3.5c0-1.9,1.6-3.5,3.5-3.5c1.9,0,3.5,1.6,3.5,3.5
	C116.2,12.4,114.6,14,112.7,14z"/>
</svg>
