<!-- Generator: Adobe Illustrator 18.1.1, SVG Export Plug-In  -->
<svg version="1.1"
	 xmlns="http://www.w3.org/2000/svg" xmlns:xlink="http://www.w3.org/1999/xlink" xmlns:a="http://ns.adobe.com/AdobeSVGViewerExtensions/3.0/"
	 x="0px" y="0px" width="89px" height="89px" viewBox="0 0 89 89" enable-background="new 0 0 89 89" xml:space="preserve">
<defs>
</defs>
<path fill="#B3B5B7" d="M78.5,89C84.3,89,89,84.3,89,78.5S84.3,68,78.5,68C46.8,68,21,42.2,21,10.5C21,4.7,16.3,0,10.5,0
	C4.7,0,0,4.7,0,10.5C0,53.8,35.2,89,78.5,89z M78.5,75c1.9,0,3.5,1.6,3.5,3.5c0,1.9-1.6,3.5-3.5,3.5c-1.9,0-3.5-1.6-3.5-3.5
	C75,76.6,76.6,75,78.5,75z M57.5,75.3c0.4-1.6,1.8-2.6,3.4-2.6c0.3,0,0.6,0,0.9,0.1c1.9,0.5,3,2.4,2.5,4.3c-0.5,1.9-2.4,3-4.3,2.5
	C58.1,79.1,57,77.2,57.5,75.3z M41.5,67.7c0.7-1.1,1.8-1.8,3-1.8c0.6,0,1.2,0.1,1.8,0.5c1.7,1,2.2,3.1,1.3,4.8
	c-1,1.7-3.1,2.2-4.8,1.3C41.1,71.5,40.5,69.3,41.5,67.7z M28,56.1c0.7-0.7,1.6-1,2.5-1c0.9,0,1.8,0.4,2.5,1c1.4,1.4,1.4,3.6,0,4.9
	c-1.4,1.4-3.6,1.4-5,0c0,0,0,0,0,0C26.6,59.7,26.6,57.5,28,56.1z M17.9,41.5c0.6-0.3,1.2-0.5,1.8-0.5c1.2,0,2.4,0.6,3,1.8
	c1,1.7,0.4,3.8-1.3,4.8c-1.7,1-3.8,0.4-4.8-1.3C15.6,44.6,16.2,42.5,17.9,41.5z M16.2,27.3c0.5,1.9-0.6,3.8-2.5,4.3
	c-1.9,0.5-3.8-0.6-4.3-2.5c-0.5-1.9,0.6-3.8,2.5-4.3c0.3-0.1,0.6-0.1,0.9-0.1C14.4,24.7,15.8,25.7,16.2,27.3z M10.5,7.1
	c1.9,0,3.5,1.6,3.5,3.5c0,1.9-1.6,3.5-3.5,3.5c-1.9,0-3.5-1.6-3.5-3.5C7,8.6,8.6,7.1,10.5,7.1z"/>
</svg>
