<!-- Generator: Adobe Illustrator 18.1.1, SVG Export Plug-In  -->
<svg version="1.1"
	 xmlns="http://www.w3.org/2000/svg" xmlns:xlink="http://www.w3.org/1999/xlink" xmlns:a="http://ns.adobe.com/AdobeSVGViewerExtensions/3.0/"
	 x="0px" y="0px" width="71.7px" height="21px" viewBox="0 0 71.7 21" enable-background="new 0 0 71.7 21" xml:space="preserve">
<defs>
</defs>
<path fill="#939598" d="M61.2,0L10.5,0C4.7,0,0,4.7,0,10.5v0C0,16.3,4.7,21,10.5,21h50.7c5.8,0,10.5-4.7,10.5-10.5v0
	C71.7,4.7,67,0,61.2,0z M10,14c-1.9,0-3.5-1.6-3.5-3.5C6.5,8.6,8.1,7,10,7c1.9,0,3.5,1.6,3.5,3.5C13.5,12.4,12,14,10,14z M27,14
	c-1.9,0-3.5-1.6-3.5-3.5C23.5,8.6,25.1,7,27,7c1.9,0,3.5,1.6,3.5,3.5C30.5,12.4,29,14,27,14z M44,14c-1.9,0-3.5-1.6-3.5-3.5
	C40.5,8.6,42.1,7,44,7c1.9,0,3.5,1.6,3.5,3.5C47.5,12.4,46,14,44,14z M61,14c-1.9,0-3.5-1.6-3.5-3.5C57.5,8.6,59.1,7,61,7
	c1.9,0,3.5,1.6,3.5,3.5C64.5,12.4,63,14,61,14z"/>
</svg>
