<!-- Generator: Adobe Illustrator 18.1.1, SVG Export Plug-In  -->
<svg version="1.1"
	 xmlns="http://www.w3.org/2000/svg" xmlns:xlink="http://www.w3.org/1999/xlink" xmlns:a="http://ns.adobe.com/AdobeSVGViewerExtensions/3.0/"
	 x="0px" y="0px" width="114.5px" height="247.5px" viewBox="0 0 114.5 247.5" enable-background="new 0 0 114.5 247.5"
	 xml:space="preserve">
<defs>
</defs>
<g>
	<path fill="#66380C" d="M66.4,236.7V19c0-6-4.8-10.8-10.8-10.8h0c-6,0-10.8,4.8-10.8,10.8v217.7c0,6,4.8,10.8,10.8,10.8h0
		C61.5,247.5,66.4,242.7,66.4,236.7z M51.9,21c-0.5-2.4,1.6-4.5,4.1-4.1c1.4,0.3,2.5,1.4,2.7,2.7c0.5,2.4-1.6,4.5-4.1,4.1
		C53.3,23.5,52.2,22.4,51.9,21z M51.9,36.3c-0.5-2.4,1.6-4.5,4.1-4.1c1.4,0.3,2.5,1.4,2.7,2.7c0.5,2.4-1.6,4.5-4.1,4.1
		C53.3,38.8,52.2,37.7,51.9,36.3z M55.3,106.1c-1.3,0-2.4-1.1-2.4-2.4V48.4c0-1.3,1.1-2.4,2.4-2.4h0.6c1.3,0,2.4,1.1,2.4,2.4v55.3
		c0,1.3-1.1,2.4-2.4,2.4H55.3z M51.9,121.3c-0.5-2.4,1.6-4.5,4.1-4.1c1.4,0.3,2.5,1.4,2.7,2.7c0.5,2.4-1.6,4.5-4.1,4.1
		C53.3,123.7,52.2,122.6,51.9,121.3z M51.9,136.6c-0.5-2.4,1.6-4.5,4.1-4.1c1.4,0.3,2.5,1.4,2.7,2.7c0.5,2.4-1.6,4.5-4.1,4.1
		C53.3,139,52.2,137.9,51.9,136.6z M55.3,207.7c-1.3,0-2.4-1.1-2.4-2.4v-55.3c0-1.3,1.1-2.4,2.4-2.4h0.6c1.3,0,2.4,1.1,2.4,2.4v55.3
		c0,1.3-1.1,2.4-2.4,2.4H55.3z M51.9,220.2c-0.5-2.4,1.6-4.5,4.1-4.1c1.4,0.3,2.5,1.4,2.7,2.7c0.5,2.4-1.6,4.5-4.1,4.1
		C53.3,222.7,52.2,221.6,51.9,220.2z M51.9,235.5c-0.5-2.4,1.6-4.5,4.1-4.1c1.4,0.3,2.5,1.4,2.7,2.7c0.5,2.4-1.6,4.5-4.1,4.1
		C53.3,238,52.2,236.9,51.9,235.5z"/>
	<path fill="#855117" d="M94.7,4.8L47.5,74.5c-3.3,4.9-2.1,11.7,2.9,15l0,0c4.9,3.3,11.7,2.1,15-2.9l47.2-69.8
		c3.3-4.9,2.1-11.7-2.9-15l0,0C104.8-1.5,98-0.2,94.7,4.8z M59.5,82.5c-1,2.3-3.9,2.8-5.6,1.1c-1-1-1.3-2.5-0.7-3.8
		c1-2.3,3.9-2.8,5.6-1.1C59.8,79.7,60.1,81.2,59.5,82.5z M96.6,21.7c1.1,0.8,1.4,2.3,0.7,3.4l-31,45.8c-0.8,1.1-2.3,1.4-3.4,0.7
		l-0.5-0.4c-1.1-0.8-1.4-2.3-0.7-3.4l31-45.8c0.8-1.1,2.3-1.4,3.4-0.7L96.6,21.7z M106.4,13.2c-1,2.3-3.9,2.8-5.6,1.1
		c-1-1-1.3-2.5-0.7-3.8c1-2.3,3.9-2.8,5.6-1.1C106.7,10.4,106.9,11.9,106.4,13.2z"/>
	<path fill="#855117" d="M65,116.4L19.9,45.2c-3.2-5-9.9-6.5-14.9-3.4l0,0c-5,3.2-6.5,9.9-3.4,14.9L46.8,128c3.2,5,9.9,6.5,14.9,3.4
		h0C66.7,128.1,68.2,121.5,65,116.4z M7.4,52.6c-1-1.6-0.5-3.7,1.1-4.8s3.7-0.5,4.8,1.1c1,1.6,0.5,3.7-1.1,4.8S8.5,54.2,7.4,52.6z
		 M48.7,111.4c-1.1,0.7-2.6,0.4-3.4-0.8L15.8,63.9c-0.7-1.1-0.4-2.6,0.8-3.4l0.5-0.3c1.1-0.7,2.6-0.4,3.4,0.8L50,107.7
		c0.7,1.1,0.4,2.6-0.8,3.4L48.7,111.4z M52.2,123.2c-1-1.6-0.5-3.7,1.1-4.8c1.6-1,3.7-0.5,4.8,1.1c1,1.6,0.5,3.7-1.1,4.8
		C55.3,125.3,53.2,124.9,52.2,123.2z"/>
	<g>
		
			<linearGradient id="SVGID_1_" gradientUnits="userSpaceOnUse" x1="532.7079" y1="1980.4655" x2="541.9604" y2="1980.4655" gradientTransform="matrix(0.881 0.473 -0.473 0.881 518.9556 -1918.2047)">
			<stop  offset="0.2991" style="stop-color:#231F20"/>
			<stop  offset="0.5038" style="stop-color:#ADAFB1"/>
			<stop  offset="0.7105" style="stop-color:#231F20"/>
		</linearGradient>
		<circle fill="url(#SVGID_1_)" cx="55.6" cy="80.9" r="4.6"/>
		<g>
			<path fill="#A6A8AB" d="M56.9,76.4c-2.1-0.6-4.4,0.3-5.4,2.2c-1.1,2-0.5,4.4,1.1,5.8L56.9,76.4z"/>
			<path fill="#A6A8AB" d="M58.5,77.3l-4.3,8c2.1,0.6,4.4-0.3,5.4-2.2C60.7,81.1,60.2,78.7,58.5,77.3z"/>
		</g>
	</g>
</g>
</svg>
