<!-- Generator: Adobe Illustrator 18.1.1, SVG Export Plug-In  -->
<svg version="1.1"
	 xmlns="http://www.w3.org/2000/svg" xmlns:xlink="http://www.w3.org/1999/xlink" xmlns:a="http://ns.adobe.com/AdobeSVGViewerExtensions/3.0/"
	 x="0px" y="0px" width="70.8px" height="139.5px" viewBox="0 0 70.8 139.5" enable-background="new 0 0 70.8 139.5"
	 xml:space="preserve">
<defs>
</defs>
<path fill="#2BB673" d="M47,3.4c-3-4.1-9-4.6-12.6-1C23.4,13.2,2.6,37.3,0.2,67c-2.4,29.7,14.4,56.7,23.6,69.2c3,4.1,9,4.6,12.6,1
	c11-10.8,31.8-34.9,34.2-64.6C72.9,42.9,56.2,15.8,47,3.4z M24,99.2l-0.5,0.4c-1,0.9-2.5,0.8-3.4-0.1l-11-11.9
	c-0.9-1-0.8-2.5,0.1-3.4l0.5-0.4c1-0.9,2.5-0.8,3.4,0.1l11,11.9C25.1,96.8,25,98.3,24,99.2z M25.9,74.8l-0.5,0.4
	c-1,0.9-2.5,0.8-3.4-0.1L8.8,60.8c-0.9-1-0.8-2.5,0.1-3.4l0.5-0.4c1-0.9,2.5-0.8,3.4,0.1l13.2,14.4C27,72.4,26.9,73.9,25.9,74.8z
	 M27.9,50.1l-0.5,0.4c-1,0.9-2.5,0.8-3.4-0.1l-8.7-9.5c-0.9-1-0.8-2.5,0.1-3.4l0.5-0.4c1-0.9,2.5-0.8,3.4,0.1l8.7,9.5
	C29,47.7,28.9,49.2,27.9,50.1z M39.9,10.4l0.6,0c1.3,0.1,2.3,1.3,2.2,2.6L35,112.9c-0.1,1.3-1.3,2.3-2.6,2.2l-0.6,0
	c-1.3-0.1-2.3-1.3-2.2-2.6l7.8-99.8C37.4,11.3,38.6,10.3,39.9,10.4z M30.6,130.7c-1.9-0.2-3.3-1.8-3.2-3.7c0.2-1.9,1.8-3.3,3.7-3.2
	c1.9,0.2,3.3,1.8,3.2,3.7C34.1,129.5,32.5,130.9,30.6,130.7z M46.4,48.1l10.1-8c1.1-0.8,2.6-0.7,3.4,0.4l0.4,0.5
	c0.8,1.1,0.7,2.6-0.4,3.4l-10.1,8c-1.1,0.8-2.6,0.7-3.4-0.4L46,51.5C45.2,50.5,45.4,49,46.4,48.1z M58.7,91.5l-12.7,10
	c-1.1,0.8-2.6,0.7-3.4-0.4l-0.4-0.5c-0.8-1.1-0.7-2.6,0.4-3.4l12.7-10c1.1-0.8,2.6-0.7,3.4,0.4l0.4,0.5
	C59.9,89.2,59.7,90.7,58.7,91.5z M47.9,77.2c-1.1,0.8-2.6,0.7-3.4-0.4l-0.4-0.5c-0.8-1.1-0.7-2.6,0.4-3.4l15.3-12.1
	c1.1-0.8,2.6-0.7,3.4,0.4l0.4,0.5c0.8,1.1,0.7,2.6-0.4,3.4L47.9,77.2z"/>
</svg>
