<!-- Generator: Adobe Illustrator 18.1.1, SVG Export Plug-In  -->
<svg version="1.1"
	 xmlns="http://www.w3.org/2000/svg" xmlns:xlink="http://www.w3.org/1999/xlink" xmlns:a="http://ns.adobe.com/AdobeSVGViewerExtensions/3.0/"
	 x="0px" y="0px" width="120.4px" height="86.1px" viewBox="0 0 120.4 86.1" enable-background="new 0 0 120.4 86.1"
	 xml:space="preserve">
<defs>
</defs>
<path fill="#528718" d="M7.2,1.5c-5,0.7-8.3,5.8-6.8,10.7C4.7,27,16.1,56.7,41.1,72.8c25,16.1,56.8,14.1,72.1,11.8
	c5-0.7,8.3-5.8,6.8-10.7c-4.3-14.9-15.8-44.5-40.8-60.6C54.2-2.7,22.5-0.7,7.2,1.5z M80.8,67l0.2,0.6c0.3,1.3-0.4,2.6-1.8,3l-15.7,4
	c-1.3,0.3-2.6-0.4-3-1.8l-0.2-0.6c-0.3-1.3,0.4-2.6,1.8-3l15.7-4C79.1,64.9,80.5,65.7,80.8,67z M60.2,53.8l0.2,0.6
	c0.3,1.3-0.4,2.6-1.8,3l-18.9,4.9c-1.3,0.3-2.6-0.4-3-1.8l-0.2-0.6c-0.3-1.3,0.4-2.6,1.8-3L57.2,52C58.6,51.7,59.9,52.5,60.2,53.8z
	 M39.3,40.4l0.2,0.6c0.3,1.3-0.4,2.6-1.8,3l-12.5,3.2c-1.3,0.3-2.6-0.4-3-1.8l-0.2-0.6c-0.3-1.3,0.4-2.6,1.8-3l12.5-3.2
	C37.7,38.3,39,39.1,39.3,40.4z M10,11.1l0.3-0.5c0.7-1.1,2.2-1.5,3.4-0.7l84.4,54c1.1,0.7,1.5,2.2,0.7,3.4l-0.3,0.5
	c-0.7,1.1-2.2,1.5-3.4,0.7l-84.4-54C9.6,13.7,9.3,12.2,10,11.1z M111.7,76.1c-1,1.6-3.2,2.1-4.8,1s-2.1-3.2-1-4.8s3.2-2.1,4.8-1
	C112.3,72.4,112.7,74.5,111.7,76.1z M46.3,23.1l-2.3-12.7c-0.2-1.3,0.6-2.6,2-2.8l0.6-0.1c1.3-0.2,2.6,0.6,2.8,2l2.3,12.7
	c0.2,1.3-0.6,2.6-2,2.8l-0.6,0.1C47.8,25.3,46.6,24.4,46.3,23.1z M90.4,32.8l2.9,15.9c0.2,1.3-0.6,2.6-2,2.8l-0.6,0.1
	c-1.3,0.2-2.6-0.6-2.8-2l-2.9-15.9c-0.2-1.3,0.6-2.6,2-2.8l0.6-0.1C88.9,30.6,90.1,31.5,90.4,32.8z M72.6,35.5
	c0.2,1.3-0.6,2.6-2,2.8L70,38.5c-1.3,0.2-2.6-0.6-2.8-2l-3.4-19.2c-0.2-1.3,0.6-2.6,2-2.8l0.6-0.1c1.3-0.2,2.6,0.6,2.8,2L72.6,35.5z
	"/>
</svg>
