<!-- Generator: Adobe Illustrator 18.1.1, SVG Export Plug-In  -->
<svg version="1.1"
	 xmlns="http://www.w3.org/2000/svg" xmlns:xlink="http://www.w3.org/1999/xlink" xmlns:a="http://ns.adobe.com/AdobeSVGViewerExtensions/3.0/"
	 x="0px" y="0px" width="90.5px" height="116.1px" viewBox="0 0 90.5 116.1" enable-background="new 0 0 90.5 116.1"
	 xml:space="preserve">
<defs>
</defs>
<path fill="#2BB673" d="M10.7,0.2c-5-1.1-9.8,2.4-10.2,7.5c-1.3,15.4-1.3,47.2,16.3,71.2c17.6,24,47.9,33.6,63,37
	c5,1.1,9.8-2.4,10.2-7.5c1.3-15.4,1.3-47.2-16.3-71.2C56.1,13.2,25.8,3.6,10.7,0.2z M55.8,87.8l-0.1,0.6c-0.2,1.3-1.4,2.3-2.7,2.1
	L37,88.7c-1.3-0.2-2.3-1.4-2.1-2.7l0.1-0.6c0.2-1.3,1.4-2.3,2.7-2.1l16.1,1.9C55,85.3,56,86.5,55.8,87.8z M41.4,68.1l-0.1,0.6
	C41.2,70,40,71,38.6,70.8l-19.4-2.2c-1.3-0.2-2.3-1.4-2.1-2.7l0.1-0.6c0.2-1.3,1.4-2.3,2.7-2.1l19.4,2.2
	C40.6,65.5,41.5,66.7,41.4,68.1z M26.7,48.1l-0.1,0.6C26.5,50,25.3,51,24,50.8l-12.8-1.5C9.8,49.2,8.9,48,9,46.6L9.1,46
	c0.2-1.3,1.4-2.3,2.7-2.1l12.8,1.5C25.9,45.5,26.9,46.7,26.7,48.1z M9.9,10.2l0.5-0.4c1.1-0.8,2.6-0.6,3.4,0.5L73.1,91
	c0.8,1.1,0.6,2.6-0.5,3.4l-0.5,0.4c-1.1,0.8-2.6,0.6-3.4-0.5L9.4,13.6C8.6,12.5,8.8,11,9.9,10.2z M81.4,107.4
	c-1.5,1.1-3.7,0.8-4.8-0.7s-0.8-3.7,0.7-4.8c1.5-1.1,3.7-0.8,4.8,0.7S82.9,106.3,81.4,107.4z M39.5,34.5l2.4-12.7
	c0.3-1.3,1.5-2.2,2.9-1.9l0.6,0.1c1.3,0.3,2.2,1.5,1.9,2.9l-2.4,12.7c-0.3,1.3-1.5,2.2-2.9,1.9l-0.6-0.1
	C40.1,37.1,39.2,35.8,39.5,34.5z M77.1,59.4L74,75.3c-0.3,1.3-1.5,2.2-2.9,1.9l-0.6-0.1c-1.3-0.3-2.2-1.5-1.9-2.9l3.1-15.9
	c0.3-1.3,1.5-2.2,2.9-1.9l0.6,0.1C76.4,56.8,77.3,58,77.1,59.4z M59.5,55.5c-0.3,1.3-1.5,2.2-2.9,1.9L56,57.3
	c-1.3-0.3-2.2-1.5-1.9-2.9l3.7-19.2c0.3-1.3,1.5-2.2,2.9-1.9l0.6,0.1c1.3,0.3,2.2,1.5,1.9,2.9L59.5,55.5z"/>
</svg>
