<!-- Generator: Adobe Illustrator 18.1.1, SVG Export Plug-In  -->
<svg version="1.1"
	 xmlns="http://www.w3.org/2000/svg" xmlns:xlink="http://www.w3.org/1999/xlink" xmlns:a="http://ns.adobe.com/AdobeSVGViewerExtensions/3.0/"
	 x="0px" y="0px" width="27.3px" height="36.4px" viewBox="0 0 27.3 36.4" enable-background="new 0 0 27.3 36.4"
	 xml:space="preserve">
<defs>
</defs>
<path fill="#FFDD00" d="M0.8,14.5l6.3,15.4c2.2,5.4,8.3,7.9,13.7,5.7l0,0c5.4-2.2,7.9-8.3,5.7-13.7L20.2,6.5
	C18,1.2,11.9-1.4,6.5,0.8l0,0C1.2,3-1.4,9.1,0.8,14.5z M19.9,24.5c1.3,2.1,0.2,4.8-2.3,5.3c-1.4,0.3-2.8-0.3-3.6-1.5
	c-1.4-2.1-0.2-4.9,2.3-5.4C17.7,22.7,19.2,23.3,19.9,24.5z M13.5,8.7c1.3,2.1,0.2,4.8-2.3,5.3c-1.4,0.3-2.8-0.3-3.6-1.5
	c-1.4-2.1-0.2-4.9,2.3-5.4C11.3,6.9,12.8,7.6,13.5,8.7z"/>
</svg>
