<!-- Generator: Adobe Illustrator 18.1.1, SVG Export Plug-In  -->
<svg version="1.1"
	 xmlns="http://www.w3.org/2000/svg" xmlns:xlink="http://www.w3.org/1999/xlink" xmlns:a="http://ns.adobe.com/AdobeSVGViewerExtensions/3.0/"
	 x="0px" y="0px" width="101.4px" height="86.4px" viewBox="0 0 101.4 86.4" enable-background="new 0 0 101.4 86.4"
	 xml:space="preserve">
<defs>
</defs>
<g>
	<path fill="#726759" d="M57.8,9.6C57.5,4,52.6-0.3,46.9,0l-1,0.1c-5.7,0.4-10,5.2-9.6,10.9l2.9,45.9c0.4,5.7,5.2,10,10.9,9.6l1-0.1
		c5.7-0.4,10-5.2,9.6-10.9L57.8,9.6z M50.3,11.6c0.6,2.4-1.3,4.6-3.8,4.3c-1.4-0.2-2.5-1.2-2.9-2.5C43,11,45,8.8,47.4,9.1
		C48.8,9.3,49.9,10.3,50.3,11.6z M51.6,32.7c0.6,2.4-1.3,4.6-3.8,4.3c-1.4-0.2-2.5-1.2-2.9-2.5c-0.6-2.4,1.3-4.6,3.8-4.3
		C50.1,30.3,51.3,31.4,51.6,32.7z M46.3,55.6c-0.6-2.4,1.3-4.6,3.8-4.3c1.4,0.2,2.5,1.2,2.9,2.5c0.6,2.4-1.3,4.6-3.8,4.3
		C47.8,57.9,46.6,56.9,46.3,55.6z"/>
	<path fill="#726759" d="M56.1,63.3c5-2.7,6.9-9,4.2-14l-0.5-0.9c-2.7-5-9-6.9-14-4.2L5.4,66.1c-5,2.7-6.9,9-4.2,14L1.7,81
		c2.7,5,9,6.9,14,4.2L56.1,63.3z M51.2,57.3c-1.9,1.6-4.8,0.7-5.5-1.6c-0.4-1.3,0-2.8,1.1-3.7c1.9-1.6,4.8-0.7,5.5,1.6
		C52.7,54.9,52.2,56.4,51.2,57.3z M32.6,67.3c-1.9,1.6-4.8,0.7-5.5-1.6c-0.4-1.3,0-2.8,1.1-3.7c1.9-1.6,4.8-0.7,5.5,1.6
		C34.1,65,33.6,66.5,32.6,67.3z M9.6,72.1c1.9-1.6,4.8-0.7,5.5,1.6c0.4,1.3,0,2.8-1.1,3.7c-1.9,1.6-4.8,0.7-5.5-1.6
		C8.1,74.4,8.5,72.9,9.6,72.1z"/>
	<path fill="#726759" d="M87.2,80.2c5.3,2,11.3-0.8,13.2-6.1l0.4-1c2-5.3-0.8-11.3-6.1-13.2L51.6,44.1c-5.3-2-11.3,0.8-13.2,6.1
		l-0.4,1c-2,5.3,0.8,11.3,6.1,13.2L87.2,80.2z M88.5,72.5c-2.4-0.4-3.7-3.1-2.4-5.2c0.7-1.2,2.1-1.8,3.5-1.6
		c2.4,0.4,3.7,3.1,2.4,5.2C91.2,72.1,89.8,72.8,88.5,72.5z M68.6,65.3c-2.4-0.4-3.7-3.1-2.4-5.2c0.7-1.2,2.1-1.8,3.5-1.6
		c2.4,0.4,3.7,3.1,2.4,5.2C71.4,64.8,70,65.5,68.6,65.3z M49.9,51.2c2.4,0.4,3.7,3.1,2.4,5.2c-0.7,1.2-2.1,1.8-3.5,1.6
		c-2.4-0.4-3.7-3.1-2.4-5.2C47.1,51.6,48.5,50.9,49.9,51.2z"/>
</g>
</svg>
