<!-- Generator: Adobe Illustrator 18.1.1, SVG Export Plug-In  -->
<svg version="1.1"
	 xmlns="http://www.w3.org/2000/svg" xmlns:xlink="http://www.w3.org/1999/xlink" xmlns:a="http://ns.adobe.com/AdobeSVGViewerExtensions/3.0/"
	 x="0px" y="0px" width="21px" height="55.1px" viewBox="0 0 21 55.1" enable-background="new 0 0 21 55.1" xml:space="preserve">
<defs>
</defs>
<path fill="#939598" d="M21,44.6V10.5C21,4.7,16.3,0,10.5,0S0,4.7,0,10.5l0,34.1c0,5.8,4.7,10.5,10.5,10.5S21,50.4,21,44.6z M7,10.5
	C7,8.6,8.6,7,10.5,7c1.9,0,3.5,1.6,3.5,3.5c0,1.9-1.6,3.5-3.5,3.5C8.6,14,7,12.4,7,10.5z M7,27.5c0-1.9,1.6-3.5,3.5-3.5
	c1.9,0,3.5,1.6,3.5,3.5c0,1.9-1.6,3.5-3.5,3.5C8.6,31,7,29.4,7,27.5z M7,44.5c0-1.9,1.6-3.5,3.5-3.5c1.9,0,3.5,1.6,3.5,3.5
	c0,1.9-1.6,3.5-3.5,3.5C8.6,48,7,46.4,7,44.5z"/>
</svg>
