<?xml version="1.0" encoding="UTF-8" standalone="no"?>
<svg width="225px" height="168px" viewBox="0 0 225 168" version="1.1" xmlns="http://www.w3.org/2000/svg" xmlns:xlink="http://www.w3.org/1999/xlink" xmlns:sketch="http://www.bohemiancoding.com/sketch/ns">
    <!-- Generator: Sketch 3.2.2 (9983) - http://www.bohemiancoding.com/sketch -->
    <title>how_1</title>
    <desc>Created with Sketch.</desc>
    <defs></defs>
    <g id="Page-1" stroke="none" stroke-width="1" fill="none" fill-rule="evenodd" sketch:type="MSPage">
        <g id="Artboard-1" sketch:type="MSArtboardGroup" transform="translate(-36.000000, -40.000000)">
            <g id="how_1" sketch:type="MSLayerGroup" transform="translate(36.000000, 40.000000)">
                <path d="M130.522,83.162 L11.408,83.162 C5.609,83.162 0.908,87.864 0.908,93.662 C0.908,99.461 5.609,104.162 11.408,104.162 L130.522,104.162 C136.321,104.162 141.022,99.461 141.022,93.662 C141.022,87.864 136.321,83.162 130.522,83.162 L130.522,83.162 Z M11.405,97.167 C9.475,97.167 7.905,95.597 7.905,93.656 C7.905,91.727 9.475,90.167 11.405,90.167 C13.345,90.167 14.905,91.727 14.905,93.656 C14.905,95.597 13.345,97.167 11.405,97.167 L11.405,97.167 Z M28.405,97.167 C26.475,97.167 24.905,95.597 24.905,93.656 C24.905,91.727 26.475,90.167 28.405,90.167 C30.345,90.167 31.905,91.727 31.905,93.656 C31.905,95.597 30.345,97.167 28.405,97.167 L28.405,97.167 Z M45.405,97.167 C43.475,97.167 41.905,95.597 41.905,93.656 C41.905,91.727 43.475,90.167 45.405,90.167 C47.345,90.167 48.905,91.727 48.905,93.656 C48.905,95.597 47.345,97.167 45.405,97.167 L45.405,97.167 Z M62.405,97.167 C60.475,97.167 58.905,95.597 58.905,93.656 C58.905,91.727 60.475,90.167 62.405,90.167 C64.345,90.167 65.905,91.727 65.905,93.656 C65.905,95.597 64.345,97.167 62.405,97.167 L62.405,97.167 Z M79.405,97.167 C77.475,97.167 75.905,95.597 75.905,93.656 C75.905,91.727 77.475,90.167 79.405,90.167 C81.345,90.167 82.905,91.727 82.905,93.656 C82.905,95.597 81.345,97.167 79.405,97.167 L79.405,97.167 Z M96.405,97.167 C94.475,97.167 92.905,95.597 92.905,93.656 C92.905,91.727 94.475,90.167 96.405,90.167 C98.345,90.167 99.905,91.727 99.905,93.656 C99.905,95.597 98.345,97.167 96.405,97.167 L96.405,97.167 Z M113.405,97.167 C111.475,97.167 109.905,95.597 109.905,93.656 C109.905,91.727 111.475,90.167 113.405,90.167 C115.345,90.167 116.905,91.727 116.905,93.656 C116.905,95.597 115.345,97.167 113.405,97.167 L113.405,97.167 Z M130.405,97.167 C128.475,97.167 126.905,95.597 126.905,93.656 C126.905,91.727 128.475,90.167 130.405,90.167 C132.345,90.167 133.905,91.727 133.905,93.656 C133.905,95.597 132.345,97.167 130.405,97.167 L130.405,97.167 Z" id="Fill-1" fill="#FFFFFF" sketch:type="MSShapeGroup"></path>
                <path d="M130.522,136.991 L11.408,136.991 C5.609,136.991 0.908,141.692 0.908,147.491 C0.908,153.29 5.609,157.991 11.408,157.991 L130.522,157.991 C136.321,157.991 141.022,153.29 141.022,147.491 C141.022,141.692 136.321,136.991 130.522,136.991 L130.522,136.991 Z M11.405,150.987 C9.475,150.987 7.905,149.426 7.905,147.487 C7.905,145.556 9.475,143.987 11.405,143.987 C13.345,143.987 14.905,145.556 14.905,147.487 C14.905,149.426 13.345,150.987 11.405,150.987 L11.405,150.987 Z M28.405,150.987 C26.475,150.987 24.905,149.426 24.905,147.487 C24.905,145.556 26.475,143.987 28.405,143.987 C30.345,143.987 31.905,145.556 31.905,147.487 C31.905,149.426 30.345,150.987 28.405,150.987 L28.405,150.987 Z M45.405,150.987 C43.475,150.987 41.905,149.426 41.905,147.487 C41.905,145.556 43.475,143.987 45.405,143.987 C47.335,143.987 48.905,145.556 48.905,147.487 C48.905,149.426 47.335,150.987 45.405,150.987 L45.405,150.987 Z M62.405,150.987 C60.475,150.987 58.905,149.426 58.905,147.487 C58.905,145.556 60.475,143.987 62.405,143.987 C64.345,143.987 65.905,145.556 65.905,147.487 C65.905,149.426 64.345,150.987 62.405,150.987 L62.405,150.987 Z M79.405,150.987 C77.475,150.987 75.905,149.426 75.905,147.487 C75.905,145.556 77.475,143.987 79.405,143.987 C81.345,143.987 82.905,145.556 82.905,147.487 C82.905,149.426 81.345,150.987 79.405,150.987 L79.405,150.987 Z M96.405,150.987 C94.475,150.987 92.905,149.426 92.905,147.487 C92.905,145.556 94.475,143.987 96.405,143.987 C98.345,143.987 99.905,145.556 99.905,147.487 C99.905,149.426 98.345,150.987 96.405,150.987 L96.405,150.987 Z M113.405,150.987 C111.475,150.987 109.905,149.426 109.905,147.487 C109.905,145.556 111.475,143.987 113.405,143.987 C115.345,143.987 116.905,145.556 116.905,147.487 C116.905,149.426 115.345,150.987 113.405,150.987 L113.405,150.987 Z M130.405,150.987 C128.475,150.987 126.905,149.426 126.905,147.487 C126.905,145.556 128.475,143.987 130.405,143.987 C132.345,143.987 133.905,145.556 133.905,147.487 C133.905,149.426 132.345,150.987 130.405,150.987 L130.405,150.987 Z" id="Fill-2" fill="#FFFFFF" sketch:type="MSShapeGroup"></path>
                <path d="M130.522,30.052 L11.408,30.052 C5.609,30.052 0.908,34.753 0.908,40.552 C0.908,46.35 5.609,51.052 11.408,51.052 L130.522,51.052 C136.321,51.052 141.022,46.35 141.022,40.552 C141.022,34.753 136.321,30.052 130.522,30.052 L130.522,30.052 Z M11.405,44.047 C9.475,44.047 7.905,42.487 7.905,40.557 C7.905,38.617 9.475,37.047 11.405,37.047 C13.345,37.047 14.905,38.617 14.905,40.557 C14.905,42.487 13.345,44.047 11.405,44.047 L11.405,44.047 Z M28.405,44.047 C26.475,44.047 24.905,42.487 24.905,40.557 C24.905,38.617 26.475,37.047 28.405,37.047 C30.345,37.047 31.905,38.617 31.905,40.557 C31.905,42.487 30.345,44.047 28.405,44.047 L28.405,44.047 Z M45.405,44.047 C43.475,44.047 41.905,42.487 41.905,40.557 C41.905,38.617 43.475,37.047 45.405,37.047 C47.345,37.047 48.905,38.617 48.905,40.557 C48.905,42.487 47.345,44.047 45.405,44.047 L45.405,44.047 Z M62.405,44.047 C60.475,44.047 58.905,42.487 58.905,40.557 C58.905,38.617 60.475,37.047 62.405,37.047 C64.345,37.047 65.905,38.617 65.905,40.557 C65.905,42.487 64.345,44.047 62.405,44.047 L62.405,44.047 Z M79.405,44.047 C77.475,44.047 75.905,42.487 75.905,40.557 C75.905,38.617 77.475,37.047 79.405,37.047 C81.345,37.047 82.905,38.617 82.905,40.557 C82.905,42.487 81.345,44.047 79.405,44.047 L79.405,44.047 Z M96.405,44.047 C94.475,44.047 92.905,42.487 92.905,40.557 C92.905,38.617 94.475,37.047 96.405,37.047 C98.335,37.047 99.905,38.617 99.905,40.557 C99.905,42.487 98.335,44.047 96.405,44.047 L96.405,44.047 Z M113.405,44.047 C111.475,44.047 109.905,42.487 109.905,40.557 C109.905,38.617 111.475,37.047 113.405,37.047 C115.345,37.047 116.905,38.617 116.905,40.557 C116.905,42.487 115.345,44.047 113.405,44.047 L113.405,44.047 Z M130.405,44.047 C128.475,44.047 126.905,42.487 126.905,40.557 C126.905,38.617 128.475,37.047 130.405,37.047 C132.345,37.047 133.905,38.617 133.905,40.557 C133.905,42.487 132.345,44.047 130.405,44.047 L130.405,44.047 Z" id="Fill-3" fill="#FFFFFF" sketch:type="MSShapeGroup"></path>
                <path d="M221.623,3.07 C217.554,-0.998 210.957,-0.998 206.888,3.07 L171.013,38.945 C166.944,43.014 166.944,49.611 171.013,53.68 C173.047,55.714 175.714,56.732 178.38,56.732 C181.046,56.732 183.713,55.714 185.747,53.68 L221.623,17.805 C225.691,13.736 225.691,7.139 221.623,3.07 L221.623,3.07 Z M180.84,48.769 C180.155,49.443 179.273,49.781 178.379,49.781 C177.486,49.781 176.603,49.443 175.928,48.769 C174.569,47.409 174.569,45.216 175.928,43.856 C177.278,42.497 179.481,42.497 180.84,43.856 C182.19,45.216 182.19,47.409 180.84,48.769 L180.84,48.769 Z M192.767,36.842 C192.083,37.516 191.199,37.853 190.307,37.853 C189.413,37.853 188.53,37.516 187.856,36.842 C186.496,35.482 186.496,33.289 187.856,31.929 C189.205,30.57 191.408,30.57 192.767,31.929 C194.117,33.289 194.117,35.482 192.767,36.842 L192.767,36.842 Z M204.694,24.914 C204.01,25.588 203.127,25.927 202.233,25.927 C201.351,25.927 200.457,25.588 199.783,24.914 C198.423,23.554 198.423,21.361 199.783,20.002 C201.132,18.642 203.335,18.642 204.694,20.002 C206.044,21.361 206.044,23.554 204.694,24.914 L204.694,24.914 Z M216.622,12.987 C215.937,13.661 215.054,13.999 214.161,13.999 C213.278,13.999 212.385,13.661 211.71,12.987 C210.351,11.627 210.351,9.425 211.71,8.075 C213.06,6.716 215.262,6.716 216.622,8.075 C217.971,9.425 217.971,11.627 216.622,12.987 L216.622,12.987 Z" id="Fill-4" fill="#D7DF23" sketch:type="MSShapeGroup"></path>
                <path d="M185.755,39.004 L173.798,27.046 C169.73,22.979 163.132,22.979 159.064,27.046 C154.994,31.115 154.994,37.712 159.063,41.781 L171.02,53.739 C173.055,55.773 175.721,56.791 178.388,56.791 C181.054,56.791 183.721,55.773 185.755,53.739 C189.823,49.67 189.824,43.073 185.755,39.004 L185.755,39.004 Z M168.886,36.869 C168.211,37.544 167.318,37.882 166.426,37.882 C165.542,37.882 164.649,37.544 163.975,36.869 C162.615,35.51 162.615,33.317 163.975,31.957 C165.334,30.598 167.527,30.598 168.886,31.957 C170.246,33.317 170.246,35.51 168.886,36.869 L168.886,36.869 Z M180.814,48.797 C180.139,49.472 179.246,49.818 178.363,49.818 C177.47,49.818 176.577,49.472 175.902,48.797 C174.542,47.437 174.542,45.245 175.902,43.885 C177.261,42.525 179.454,42.525 180.814,43.885 C182.173,45.245 182.173,47.437 180.814,48.797 L180.814,48.797 Z" id="Fill-5" fill="#D7DF23" sketch:type="MSShapeGroup"></path>
                <path d="M221.623,57.828 C217.554,53.76 210.957,53.76 206.888,57.828 L171.013,93.703 C166.944,97.772 166.944,104.369 171.013,108.438 C173.047,110.472 175.714,111.489 178.38,111.489 C181.046,111.489 183.713,110.472 185.747,108.438 L221.623,72.562 C225.691,68.494 225.691,61.896 221.623,57.828 L221.623,57.828 Z M180.84,103.526 C180.155,104.2 179.273,104.539 178.379,104.539 C177.486,104.539 176.603,104.2 175.928,103.526 C174.569,102.166 174.569,99.974 175.928,98.614 C177.278,97.254 179.481,97.254 180.84,98.614 C182.19,99.974 182.19,102.166 180.84,103.526 L180.84,103.526 Z M192.767,91.599 C192.083,92.274 191.199,92.611 190.307,92.611 C189.413,92.611 188.53,92.274 187.856,91.599 C186.496,90.24 186.496,88.047 187.856,86.687 C189.205,85.327 191.408,85.327 192.767,86.687 C194.117,88.047 194.117,90.24 192.767,91.599 L192.767,91.599 Z M204.694,79.671 C204.01,80.346 203.127,80.684 202.233,80.684 C201.351,80.684 200.457,80.346 199.783,79.671 C198.423,78.312 198.423,76.119 199.783,74.76 C201.132,73.4 203.335,73.4 204.694,74.76 C206.044,76.119 206.044,78.312 204.694,79.671 L204.694,79.671 Z M216.622,67.745 C215.937,68.419 215.054,68.756 214.161,68.756 C213.278,68.756 212.385,68.419 211.71,67.745 C210.351,66.385 210.351,64.182 211.71,62.833 C213.06,61.473 215.262,61.473 216.622,62.833 C217.971,64.182 217.971,66.385 216.622,67.745 L216.622,67.745 Z" id="Fill-6" fill="#D7DF23" sketch:type="MSShapeGroup"></path>
                <path d="M185.755,93.762 L173.798,81.804 C169.73,77.737 163.132,77.737 159.064,81.804 C154.994,85.873 154.994,92.47 159.063,96.539 L171.02,108.497 C173.055,110.53 175.721,111.548 178.388,111.548 C181.054,111.548 183.721,110.53 185.755,108.497 C189.823,104.428 189.824,97.83 185.755,93.762 L185.755,93.762 Z M168.886,91.627 C168.211,92.302 167.318,92.64 166.426,92.64 C165.542,92.64 164.649,92.302 163.975,91.627 C162.615,90.267 162.615,88.074 163.975,86.715 C165.334,85.355 167.527,85.355 168.886,86.715 C170.246,88.074 170.246,90.267 168.886,91.627 L168.886,91.627 Z M180.814,103.555 C180.139,104.229 179.246,104.576 178.363,104.576 C177.47,104.576 176.577,104.229 175.902,103.555 C174.542,102.195 174.542,100.002 175.902,98.643 C177.261,97.283 179.454,97.283 180.814,98.643 C182.173,100.002 182.173,102.195 180.814,103.555 L180.814,103.555 Z" id="Fill-7" fill="#D7DF23" sketch:type="MSShapeGroup"></path>
                <path d="M221.623,113.476 C217.554,109.408 210.957,109.408 206.888,113.476 L171.013,149.351 C166.944,153.42 166.944,160.017 171.013,164.086 C173.047,166.12 175.714,167.137 178.38,167.137 C181.046,167.137 183.713,166.12 185.747,164.086 L221.623,128.211 C225.691,124.142 225.691,117.544 221.623,113.476 L221.623,113.476 Z M180.84,159.174 C180.155,159.849 179.273,160.187 178.379,160.187 C177.486,160.187 176.603,159.849 175.928,159.174 C174.569,157.815 174.569,155.622 175.928,154.262 C177.278,152.902 179.481,152.902 180.84,154.262 C182.19,155.622 182.19,157.815 180.84,159.174 L180.84,159.174 Z M192.767,147.247 C192.083,147.922 191.199,148.259 190.307,148.259 C189.413,148.259 188.53,147.922 187.856,147.247 C186.496,145.888 186.496,143.695 187.856,142.335 C189.205,140.976 191.408,140.976 192.767,142.335 C194.117,143.695 194.117,145.888 192.767,147.247 L192.767,147.247 Z M204.694,135.319 C204.01,135.994 203.127,136.332 202.233,136.332 C201.351,136.332 200.457,135.994 199.783,135.319 C198.423,133.96 198.423,131.767 199.783,130.408 C201.132,129.048 203.335,129.048 204.694,130.408 C206.044,131.767 206.044,133.96 204.694,135.319 L204.694,135.319 Z M216.622,123.393 C215.937,124.067 215.054,124.404 214.161,124.404 C213.278,124.404 212.385,124.067 211.71,123.393 C210.351,122.033 210.351,119.831 211.71,118.481 C213.06,117.121 215.262,117.121 216.622,118.481 C217.971,119.831 217.971,122.033 216.622,123.393 L216.622,123.393 Z" id="Fill-8" fill="#D7DF23" sketch:type="MSShapeGroup"></path>
                <path d="M185.755,149.41 L173.798,137.452 C169.73,133.385 163.132,133.385 159.064,137.452 C154.994,141.521 154.994,148.118 159.063,152.187 L171.02,164.145 C173.055,166.179 175.721,167.196 178.388,167.196 C181.054,167.196 183.721,166.179 185.755,164.145 C189.823,160.076 189.824,153.479 185.755,149.41 L185.755,149.41 Z M168.886,147.275 C168.211,147.95 167.318,148.288 166.426,148.288 C165.542,148.288 164.649,147.95 163.975,147.275 C162.615,145.915 162.615,143.723 163.975,142.363 C165.334,141.004 167.527,141.004 168.886,142.363 C170.246,143.723 170.246,145.915 168.886,147.275 L168.886,147.275 Z M180.814,159.203 C180.139,159.877 179.246,160.224 178.363,160.224 C177.47,160.224 176.577,159.877 175.902,159.203 C174.542,157.843 174.542,155.651 175.902,154.291 C177.261,152.931 179.454,152.931 180.814,154.291 C182.173,155.651 182.173,157.843 180.814,159.203 L180.814,159.203 Z" id="Fill-9" fill="#D7DF23" sketch:type="MSShapeGroup"></path>
            </g>
        </g>
    </g>
</svg>