<?xml version="1.0" encoding="UTF-8" standalone="no"?>
<svg width="323px" height="186px" viewBox="0 0 323 186" version="1.1" xmlns="http://www.w3.org/2000/svg" xmlns:xlink="http://www.w3.org/1999/xlink" xmlns:sketch="http://www.bohemiancoding.com/sketch/ns">
    <!-- Generator: Sketch 3.2.2 (9983) - http://www.bohemiancoding.com/sketch -->
    <title>how_3</title>
    <desc>Created with Sketch.</desc>
    <defs></defs>
    <g id="Page-1" stroke="none" stroke-width="1" fill="none" fill-rule="evenodd" sketch:type="MSPage">
        <g id="Artboard-1" sketch:type="MSArtboardGroup" transform="translate(-624.000000, -48.000000)">
            <g id="how_3" sketch:type="MSLayerGroup" transform="translate(624.000000, 48.000000)">
                <path d="M308.831,1.501 L213.114,57.164 C210.105,58.914 209.084,62.772 210.834,65.782 L215.053,73.037 C216.803,76.046 220.661,77.067 223.671,75.317 L319.388,19.655 C322.398,17.905 323.419,14.046 321.669,11.036 L317.45,3.782 C315.7,0.772 311.841,-0.249 308.831,1.501 L308.831,1.501 Z M223.943,67.055 C222.275,68.025 220.133,67.466 219.158,65.789 C218.188,64.121 218.756,61.974 220.424,61.004 C222.093,60.033 224.239,60.602 225.209,62.27 C226.184,63.947 225.612,66.084 223.943,67.055 L223.943,67.055 Z M238.639,58.509 C236.962,59.484 234.829,58.92 233.854,57.243 C232.883,55.575 233.443,53.433 235.12,52.458 C236.789,51.487 238.935,52.056 239.905,53.724 C240.88,55.401 240.308,57.538 238.639,58.509 L238.639,58.509 Z M253.334,49.963 C251.658,50.938 249.525,50.374 248.549,48.697 C247.579,47.029 248.139,44.887 249.815,43.912 C251.484,42.941 253.63,43.51 254.601,45.178 C255.576,46.855 255.003,48.992 253.334,49.963 L253.334,49.963 Z M268.03,41.417 C266.354,42.392 264.221,41.828 263.245,40.151 C262.275,38.482 262.835,36.341 264.511,35.366 C266.18,34.395 268.326,34.964 269.296,36.632 C270.272,38.309 269.699,40.446 268.03,41.417 L268.03,41.417 Z M282.726,32.871 C281.049,33.846 278.916,33.282 277.941,31.605 C276.971,29.937 277.53,27.795 279.207,26.82 C280.876,25.849 283.022,26.418 283.992,28.086 C284.968,29.763 284.395,31.9 282.726,32.871 L282.726,32.871 Z M297.422,24.325 C295.745,25.3 293.612,24.736 292.637,23.059 C291.667,21.391 292.226,19.249 293.903,18.274 C295.572,17.303 297.718,17.872 298.688,19.54 C299.663,21.217 299.091,23.354 297.422,24.325 L297.422,24.325 Z M312.117,15.779 C310.441,16.754 308.308,16.19 307.332,14.513 C306.362,12.845 306.922,10.703 308.599,9.728 C310.268,8.757 312.414,9.326 313.384,10.994 C314.359,12.671 313.786,14.808 312.117,15.779 L312.117,15.779 Z" id="Fill-1" fill="#00AEEF" sketch:type="MSShapeGroup"></path>
                <path d="M156.502,22.652 L62.805,107.731 C60.227,110.072 60.035,114.058 62.375,116.636 L68.017,122.849 C70.357,125.426 74.344,125.619 76.921,123.278 L170.619,38.199 C173.197,35.859 173.389,31.872 171.049,29.295 L165.407,23.081 C163.067,20.504 159.08,20.312 156.502,22.652 L156.502,22.652 Z M74.975,115.594 C73.539,116.898 71.329,116.785 70.031,115.356 C68.727,113.92 68.834,111.716 70.269,110.412 C71.699,109.114 73.91,109.215 75.213,110.65 C76.511,112.08 76.404,114.297 74.975,115.594 L74.975,115.594 Z M87.561,104.166 C86.125,105.47 83.915,105.357 82.617,103.928 C81.313,102.492 81.419,100.288 82.855,98.984 C84.284,97.686 86.495,97.787 87.799,99.222 C89.097,100.652 88.99,102.869 87.561,104.166 L87.561,104.166 Z M100.146,92.738 C98.711,94.042 96.5,93.929 95.202,92.5 C93.899,91.064 94.005,88.86 95.441,87.556 C96.87,86.258 99.081,86.359 100.385,87.794 C101.683,89.224 101.576,91.441 100.146,92.738 L100.146,92.738 Z M112.732,81.31 C111.296,82.614 109.086,82.501 107.788,81.072 C106.484,79.636 106.591,77.432 108.027,76.128 C109.456,74.83 111.667,74.931 112.971,76.366 C114.268,77.796 114.162,80.012 112.732,81.31 L112.732,81.31 Z M125.318,69.882 C123.882,71.186 121.672,71.073 120.374,69.644 C119.07,68.208 119.176,66.004 120.612,64.7 C122.042,63.402 124.252,63.502 125.556,64.938 C126.854,66.368 126.747,68.584 125.318,69.882 L125.318,69.882 Z M137.904,58.454 C136.468,59.758 134.258,59.645 132.96,58.216 C131.656,56.78 131.762,54.576 133.198,53.272 C134.627,51.974 136.838,52.074 138.142,53.51 C139.44,54.94 139.333,57.156 137.904,58.454 L137.904,58.454 Z M150.489,47.026 C149.054,48.33 146.843,48.217 145.545,46.788 C144.242,45.352 144.348,43.148 145.784,41.844 C147.213,40.546 149.424,40.646 150.728,42.082 C152.026,43.512 151.919,45.729 150.489,47.026 L150.489,47.026 Z M163.075,35.598 C161.639,36.902 159.429,36.789 158.131,35.36 C156.827,33.924 156.934,31.72 158.369,30.416 C159.799,29.118 162.01,29.218 163.313,30.654 C164.611,32.084 164.504,34.3 163.075,35.598 L163.075,35.598 Z" id="Fill-2" fill="#00AEEF" sketch:type="MSShapeGroup"></path>
                <path d="M230.352,55.371 L160.998,23.737 C157.83,22.292 154.091,23.689 152.646,26.857 L149.164,34.492 C147.719,37.659 149.115,41.399 152.283,42.844 L221.637,74.477 C224.805,75.922 228.544,74.525 229.989,71.358 L233.472,63.722 C234.916,60.555 233.52,56.816 230.352,55.371 L230.352,55.371 Z M158.726,38.094 C156.962,37.289 156.194,35.213 156.999,33.448 C157.8,31.692 159.867,30.921 161.631,31.725 C163.388,32.526 164.169,34.597 163.368,36.352 C162.562,38.118 160.483,38.895 158.726,38.094 L158.726,38.094 Z M174.193,45.149 C172.429,44.344 171.661,42.268 172.466,40.502 C173.267,38.747 175.334,37.975 177.098,38.78 C178.855,39.581 179.636,41.651 178.835,43.407 C178.03,45.173 175.95,45.95 174.193,45.149 L174.193,45.149 Z M189.661,52.204 C187.896,51.399 187.128,49.322 187.933,47.557 C188.734,45.801 190.801,45.03 192.565,45.835 C194.322,46.636 195.103,48.706 194.302,50.462 C193.497,52.227 191.417,53.005 189.661,52.204 L189.661,52.204 Z M205.128,59.258 C203.363,58.454 202.595,56.377 203.4,54.612 C204.201,52.856 206.268,52.085 208.032,52.89 C209.789,53.691 210.57,55.761 209.769,57.517 C208.964,59.282 206.884,60.06 205.128,59.258 L205.128,59.258 Z M220.595,66.313 C218.83,65.508 218.062,63.432 218.867,61.667 C219.668,59.911 221.735,59.14 223.5,59.944 C225.256,60.746 226.037,62.816 225.236,64.571 C224.431,66.337 222.351,67.114 220.595,66.313 L220.595,66.313 Z" id="Fill-3" fill="#00AEEF" sketch:type="MSShapeGroup"></path>
                <path d="M80.691,103.885 L14.489,66.096 C11.465,64.37 7.615,65.422 5.889,68.445 L1.729,75.733 C0.003,78.757 1.055,82.608 4.078,84.334 L70.28,122.123 C73.304,123.849 77.154,122.797 78.88,119.773 L83.04,112.485 C84.766,109.462 83.714,105.611 80.691,103.885 L80.691,103.885 Z M10.926,80.188 C9.241,79.226 8.665,77.089 9.627,75.403 C10.583,73.728 12.712,73.147 14.396,74.108 C16.073,75.065 16.662,77.198 15.706,78.874 C14.744,80.559 12.602,81.145 10.926,80.188 L10.926,80.188 Z M25.69,88.615 C24.005,87.654 23.429,85.516 24.39,83.831 C25.347,82.155 27.476,81.574 29.16,82.536 C30.837,83.493 31.426,85.626 30.47,87.301 C29.508,88.987 27.367,89.572 25.69,88.615 L25.69,88.615 Z M40.454,97.043 C38.769,96.081 38.193,93.944 39.154,92.259 C40.111,90.583 42.24,90.002 43.924,90.964 C45.601,91.921 46.19,94.053 45.234,95.729 C44.272,97.414 42.13,98 40.454,97.043 L40.454,97.043 Z M55.218,105.471 C53.533,104.509 52.956,102.372 53.918,100.686 C54.875,99.011 57.003,98.43 58.688,99.391 C60.365,100.348 60.954,102.481 59.998,104.157 C59.036,105.842 56.894,106.428 55.218,105.471 L55.218,105.471 Z M69.982,113.898 C68.297,112.937 67.72,110.799 68.682,109.114 C69.639,107.438 71.768,106.857 73.452,107.819 C75.129,108.776 75.718,110.908 74.762,112.584 C73.8,114.27 71.658,114.855 69.982,113.898 L69.982,113.898 Z" id="Fill-4" fill="#00AEEF" sketch:type="MSShapeGroup"></path>
                <path d="M50.11,182.19 C50.11,180.26 51.68,178.69 53.61,178.69 C55.55,178.69 57.11,180.26 57.11,182.19 C57.11,184.13 55.55,185.69 53.61,185.69 C51.68,185.69 50.11,184.13 50.11,182.19 L50.11,182.19 Z M50.11,165.19 C50.11,163.26 51.68,161.69 53.61,161.69 C55.55,161.69 57.11,163.26 57.11,165.19 C57.11,167.13 55.55,168.69 53.61,168.69 C51.68,168.69 50.11,167.13 50.11,165.19 L50.11,165.19 Z M50.11,148.19 C50.11,146.26 51.68,144.69 53.61,144.69 C55.55,144.69 57.11,146.26 57.11,148.19 C57.11,150.13 55.55,151.69 53.61,151.69 C51.68,151.69 50.11,150.13 50.11,148.19 L50.11,148.19 Z M50.11,131.19 C50.11,129.26 51.68,127.69 53.61,127.69 C55.55,127.69 57.11,129.26 57.11,131.19 C57.11,133.13 55.55,134.69 53.61,134.69 C51.68,134.69 50.11,133.13 50.11,131.19 L50.11,131.19 Z M50.11,114.19 C50.11,112.26 51.68,110.69 53.61,110.69 C55.55,110.69 57.11,112.26 57.11,114.19 C57.11,116.13 55.55,117.69 53.61,117.69 C51.68,117.69 50.11,116.13 50.11,114.19 L50.11,114.19 Z M50.11,97.19 C50.11,95.26 51.68,93.69 53.61,93.69 C55.55,93.69 57.11,95.26 57.11,97.19 C57.11,99.13 55.55,100.69 53.61,100.69 C51.68,100.69 50.11,99.13 50.11,97.19 L50.11,97.19 Z M50.11,80.19 C50.11,78.26 51.68,76.69 53.61,76.69 C55.55,76.69 57.11,78.26 57.11,80.19 C57.11,82.13 55.55,83.69 53.61,83.69 C51.68,83.69 50.11,82.13 50.11,80.19 L50.11,80.19 Z M50.11,63.19 C50.11,61.26 51.68,59.69 53.61,59.69 C55.55,59.69 57.11,61.26 57.11,63.19 C57.11,65.13 55.55,66.69 53.61,66.69 C51.68,66.69 50.11,65.13 50.11,63.19 L50.11,63.19 Z M50.11,46.19 C50.11,44.26 51.68,42.69 53.61,42.69 C55.55,42.69 57.11,44.26 57.11,46.19 C57.11,48.13 55.55,49.69 53.61,49.69 C51.68,49.69 50.11,48.13 50.11,46.19 L50.11,46.19 Z M50.11,29.19 C50.11,27.26 51.68,25.69 53.61,25.69 C55.55,25.69 57.11,27.26 57.11,29.19 C57.11,31.13 55.55,32.69 53.61,32.69 C51.68,32.69 50.11,31.13 50.11,29.19 L50.11,29.19 Z" id="Fill-6" fill="#FFFFFF" sketch:type="MSShapeGroup"></path>
                <path d="M254.63,164.72 C254.63,162.79 256.19,161.22 258.13,161.22 C260.06,161.22 261.63,162.79 261.63,164.72 C261.63,166.65 260.06,168.22 258.13,168.22 C256.19,168.22 254.63,166.65 254.63,164.72 L254.63,164.72 Z M237.63,164.72 C237.63,162.79 239.19,161.22 241.13,161.22 C243.06,161.22 244.63,162.79 244.63,164.72 C244.63,166.65 243.06,168.22 241.13,168.22 C239.19,168.22 237.63,166.65 237.63,164.72 L237.63,164.72 Z M220.63,164.72 C220.63,162.79 222.19,161.22 224.13,161.22 C226.06,161.22 227.63,162.79 227.63,164.72 C227.63,166.65 226.06,168.22 224.13,168.22 C222.19,168.22 220.63,166.65 220.63,164.72 L220.63,164.72 Z M203.63,164.72 C203.63,162.79 205.19,161.22 207.13,161.22 C209.06,161.22 210.63,162.79 210.63,164.72 C210.63,166.65 209.06,168.22 207.13,168.22 C205.19,168.22 203.63,166.65 203.63,164.72 L203.63,164.72 Z M186.63,164.72 C186.63,162.79 188.19,161.22 190.13,161.22 C192.06,161.22 193.63,162.79 193.63,164.72 C193.63,166.65 192.06,168.22 190.13,168.22 C188.19,168.22 186.63,166.65 186.63,164.72 L186.63,164.72 Z M169.63,164.72 C169.63,162.79 171.19,161.22 173.13,161.22 C175.06,161.22 176.63,162.79 176.63,164.72 C176.63,166.65 175.06,168.22 173.13,168.22 C171.19,168.22 169.63,166.65 169.63,164.72 L169.63,164.72 Z M152.63,164.72 C152.63,162.79 154.19,161.22 156.13,161.22 C158.06,161.22 159.63,162.79 159.63,164.72 C159.63,166.65 158.06,168.22 156.13,168.22 C154.19,168.22 152.63,166.65 152.63,164.72 L152.63,164.72 Z M135.63,164.72 C135.63,162.79 137.19,161.22 139.13,161.22 C141.06,161.22 142.63,162.79 142.63,164.72 C142.63,166.65 141.06,168.22 139.13,168.22 C137.19,168.22 135.63,166.65 135.63,164.72 L135.63,164.72 Z M118.63,164.72 C118.63,162.79 120.19,161.22 122.13,161.22 C124.06,161.22 125.63,162.79 125.63,164.72 C125.63,166.65 124.06,168.22 122.13,168.22 C120.19,168.22 118.63,166.65 118.63,164.72 L118.63,164.72 Z M101.63,164.72 C101.63,162.79 103.19,161.22 105.13,161.22 C107.06,161.22 108.63,162.79 108.63,164.72 C108.63,166.65 107.06,168.22 105.13,168.22 C103.19,168.22 101.63,166.65 101.63,164.72 L101.63,164.72 Z M84.63,164.72 C84.63,162.79 86.19,161.22 88.13,161.22 C90.06,161.22 91.63,162.79 91.63,164.72 C91.63,166.65 90.06,168.22 88.13,168.22 C86.19,168.22 84.63,166.65 84.63,164.72 L84.63,164.72 Z M67.63,164.72 C67.63,162.79 69.19,161.22 71.13,161.22 C73.06,161.22 74.63,162.79 74.63,164.72 C74.63,166.65 73.06,168.22 71.13,168.22 C69.19,168.22 67.63,166.65 67.63,164.72 L67.63,164.72 Z M50.63,164.72 C50.63,162.79 52.19,161.22 54.13,161.22 C56.06,161.22 57.63,162.79 57.63,164.72 C57.63,166.65 56.06,168.22 54.13,168.22 C52.19,168.22 50.63,166.65 50.63,164.72 L50.63,164.72 Z M33.63,164.72 C33.63,162.79 35.19,161.22 37.13,161.22 C39.06,161.22 40.63,162.79 40.63,164.72 C40.63,166.65 39.06,168.22 37.13,168.22 C35.19,168.22 33.63,166.65 33.63,164.72 L33.63,164.72 Z" id="Fill-7" fill="#FFFFFF" sketch:type="MSShapeGroup"></path>
                <path d="M29.398,113.023 L74.784,90.498 C79.979,87.92 82.1,81.619 79.522,76.424 C76.944,71.23 70.643,69.109 65.448,71.687 L20.062,94.213 C14.867,96.791 12.746,103.091 15.324,108.286 C17.903,113.48 24.203,115.601 29.398,113.023 L29.398,113.023 Z M68.981,77.743 C70.718,76.881 72.814,77.594 73.672,79.322 C74.534,81.06 73.83,83.151 72.093,84.013 C70.363,84.872 68.264,84.172 67.402,82.434 C66.544,80.706 67.251,78.601 68.981,77.743 L68.981,77.743 Z M53.753,85.301 C55.49,84.438 57.586,85.151 58.444,86.88 C59.307,88.618 58.602,90.709 56.865,91.571 C55.136,92.429 53.037,91.73 52.174,89.992 C51.316,88.263 52.024,86.159 53.753,85.301 L53.753,85.301 Z M38.525,92.858 C40.263,91.996 42.359,92.709 43.216,94.437 C44.079,96.176 43.375,98.266 41.637,99.129 C39.908,99.987 37.809,99.287 36.946,97.549 C36.088,95.821 36.796,93.717 38.525,92.858 L38.525,92.858 Z M23.298,100.416 C25.035,99.554 27.131,100.266 27.989,101.995 C28.851,103.733 28.147,105.824 26.41,106.686 C24.68,107.544 22.581,106.845 21.718,105.107 C20.861,103.378 21.568,101.274 23.298,100.416 L23.298,100.416 Z" id="Fill-8" fill="#F8941E" sketch:type="MSShapeGroup"></path>
                <path d="M144.245,141.423 L160.419,111.888 C163.204,106.802 161.339,100.421 156.253,97.635 C151.166,94.85 144.785,96.715 142,101.802 L125.826,131.336 C123.041,136.422 124.906,142.804 129.993,145.589 C135.079,148.374 141.46,146.509 144.245,141.423 L144.245,141.423 Z M148.284,104.899 C149.216,103.197 151.342,102.583 153.035,103.51 C154.728,104.437 155.356,106.559 154.424,108.261 C153.497,109.953 151.366,110.576 149.673,109.65 C147.98,108.722 147.357,106.591 148.284,104.899 L148.284,104.899 Z M140.119,119.809 C141.051,118.107 143.177,117.493 144.87,118.421 C146.562,119.347 147.191,121.47 146.259,123.171 C145.332,124.864 143.205,125.478 141.512,124.552 C139.819,123.624 139.192,121.502 140.119,119.809 L140.119,119.809 Z M131.954,134.72 C132.886,133.018 135.011,132.404 136.705,133.331 C138.397,134.258 139.025,136.38 138.093,138.082 C137.166,139.775 135.035,140.398 133.342,139.471 C131.649,138.543 131.027,136.412 131.954,134.72 L131.954,134.72 Z" id="Fill-9" fill="#F8941E" sketch:type="MSShapeGroup"></path>
                <path d="M261.02,59.454 L147.922,96.828 C142.416,98.647 139.427,104.586 141.247,110.092 C143.066,115.598 149.005,118.587 154.511,116.767 L267.609,79.393 C273.115,77.574 276.104,71.635 274.285,66.129 C272.465,60.623 266.526,57.634 261.02,59.454 L261.02,59.454 Z M152.31,110.118 C150.477,110.724 148.497,109.735 147.889,107.893 C147.283,106.06 148.281,104.077 150.114,103.472 C151.956,102.863 153.929,103.864 154.535,105.697 C155.144,107.538 154.152,109.509 152.31,110.118 L152.31,110.118 Z M168.452,104.784 C166.619,105.39 164.639,104.4 164.03,102.559 C163.424,100.726 164.422,98.743 166.255,98.138 C168.097,97.529 170.071,98.529 170.677,100.363 C171.285,102.204 170.293,104.175 168.452,104.784 L168.452,104.784 Z M184.593,99.45 C182.76,100.056 180.78,99.067 180.172,97.225 C179.566,95.392 180.564,93.409 182.397,92.803 C184.229,92.198 186.212,93.195 186.818,95.029 C187.427,96.87 186.426,98.844 184.593,99.45 L184.593,99.45 Z M200.735,94.116 C198.902,94.722 196.922,93.732 196.313,91.891 C195.707,90.058 196.705,88.075 198.538,87.469 C200.38,86.861 202.354,87.861 202.96,89.695 C203.568,91.536 202.576,93.507 200.735,94.116 L200.735,94.116 Z M216.876,88.782 C215.043,89.388 213.063,88.398 212.455,86.557 C211.849,84.724 212.847,82.741 214.68,82.135 C216.522,81.527 218.495,82.527 219.101,84.36 C219.71,86.202 218.718,88.173 216.876,88.782 L216.876,88.782 Z M233.018,83.448 C231.185,84.053 229.205,83.064 228.596,81.223 C227.99,79.39 228.988,77.407 230.821,76.801 C232.663,76.193 234.637,77.193 235.243,79.026 C235.851,80.868 234.859,82.839 233.018,83.448 L233.018,83.448 Z M249.159,78.114 C247.326,78.72 245.346,77.73 244.738,75.889 C244.132,74.056 245.13,72.073 246.963,71.467 C248.805,70.859 250.778,71.859 251.384,73.692 C251.993,75.534 251.001,77.505 249.159,78.114 L249.159,78.114 Z M265.301,72.78 C263.468,73.385 261.488,72.396 260.879,70.555 C260.273,68.722 261.271,66.739 263.104,66.133 C264.946,65.525 266.92,66.525 267.526,68.358 C268.134,70.2 267.143,72.171 265.301,72.78 L265.301,72.78 Z" id="Fill-10" fill="#F8941E" sketch:type="MSShapeGroup"></path>
                <path d="M63.961,88.167 L127.713,143.886 C132.079,147.702 138.712,147.256 142.528,142.889 C146.345,138.523 145.899,131.89 141.532,128.074 L77.781,72.355 C73.415,68.539 66.781,68.985 62.965,73.351 C59.149,77.717 59.595,84.351 63.961,88.167 L63.961,88.167 Z M137.281,133.655 C138.734,134.925 138.883,137.14 137.613,138.593 C136.343,140.046 134.127,140.195 132.674,138.925 C131.221,137.655 131.072,135.44 132.342,133.987 C133.612,132.534 135.827,132.384 137.281,133.655 L137.281,133.655 Z M124.481,122.467 C125.941,123.744 126.083,125.953 124.813,127.406 C123.543,128.859 121.335,129.014 119.874,127.738 C118.421,126.467 118.272,124.252 119.542,122.799 C120.812,121.346 123.027,121.197 124.481,122.467 L124.481,122.467 Z M111.681,111.28 C113.141,112.556 113.283,114.766 112.013,116.219 C110.743,117.671 108.534,117.827 107.074,116.551 C105.62,115.28 105.472,113.065 106.742,111.612 C108.012,110.159 110.227,110.01 111.681,111.28 L111.681,111.28 Z M98.881,100.093 C100.341,101.369 100.482,103.578 99.213,105.031 C97.943,106.484 95.734,106.64 94.274,105.363 C92.82,104.093 92.672,101.878 93.942,100.425 C95.212,98.972 97.427,98.822 98.881,100.093 L98.881,100.093 Z M86.08,88.905 C87.541,90.182 87.682,92.391 86.412,93.844 C85.143,95.297 82.934,95.452 81.474,94.176 C80.02,92.905 79.872,90.69 81.142,89.237 C82.412,87.784 84.627,87.635 86.08,88.905 L86.08,88.905 Z M73.28,77.718 C74.741,78.994 74.882,81.204 73.612,82.657 C72.342,84.109 70.134,84.265 68.674,82.989 C67.22,81.718 67.072,79.503 68.342,78.05 C69.612,76.597 71.827,76.447 73.28,77.718 L73.28,77.718 Z" id="Fill-11" fill="#F8941E" sketch:type="MSShapeGroup"></path>
            </g>
        </g>
    </g>
</svg>