<?xml version="1.0" encoding="UTF-8" standalone="no"?>
<svg width="249px" height="266px" viewBox="0 0 249 266" version="1.1" xmlns="http://www.w3.org/2000/svg" xmlns:xlink="http://www.w3.org/1999/xlink" xmlns:sketch="http://www.bohemiancoding.com/sketch/ns">
    <!-- Generator: Sketch 3.2.2 (9983) - http://www.bohemiancoding.com/sketch -->
    <title>how_2</title>
    <desc>Created with Sketch.</desc>
    <defs></defs>
    <g id="Page-1" stroke="none" stroke-width="1" fill="none" fill-rule="evenodd" sketch:type="MSPage">
        <g id="Artboard-1" sketch:type="MSArtboardGroup" transform="translate(-322.000000, -29.000000)">
            <g id="how_2" sketch:type="MSLayerGroup" transform="translate(322.000000, 29.000000)">
                <path d="M164.337,113.836 L130.795,80.295 C127.834,77.333 123.033,77.333 120.071,80.295 L86.287,114.079 C82.934,117.432 82.934,122.869 86.287,126.222 L89.431,129.366 C92.784,132.719 98.221,132.719 101.574,129.366 L125.434,105.506 L149.05,129.123 C152.404,132.476 157.84,132.476 161.193,129.123 L164.337,125.979 C167.69,122.626 167.69,117.19 164.337,113.836 L164.337,113.836 Z M98.438,121.779 C97.091,123.126 94.906,123.126 93.559,121.779 C92.211,120.431 92.211,118.247 93.559,116.899 C94.906,115.552 97.091,115.552 98.438,116.899 C99.786,118.247 99.786,120.431 98.438,121.779 L98.438,121.779 Z M113.376,106.841 C112.029,108.188 109.844,108.188 108.497,106.841 C107.149,105.493 107.149,103.309 108.497,101.961 C109.844,100.614 112.029,100.614 113.376,101.961 C114.724,103.309 114.724,105.493 113.376,106.841 L113.376,106.841 Z M128.314,91.903 C126.967,93.25 124.782,93.25 123.435,91.903 C122.087,90.555 122.087,88.371 123.435,87.023 C124.782,85.676 126.967,85.676 128.314,87.023 C129.662,88.371 129.662,90.555 128.314,91.903 L128.314,91.903 Z M143.252,106.841 C141.905,108.188 139.72,108.188 138.373,106.841 C137.025,105.493 137.025,103.309 138.373,101.961 C139.72,100.614 141.905,100.614 143.252,101.961 C144.6,103.309 144.6,105.493 143.252,106.841 L143.252,106.841 Z M158.19,121.779 C156.843,123.126 154.658,123.126 153.311,121.779 C151.963,120.431 151.963,118.247 153.311,116.899 C154.658,115.552 156.843,115.552 158.19,116.899 C159.538,118.247 159.538,120.431 158.19,121.779 L158.19,121.779 Z" id="Fill-1" fill="#006838" sketch:type="MSShapeGroup"></path>
                <path d="M158.752,78.317 L91.154,78.317 C86.879,78.317 83.413,81.783 83.413,86.058 L83.413,92.347 C83.413,96.622 86.879,100.087 91.154,100.087 L158.752,100.087 C163.027,100.087 166.493,96.622 166.493,92.347 L166.493,86.058 C166.493,81.783 163.027,78.317 158.752,78.317 L158.752,78.317 Z M99.279,92.653 C97.373,92.65 95.83,91.103 95.833,89.198 C95.835,87.292 97.382,85.749 99.288,85.752 C101.194,85.755 102.736,87.301 102.734,89.207 C102.731,91.113 101.184,92.655 99.279,92.653 L99.279,92.653 Z M125.561,92.653 C123.656,92.65 122.113,91.103 122.115,89.198 C122.118,87.292 123.665,85.749 125.571,85.752 C127.476,85.755 129.019,87.301 129.016,89.207 C129.013,91.113 127.467,92.655 125.561,92.653 L125.561,92.653 Z M148.227,92.653 C146.322,92.65 144.779,91.103 144.782,89.198 C144.785,87.292 146.331,85.749 148.237,85.752 C150.142,85.755 151.685,87.301 151.682,89.207 C151.68,91.113 150.133,92.655 148.227,92.653 L148.227,92.653 Z" id="Fill-2" fill="#006838" sketch:type="MSShapeGroup"></path>
                <path d="M95.639,256.182 C94.756,256.182 93.873,255.845 93.199,255.171 C91.852,253.823 91.852,251.639 93.199,250.292 C93.873,249.618 94.756,249.281 95.639,249.281 C96.522,249.281 97.405,249.618 98.079,250.292 C99.426,251.639 99.426,253.823 98.079,255.171 C97.405,255.845 96.522,256.182 95.639,256.182 M155.391,256.182 C154.508,256.182 153.625,255.845 152.952,255.171 C151.604,253.824 151.604,251.639 152.952,250.292 C153.625,249.618 154.508,249.281 155.391,249.281 C156.274,249.281 157.157,249.618 157.831,250.292 C159.178,251.639 159.178,253.824 157.831,255.171 C157.157,255.845 156.274,256.182 155.391,256.182 M110.577,241.244 C109.694,241.244 108.811,240.907 108.137,240.233 C106.79,238.886 106.79,236.701 108.137,235.353 C108.811,234.68 109.694,234.343 110.577,234.343 C111.46,234.343 112.343,234.68 113.017,235.353 C114.364,236.701 114.364,238.886 113.017,240.233 C112.343,240.907 111.46,241.244 110.577,241.244 M140.453,241.244 C139.57,241.244 138.687,240.907 138.013,240.233 C136.666,238.886 136.666,236.701 138.013,235.353 C138.687,234.68 139.57,234.343 140.453,234.343 C141.336,234.343 142.219,234.68 142.893,235.353 C144.24,236.701 144.24,238.886 142.893,240.233 C142.219,240.907 141.336,241.244 140.453,241.244 M150.229,233.48 L99.92,233.48 L85.928,247.471 C82.574,250.824 82.574,256.261 85.928,259.614 L89.071,262.758 C90.748,264.435 92.946,265.273 95.143,265.273 C97.341,265.273 99.538,264.435 101.215,262.758 L125.074,238.898 L148.691,262.515 C150.368,264.192 152.565,265.03 154.763,265.03 C156.96,265.03 159.158,264.192 160.834,262.515 L163.978,259.371 C167.331,256.018 167.331,250.582 163.978,247.228 L150.229,233.48 M125.566,219.144 C123.84,219.144 122.41,220.411 122.156,222.067 C122.297,221.462 122.604,220.887 123.075,220.415 C123.749,219.742 124.632,219.405 125.515,219.405 C126.398,219.405 127.281,219.742 127.955,220.415 C128.765,221.225 129.088,222.337 128.924,223.388 C128.984,223.135 129.016,222.871 129.016,222.599 C129.019,220.694 127.476,219.147 125.571,219.144 L125.566,219.144 M125.074,211.466 C124.432,211.466 123.789,211.547 123.163,211.709 L126.986,211.709 C126.36,211.547 125.717,211.466 125.074,211.466" id="Fill-3" fill="#006838" sketch:type="MSShapeGroup"></path>
                <path d="M99.284,226.045 L99.279,226.045 C97.373,226.042 95.83,224.495 95.833,222.59 C95.835,220.686 97.38,219.144 99.283,219.144 L99.288,219.144 C101.194,219.147 102.736,220.694 102.734,222.599 C102.731,224.503 101.186,226.045 99.284,226.045 M122.156,222.067 C122.41,220.411 123.84,219.144 125.566,219.144 L125.571,219.144 C127.476,219.147 129.019,220.694 129.016,222.599 C129.016,222.871 128.984,223.135 128.924,223.388 C128.566,224.911 127.198,226.045 125.566,226.045 L125.561,226.045 C123.656,226.042 122.113,224.495 122.115,222.59 C122.116,222.412 122.129,222.238 122.156,222.067 M148.232,226.045 L148.227,226.045 C146.321,226.042 144.779,224.495 144.782,222.59 C144.785,220.686 146.329,219.144 148.232,219.144 L148.237,219.144 C150.142,219.147 151.685,220.694 151.682,222.599 C151.68,224.503 150.136,226.045 148.232,226.045 M158.752,211.709 L91.154,211.709 C86.879,211.709 83.413,215.175 83.413,219.45 L83.413,225.739 C83.413,230.014 86.879,233.48 91.154,233.48 L158.752,233.48 C163.027,233.48 166.493,230.014 166.493,225.739 L166.493,219.45 C166.493,215.175 163.027,211.709 158.752,211.709" id="Fill-4" fill="#006838" sketch:type="MSShapeGroup"></path>
                <path d="M151.865,143.009 L102.391,142.967 C94.961,142.961 90.177,150.84 93.608,157.429 L116.462,201.308 C120.023,208.145 129.69,208.462 133.691,201.873 L160.312,158.036 C164.313,151.446 159.574,143.015 151.865,143.009 L151.865,143.009 Z M106.354,155.128 C105.365,156.757 103.243,157.276 101.614,156.287 C99.985,155.297 99.467,153.175 100.456,151.546 C101.445,149.918 103.567,149.399 105.196,150.388 C106.825,151.377 107.343,153.5 106.354,155.128 L106.354,155.128 Z M128.034,198.29 C127.045,199.919 124.923,200.437 123.294,199.448 C121.665,198.459 121.146,196.337 122.136,194.708 C123.125,193.079 125.247,192.561 126.876,193.55 C128.504,194.539 129.023,196.661 128.034,198.29 L128.034,198.29 Z M126.007,182.635 L125.372,182.634 C124.026,182.634 122.935,181.543 122.936,180.197 L122.946,154.141 C122.946,152.796 124.038,151.705 125.383,151.706 L126.018,151.706 C127.364,151.707 128.454,152.798 128.454,154.143 L128.444,180.199 C128.443,181.545 127.352,182.635 126.007,182.635 L126.007,182.635 Z M152.906,154.389 C151.916,156.017 149.794,156.536 148.166,155.547 C146.537,154.558 146.018,152.436 147.007,150.807 C147.996,149.178 150.118,148.659 151.747,149.649 C153.376,150.638 153.895,152.76 152.906,154.389 L152.906,154.389 Z" id="Fill-5" fill="#FFFFFF" sketch:type="MSShapeGroup"></path>
                <path d="M177.713,187.336 C176.83,187.336 175.947,186.999 175.273,186.325 C173.926,184.978 173.926,182.793 175.273,181.446 C175.947,180.772 176.83,180.435 177.713,180.435 C178.596,180.435 179.479,180.772 180.153,181.446 C181.5,182.793 181.5,184.978 180.153,186.325 C179.479,186.999 178.596,187.336 177.713,187.336 M237.465,187.336 C236.582,187.336 235.699,186.999 235.025,186.325 C233.678,184.978 233.678,182.793 235.025,181.446 C235.699,180.772 236.582,180.435 237.465,180.435 C238.348,180.435 239.231,180.772 239.905,181.446 C241.252,182.793 241.252,184.978 239.905,186.325 C239.231,186.999 238.348,187.336 237.465,187.336 M192.651,172.398 C191.768,172.398 190.885,172.061 190.211,171.387 C188.864,170.04 188.864,167.855 190.211,166.508 C190.885,165.834 191.768,165.497 192.651,165.497 C193.534,165.497 194.417,165.834 195.091,166.508 C196.438,167.855 196.438,170.04 195.091,171.387 C194.417,172.061 193.534,172.398 192.651,172.398 M222.527,172.398 C221.644,172.398 220.761,172.061 220.088,171.387 C218.74,170.04 218.74,167.855 220.088,166.508 C220.761,165.834 221.644,165.497 222.527,165.497 C223.41,165.497 224.293,165.834 224.967,166.508 C226.314,167.855 226.314,170.04 224.967,171.387 C224.293,172.061 223.41,172.398 222.527,172.398 M232.303,164.634 L181.993,164.634 L168.002,178.626 C164.649,181.979 164.649,187.415 168.002,190.769 L171.145,193.912 C172.822,195.589 175.019,196.427 177.217,196.427 C179.414,196.427 181.612,195.589 183.288,193.912 L207.148,170.052 L230.765,193.669 C232.442,195.346 234.639,196.184 236.836,196.184 C239.034,196.184 241.231,195.346 242.908,193.669 L246.052,190.526 C249.405,187.173 249.405,181.736 246.052,178.383 L232.303,164.634 M207.64,150.298 C205.914,150.298 204.483,151.566 204.229,153.222 C204.371,152.616 204.677,152.041 205.149,151.57 C205.823,150.896 206.706,150.559 207.589,150.559 C208.472,150.559 209.355,150.896 210.029,151.57 C210.838,152.379 211.161,153.49 210.999,154.54 C211.058,154.288 211.089,154.024 211.09,153.753 C211.093,151.848 209.55,150.301 207.644,150.298 L207.64,150.298 M207.148,142.62 C206.505,142.62 205.863,142.701 205.237,142.864 L209.059,142.864 C208.433,142.701 207.791,142.62 207.148,142.62" id="Fill-6" fill="#006838" sketch:type="MSShapeGroup"></path>
                <path d="M181.358,157.199 L181.352,157.199 C179.447,157.197 177.904,155.65 177.907,153.744 C177.909,151.84 179.454,150.298 181.357,150.298 L181.362,150.298 C183.268,150.301 184.81,151.848 184.808,153.753 C184.805,155.657 183.26,157.199 181.358,157.199 M204.229,153.222 C204.483,151.566 205.914,150.298 207.64,150.298 L207.644,150.298 C209.55,150.301 211.093,151.848 211.09,153.753 C211.089,154.024 211.058,154.288 210.999,154.54 C210.641,156.065 209.273,157.199 207.64,157.199 L207.635,157.199 C205.729,157.197 204.187,155.65 204.189,153.744 C204.19,153.567 204.203,153.392 204.229,153.222 M230.306,157.199 L230.301,157.199 C228.395,157.197 226.853,155.65 226.856,153.744 C226.858,151.84 228.403,150.298 230.306,150.298 L230.311,150.298 C232.216,150.301 233.758,151.848 233.756,153.753 C233.754,155.657 232.21,157.199 230.306,157.199 M240.826,142.864 L173.228,142.864 C168.953,142.864 165.487,146.33 165.487,150.605 L165.487,156.893 C165.487,161.168 168.953,164.634 173.228,164.634 L240.826,164.634 C245.101,164.634 248.567,161.168 248.567,156.893 L248.567,150.605 C248.567,146.33 245.101,142.864 240.826,142.864" id="Fill-7" fill="#006838" sketch:type="MSShapeGroup"></path>
                <path d="M12.765,187.336 C11.882,187.336 10.999,186.999 10.325,186.325 C8.978,184.978 8.978,182.793 10.325,181.446 C10.999,180.772 11.882,180.435 12.765,180.435 C13.648,180.435 14.531,180.772 15.205,181.446 C16.553,182.793 16.553,184.978 15.205,186.325 C14.531,186.999 13.648,187.336 12.765,187.336 M72.517,187.336 C71.634,187.336 70.751,186.999 70.078,186.325 C68.73,184.978 68.73,182.793 70.078,181.446 C70.751,180.772 71.634,180.435 72.517,180.435 C73.4,180.435 74.283,180.772 74.957,181.446 C76.305,182.793 76.305,184.978 74.957,186.325 C74.283,186.999 73.4,187.336 72.517,187.336 M27.703,172.398 C26.82,172.398 25.937,172.061 25.264,171.387 C23.916,170.04 23.916,167.855 25.264,166.508 C25.937,165.834 26.82,165.497 27.703,165.497 C28.586,165.497 29.469,165.834 30.143,166.508 C31.491,167.855 31.491,170.04 30.143,171.387 C29.469,172.061 28.586,172.398 27.703,172.398 M57.579,172.398 C56.696,172.398 55.813,172.061 55.14,171.387 C53.792,170.04 53.792,167.855 55.14,166.508 C55.813,165.834 56.696,165.497 57.579,165.497 C58.463,165.497 59.346,165.834 60.019,166.508 C61.367,167.855 61.367,170.04 60.019,171.387 C59.346,172.061 58.463,172.398 57.579,172.398 M67.355,164.634 L17.046,164.634 L3.054,178.626 C-0.299,181.979 -0.299,187.415 3.054,190.769 L6.198,193.912 C7.874,195.589 10.072,196.427 12.269,196.427 C14.467,196.427 16.664,195.589 18.341,193.912 L42.2,170.052 L65.817,193.669 C67.494,195.346 69.692,196.184 71.889,196.184 C74.086,196.184 76.284,195.346 77.961,193.669 L81.104,190.526 C84.457,187.173 84.457,181.736 81.104,178.383 L67.355,164.634 M42.692,150.298 C40.967,150.298 39.536,151.566 39.282,153.221 C39.423,152.616 39.73,152.041 40.202,151.57 C40.875,150.896 41.758,150.559 42.641,150.559 C43.524,150.559 44.407,150.896 45.081,151.57 C45.89,152.379 46.213,153.49 46.051,154.54 C46.11,154.288 46.142,154.024 46.142,153.753 C46.145,151.848 44.602,150.301 42.697,150.298 L42.692,150.298 M42.2,142.62 C41.558,142.62 40.915,142.701 40.289,142.864 L44.112,142.864 C43.486,142.701 42.843,142.62 42.2,142.62" id="Fill-8" fill="#006838" sketch:type="MSShapeGroup"></path>
                <path d="M16.41,157.199 L16.405,157.199 C14.499,157.197 12.956,155.65 12.959,153.744 C12.962,151.84 14.506,150.298 16.41,150.298 L16.414,150.298 C18.32,150.301 19.862,151.848 19.86,153.753 C19.857,155.657 18.313,157.199 16.41,157.199 M39.282,153.221 C39.536,151.566 40.967,150.298 42.692,150.298 L42.697,150.298 C44.602,150.301 46.145,151.848 46.142,153.753 C46.142,154.024 46.11,154.288 46.051,154.54 C45.693,156.065 44.325,157.199 42.692,157.199 L42.687,157.199 C40.782,157.197 39.239,155.65 39.242,153.744 C39.242,153.566 39.255,153.392 39.282,153.221 M65.359,157.199 L65.354,157.199 C63.448,157.197 61.905,155.65 61.908,153.744 C61.911,151.84 63.455,150.298 65.358,150.298 L65.363,150.298 C67.268,150.301 68.811,151.848 68.809,153.753 C68.806,155.657 67.262,157.199 65.359,157.199 M75.878,142.864 L8.28,142.864 C4.005,142.864 0.539,146.33 0.539,150.605 L0.539,156.893 C0.539,161.168 4.005,164.634 8.28,164.634 L75.878,164.634 C80.153,164.634 83.619,161.168 83.619,156.893 L83.619,150.605 C83.619,146.33 80.153,142.864 75.878,142.864" id="Fill-9" fill="#006838" sketch:type="MSShapeGroup"></path>
                <path d="M63.352,73.334 L24.806,73.334 C18.206,73.334 12.806,78.734 12.806,85.334 L12.806,123.881 C12.806,130.481 18.206,135.881 24.806,135.881 L63.352,135.881 C69.952,135.881 75.352,130.481 75.352,123.881 L75.352,85.334 C75.352,78.734 69.952,73.334 63.352,73.334 L63.352,73.334 Z M41.476,85.435 C41.482,84.089 42.577,83.003 43.923,83.009 L44.558,83.012 C45.904,83.018 46.99,84.114 46.984,85.459 L46.904,103.587 C46.898,104.932 45.802,106.018 44.456,106.012 L43.821,106.01 C42.476,106.004 41.39,104.908 41.396,103.563 L41.476,85.435 L41.476,85.435 Z M22.847,84.952 C23.836,83.323 25.958,82.805 27.587,83.794 C29.216,84.783 29.734,86.905 28.745,88.534 C27.756,90.163 25.634,90.681 24.005,89.692 C22.376,88.703 21.858,86.581 22.847,84.952 L22.847,84.952 Z M63.818,124.289 C63.812,125.635 62.716,126.721 61.371,126.715 L26.984,126.563 C25.639,126.557 24.553,125.461 24.559,124.116 L24.562,123.481 C24.568,122.135 25.663,121.049 27.009,121.055 L61.395,121.207 C62.74,121.213 63.826,122.309 63.821,123.654 L63.818,124.289 L63.818,124.289 Z M66.754,87.794 C65.765,89.423 63.643,89.941 62.014,88.952 C60.386,87.963 59.867,85.841 60.856,84.212 C61.845,82.584 63.967,82.065 65.596,83.054 C67.225,84.043 67.743,86.165 66.754,87.794 L66.754,87.794 Z" id="Fill-10" fill="#FFFFFF" sketch:type="MSShapeGroup"></path>
                <path d="M146.688,96.163 L136.094,96.163 L136.094,85.568 C136.094,82.121 133.299,79.326 129.852,79.326 L121.337,79.326 C117.889,79.326 115.094,82.121 115.094,85.568 L115.094,96.163 L104.5,96.163 C101.053,96.163 98.258,98.957 98.258,102.405 L98.258,110.92 C98.258,114.368 101.053,117.162 104.5,117.162 L115.094,117.162 L115.094,127.756 C115.094,131.204 117.889,133.999 121.337,133.999 L129.852,133.999 C133.299,133.999 136.094,131.204 136.094,127.756 L136.094,117.162 L146.688,117.162 C150.136,117.162 152.931,114.368 152.931,110.92 L152.931,102.405 C152.931,98.957 150.136,96.163 146.688,96.163 L146.688,96.163 Z M125.591,86.024 C127.532,86.024 129.091,87.594 129.091,89.524 C129.091,91.454 127.532,93.024 125.591,93.024 C123.662,93.024 122.091,91.454 122.091,89.524 C122.091,87.594 123.662,86.024 125.591,86.024 L125.591,86.024 Z M108.456,110.165 C106.526,110.165 104.956,108.595 104.956,106.665 C104.956,104.725 106.526,103.165 108.456,103.165 C110.386,103.165 111.956,104.725 111.956,106.665 C111.956,108.595 110.386,110.165 108.456,110.165 L108.456,110.165 Z M125.591,127.024 C123.662,127.024 122.091,125.454 122.091,123.524 C122.091,121.584 123.662,120.024 125.591,120.024 C127.532,120.024 129.091,121.584 129.091,123.524 C129.091,125.454 127.532,127.024 125.591,127.024 L125.591,127.024 Z M125.591,110.024 C123.662,110.024 122.091,108.454 122.091,106.524 C122.091,105.593 122.46,104.755 123.049,104.129 C123.676,103.535 124.519,103.165 125.456,103.165 C127.386,103.165 128.956,104.725 128.956,106.665 C128.956,107.592 128.587,108.43 127.997,109.057 C127.371,109.653 126.528,110.024 125.591,110.024 L125.591,110.024 Z M142.456,110.165 C140.516,110.165 138.956,108.595 138.956,106.665 C138.956,104.725 140.516,103.165 142.456,103.165 C144.386,103.165 145.956,104.725 145.956,106.665 C145.956,108.595 144.386,110.165 142.456,110.165 L142.456,110.165 Z" id="Fill-11" fill="#931C58" sketch:type="MSShapeGroup"></path>
                <path d="M124.953,0.252 C105.6,0.252 89.912,15.94 89.912,35.293 C89.912,54.646 105.6,70.334 124.953,70.334 C144.306,70.334 159.994,54.646 159.994,35.293 C159.994,15.94 144.306,0.252 124.953,0.252 L124.953,0.252 Z M103.635,17.112 C104.624,15.483 106.746,14.965 108.375,15.954 C110.004,16.943 110.523,19.065 109.534,20.694 C108.544,22.323 106.422,22.841 104.794,21.852 C103.165,20.863 102.646,18.741 103.635,17.112 L103.635,17.112 Z M146.487,52.044 C141.275,58.736 133.426,62.574 124.953,62.574 C116.767,62.574 109.087,58.946 103.88,52.621 C103.003,51.555 103.155,49.979 104.222,49.102 C105.288,48.226 106.862,48.376 107.741,49.443 C111.994,54.611 118.267,57.574 124.953,57.574 C131.873,57.574 138.284,54.438 142.542,48.972 C143.39,47.882 144.961,47.686 146.051,48.536 C147.14,49.384 147.335,50.955 146.487,52.044 L146.487,52.044 Z M146.836,20.694 C145.847,22.323 143.724,22.841 142.096,21.852 C140.467,20.863 139.948,18.741 140.937,17.112 C141.926,15.483 144.048,14.965 145.677,15.954 C147.306,16.943 147.825,19.065 146.836,20.694 L146.836,20.694 Z" id="Fill-12" fill="#FFFFFF" sketch:type="MSShapeGroup"></path>
                <path d="M242.817,100.674 L228.544,75.953 C227.146,73.531 224.563,72.04 221.767,72.04 L193.222,72.04 C190.426,72.04 187.842,73.531 186.444,75.953 L172.172,100.674 C170.774,103.095 170.774,106.078 172.172,108.5 L186.444,133.221 C187.842,135.642 190.426,137.134 193.222,137.134 L221.767,137.134 C224.563,137.134 227.146,135.642 228.544,133.221 L242.817,108.5 C244.215,106.078 244.215,103.095 242.817,100.674 L242.817,100.674 Z M204.781,98.914 C204.786,97.568 205.882,96.482 207.227,96.488 L207.863,96.491 C209.208,96.497 210.294,97.593 210.288,98.938 L210.208,111.612 C210.202,112.957 209.107,114.043 207.761,114.037 L207.126,114.035 C205.78,114.029 204.694,112.933 204.7,111.588 L204.781,98.914 L204.781,98.914 Z M190.321,93.926 C188.692,92.937 188.174,90.815 189.163,89.186 C190.152,87.558 192.274,87.039 193.903,88.028 C195.532,89.017 196.05,91.139 195.061,92.768 C194.072,94.397 191.95,94.915 190.321,93.926 L190.321,93.926 Z M218.947,124.954 C215.203,126.539 211.258,127.333 207.312,127.333 C203.509,127.333 199.706,126.597 196.075,125.121 C194.796,124.602 194.181,123.143 194.701,121.864 C195.22,120.585 196.679,119.969 197.958,120.489 C204.115,122.992 210.877,122.942 216.997,120.35 C218.267,119.811 219.735,120.405 220.274,121.677 C220.812,122.948 220.218,124.415 218.947,124.954 L218.947,124.954 Z M224.8,92.768 C223.811,94.397 221.689,94.915 220.06,93.926 C218.432,92.937 217.913,90.815 218.902,89.186 C219.891,87.558 222.013,87.039 223.642,88.028 C225.271,89.017 225.789,91.139 224.8,92.768 L224.8,92.768 Z" id="Fill-13" fill="#FFFFFF" sketch:type="MSShapeGroup"></path>
            </g>
        </g>
    </g>
</svg>