<?xml version="1.0" encoding="UTF-8" standalone="no"?>
<svg width="84px" height="133px" viewBox="0 0 84 133" version="1.1" xmlns="http://www.w3.org/2000/svg" xmlns:xlink="http://www.w3.org/1999/xlink" xmlns:sketch="http://www.bohemiancoding.com/sketch/ns">
    <!-- Generator: Sketch 3.2.2 (9983) - http://www.bohemiancoding.com/sketch -->
    <title>round_KZman_transparent</title>
    <desc>Created with Sketch.</desc>
    <defs></defs>
    <g id="Page-1" stroke="none" stroke-width="1" fill="none" fill-rule="evenodd" sketch:type="MSPage">
        <g id="Artboard-1" sketch:type="MSArtboardGroup" transform="translate(-1352.000000, -299.000000)">
            <g id="round_KZman_transparent" sketch:type="MSLayerGroup" transform="translate(1352.000000, 299.000000)">
                <path d="M16.7265859,100.263 L2.735,114.255 C-0.619,117.608 -0.619,123.045 2.735,126.398 L5.878,129.542 C9.232,132.895 14.668,132.895 18.021,129.542 L41.881,105.682 L65.498,129.299 C68.851,132.652 74.288,132.652 77.641,129.299 L80.785,126.155 C84.138,122.802 84.138,117.365 80.785,114.012 L67.036,100.263 L75.559,100.263 C79.834,100.263 83.3,96.798 83.3,92.523 L83.3,86.234 C83.3,81.959 79.834,78.493 75.559,78.493 L7.961,78.493 C3.686,78.493 0.22,81.959 0.22,86.234 L0.22,92.523 C0.22,96.798 3.686,100.263 7.961,100.263 L16.7265859,100.263 L16.7265859,100.263 Z M65.034,92.829 C63.128,92.826 61.586,91.279 61.588,89.374 C61.591,87.468 63.138,85.925 65.043,85.928 C66.949,85.931 68.492,87.477 68.489,89.383 C68.487,91.289 66.94,92.831 65.034,92.829 Z M16.085,92.829 C14.18,92.826 12.637,91.279 12.639,89.374 C12.642,87.468 14.189,85.925 16.095,85.928 C18,85.931 19.543,87.477 19.54,89.383 C19.538,91.289 17.991,92.831 16.085,92.829 Z M14.886,121.955 C13.538,123.302 11.354,123.302 10.006,121.955 C8.659,120.607 8.659,118.423 10.006,117.075 C11.354,115.728 13.538,115.728 14.886,117.075 C16.233,118.423 16.233,120.607 14.886,121.955 Z M29.824,107.017 C28.476,108.364 26.292,108.364 24.944,107.017 C23.597,105.669 23.597,103.485 24.944,102.137 C26.292,100.79 28.476,100.79 29.824,102.137 C31.171,103.485 31.171,105.669 29.824,107.017 Z M44.762,92.079 C43.414,93.426 41.23,93.426 39.882,92.079 C38.535,90.731 38.535,88.547 39.882,87.199 C41.23,85.852 43.414,85.852 44.762,87.199 C46.109,88.547 46.109,90.731 44.762,92.079 Z M59.7,107.017 C58.352,108.364 56.168,108.364 54.82,107.017 C53.473,105.669 53.473,103.485 54.82,102.137 C56.168,100.79 58.352,100.79 59.7,102.137 C61.047,103.485 61.047,105.669 59.7,107.017 Z M69.758,121.955 C68.411,120.607 68.411,118.423 69.758,117.075 C71.106,115.728 73.29,115.728 74.638,117.075 C75.985,118.423 75.985,120.607 74.638,121.955 C73.29,123.302 71.106,123.302 69.758,121.955 Z" id="Path" fill-opacity="0.390000582" fill="#000000" sketch:type="MSShapeGroup"></path>
                <path d="M41.76,0.049 C22.407,0.049 6.718,15.738 6.718,35.09 C6.718,54.443 22.407,70.132 41.76,70.132 C61.112,70.132 76.801,54.443 76.801,35.09 C76.801,15.738 61.112,0.049 41.76,0.049 L41.76,0.049 Z M20.442,16.909 C21.431,15.281 23.553,14.762 25.182,15.751 C26.811,16.74 27.33,18.862 26.34,20.491 C25.351,22.12 23.229,22.638 21.6,21.649 C19.972,20.66 19.453,18.538 20.442,16.909 L20.442,16.909 Z M63.294,51.841 C58.082,58.533 50.232,62.371 41.76,62.371 C33.574,62.371 25.894,58.744 20.687,52.418 C19.809,51.352 19.962,49.777 21.028,48.899 C22.095,48.023 23.669,48.174 24.548,49.24 C28.801,54.408 35.074,57.372 41.76,57.372 C48.68,57.372 55.091,54.236 59.349,48.769 C60.196,47.679 61.768,47.483 62.857,48.333 C63.946,49.181 64.142,50.752 63.294,51.841 L63.294,51.841 Z M63.642,20.491 C62.653,22.12 60.531,22.638 58.902,21.649 C57.273,20.66 56.755,18.538 57.744,16.909 C58.733,15.281 60.855,14.762 62.484,15.751 C64.113,16.74 64.631,18.862 63.642,20.491 L63.642,20.491 Z" id="Fill-3" fill="#0B79BF" sketch:type="MSShapeGroup"></path>
            </g>
        </g>
    </g>
</svg>