<?xml version="1.0" encoding="UTF-8" standalone="no"?>
<svg width="84px" height="122px" viewBox="0 0 84 122" version="1.1" xmlns="http://www.w3.org/2000/svg" xmlns:xlink="http://www.w3.org/1999/xlink" xmlns:sketch="http://www.bohemiancoding.com/sketch/ns">
    <!-- Generator: Sketch 3.2.2 (9983) - http://www.bohemiancoding.com/sketch -->
    <title>triangle_KZman</title>
    <desc>Created with Sketch.</desc>
    <defs></defs>
    <g id="Page-1" stroke="none" stroke-width="1" fill="none" fill-rule="evenodd" sketch:type="MSPage">
        <g id="Artboard-1" sketch:type="MSArtboardGroup" transform="translate(-37.000000, -110.000000)">
            <g id="triangle_KZman" sketch:type="MSLayerGroup" transform="translate(37.000000, 110.000000)">
                <path d="M68.865,0.295 L19.391,0.253 C11.961,0.246 7.177,8.126 10.608,14.715 L33.462,58.594 C37.023,65.431 46.69,65.748 50.691,59.159 L77.312,15.322 C81.313,8.732 76.574,0.301 68.865,0.295 L68.865,0.295 Z M23.354,12.414 C22.365,14.043 20.243,14.562 18.614,13.573 C16.985,12.584 16.467,10.461 17.456,8.833 C18.445,7.204 20.567,6.685 22.196,7.674 C23.825,8.663 24.343,10.785 23.354,12.414 L23.354,12.414 Z M45.034,55.576 C44.045,57.205 41.923,57.723 40.294,56.734 C38.665,55.745 38.146,53.623 39.136,51.994 C40.125,50.365 42.247,49.847 43.876,50.836 C45.504,51.825 46.023,53.947 45.034,55.576 L45.034,55.576 Z M43.007,39.921 L42.372,39.92 C41.026,39.92 39.935,38.829 39.936,37.483 L39.946,11.427 C39.946,10.082 41.038,8.991 42.383,8.992 L43.018,8.992 C44.364,8.993 45.454,10.084 45.454,11.429 L45.444,37.485 C45.443,38.831 44.352,39.921 43.007,39.921 L43.007,39.921 Z M69.906,11.674 C68.917,13.303 66.794,13.822 65.166,12.833 C63.537,11.844 63.018,9.721 64.007,8.093 C64.996,6.464 67.118,5.945 68.747,6.934 C70.376,7.924 70.895,10.046 69.906,11.674 L69.906,11.674 Z" id="Fill-36" fill="#0B79BF" sketch:type="MSShapeGroup"></path>
                <path d="M80.785,103.458 L47.243,69.916 C44.282,66.955 39.481,66.955 36.519,69.916 L2.735,103.7 C-0.619,107.054 -0.619,112.49 2.735,115.843 L5.878,118.987 C9.232,122.34 14.668,122.34 18.021,118.987 L41.881,95.127 L65.498,118.744 C68.851,122.097 74.288,122.097 77.641,118.744 L80.785,115.601 C84.138,112.247 84.138,106.811 80.785,103.458 L80.785,103.458 Z M14.886,111.4 C13.538,112.747 11.354,112.747 10.006,111.4 C8.659,110.053 8.659,107.868 10.006,106.52 C11.354,105.173 13.538,105.173 14.886,106.52 C16.233,107.868 16.233,110.053 14.886,111.4 L14.886,111.4 Z M29.824,96.462 C28.476,97.809 26.292,97.809 24.944,96.462 C23.597,95.115 23.597,92.93 24.944,91.582 C26.292,90.235 28.476,90.235 29.824,91.582 C31.171,92.93 31.171,95.115 29.824,96.462 L29.824,96.462 Z M44.762,81.524 C43.414,82.871 41.23,82.871 39.882,81.524 C38.535,80.176 38.535,77.992 39.882,76.644 C41.23,75.297 43.414,75.297 44.762,76.644 C46.109,77.992 46.109,80.176 44.762,81.524 L44.762,81.524 Z M59.7,96.462 C58.352,97.809 56.168,97.809 54.82,96.462 C53.473,95.115 53.473,92.93 54.82,91.582 C56.168,90.235 58.352,90.235 59.7,91.582 C61.047,92.93 61.047,95.115 59.7,96.462 L59.7,96.462 Z M74.638,111.4 C73.29,112.747 71.106,112.747 69.758,111.4 C68.411,110.053 68.411,107.868 69.758,106.52 C71.106,105.173 73.29,105.173 74.638,106.52 C75.985,107.868 75.985,110.053 74.638,111.4 L74.638,111.4 Z" id="Fill-37" fill="#A7A9AC" sketch:type="MSShapeGroup"></path>
                <path d="M75.559,67.939 L7.961,67.939 C3.686,67.939 0.22,71.404 0.22,75.679 L0.22,81.968 C0.22,86.243 3.686,89.709 7.961,89.709 L75.559,89.709 C79.834,89.709 83.3,86.243 83.3,81.968 L83.3,75.679 C83.3,71.404 79.834,67.939 75.559,67.939 L75.559,67.939 Z M16.086,82.274 C14.18,82.271 12.637,80.725 12.64,78.819 C12.642,76.913 14.189,75.371 16.095,75.373 C18.001,75.376 19.543,76.923 19.54,78.828 C19.538,80.734 17.991,82.277 16.086,82.274 L16.086,82.274 Z M42.368,82.274 C40.462,82.271 38.92,80.725 38.922,78.819 C38.925,76.913 40.472,75.371 42.378,75.373 C44.283,75.376 45.826,76.923 45.823,78.828 C45.82,80.734 44.273,82.277 42.368,82.274 L42.368,82.274 Z M65.034,82.274 C63.128,82.271 61.586,80.725 61.588,78.819 C61.591,76.913 63.138,75.371 65.044,75.373 C66.949,75.376 68.492,76.923 68.489,78.828 C68.487,80.734 66.94,82.277 65.034,82.274 L65.034,82.274 Z" id="Fill-38" fill="#A7A9AC" sketch:type="MSShapeGroup"></path>
            </g>
        </g>
    </g>
</svg>